/* XPM */
static char * C:\Users\User\Documents\42W\so_long\100_xpm[] = {
"42 42 459 2",
"  	c None",
". 	c #181328",
"+ 	c #181329",
"@ 	c #18132D",
"# 	c #1B1732",
"$ 	c #312D48",
"% 	c #322D4B",
"& 	c #1B1634",
"* 	c #18132C",
"= 	c #18132E",
"- 	c #18132B",
"; 	c #231C3D",
"> 	c #18132A",
", 	c #241B3A",
"' 	c #251C3B",
") 	c #1F162B",
"! 	c #291B3E",
"~ 	c #27193D",
"{ 	c #291A41",
"] 	c #2D1F42",
"^ 	c #27193C",
"/ 	c #1A1329",
"( 	c #2B1D3E",
"_ 	c #5C4E71",
": 	c #7E6F96",
"< 	c #786992",
"[ 	c #7D6E99",
"} 	c #807198",
"| 	c #74668A",
"1 	c #5B4D71",
"2 	c #392B4C",
"3 	c #63587A",
"4 	c #746689",
"5 	c #6A5B82",
"6 	c #7D6E97",
"7 	c #786994",
"8 	c #665683",
"9 	c #655582",
"0 	c #83749D",
"a 	c #87789F",
"b 	c #8B7CA3",
"c 	c #86789C",
"d 	c #615377",
"e 	c #291E3E",
"f 	c #7D7197",
"g 	c #9586AD",
"h 	c #7C6D98",
"i 	c #776893",
"j 	c #756592",
"k 	c #695986",
"l 	c #7F6F9C",
"m 	c #8777A4",
"n 	c #81729D",
"o 	c #8E7FA8",
"p 	c #9384AD",
"q 	c #6B5F83",
"r 	c #3D3155",
"s 	c #443B5A",
"t 	c #19132F",
"u 	c #19132B",
"v 	c #4F4466",
"w 	c #8B7FA5",
"x 	c #897AA3",
"y 	c #7A6B96",
"z 	c #62537E",
"A 	c #5D4D7A",
"B 	c #7B6B9A",
"C 	c #8474A1",
"D 	c #776794",
"E 	c #796A95",
"F 	c #897AA5",
"G 	c #8E82A8",
"H 	c #4E4365",
"I 	c #514668",
"J 	c #2A213E",
"K 	c #584F6C",
"L 	c #1B132F",
"M 	c #302545",
"N 	c #8A7EA2",
"O 	c #7E729A",
"P 	c #6E5F8A",
"Q 	c #6C5C89",
"R 	c #6B5C87",
"S 	c #72638A",
"T 	c #695A83",
"U 	c #5F4F7C",
"V 	c #685887",
"W 	c #6D5D8A",
"X 	c #71618E",
"Y 	c #786895",
"Z 	c #796996",
"` 	c #766994",
" .	c #7B6E99",
"..	c #887CA2",
"+.	c #574D6F",
"@.	c #221936",
"#.	c #201631",
"$.	c #817696",
"%.	c #7C7096",
"&.	c #635681",
"*.	c #62527F",
"=.	c #655584",
"-.	c #665782",
";.	c #685984",
">.	c #776891",
",.	c #574774",
"'.	c #7D6D9A",
").	c #8979A6",
"!.	c #8477A3",
"~.	c #8376A2",
"{.	c #7C7098",
"].	c #786C94",
"^.	c #655B7E",
"/.	c #41375A",
"(.	c #251A38",
"_.	c #887D9F",
":.	c #6E628A",
"<.	c #615480",
"[.	c #6C5C8B",
"}.	c #675788",
"|.	c #736390",
"1.	c #7E6F9A",
"2.	c #675881",
"3.	c #6A5B84",
"4.	c #8879A4",
"5.	c #8C7CA9",
"6.	c #7A6A97",
"7.	c #6F628E",
"8.	c #6B5E8A",
"9.	c #655883",
"0.	c #524570",
"a.	c #746A8F",
"b.	c #8D83A8",
"c.	c #4F4567",
"d.	c #181330",
"e.	c #4B3F67",
"f.	c #44355E",
"g.	c #685885",
"h.	c #625281",
"i.	c #6E5E8D",
"j.	c #655481",
"k.	c #5E4D7A",
"l.	c #44335F",
"m.	c #5A4975",
"n.	c #80709D",
"o.	c #8575A2",
"p.	c #70608D",
"q.	c #81719E",
"r.	c #6A5A87",
"s.	c #9D8DBA",
"t.	c #4A3A67",
"u.	c #20133D",
"v.	c #1C1334",
"w.	c #493A63",
"x.	c #5E4E7D",
"y.	c #645483",
"z.	c #6C5B88",
"A.	c #62517E",
"B.	c #3C2B57",
"C.	c #43325E",
"D.	c #645481",
"E.	c #766693",
"F.	c #8373A0",
"G.	c #82729F",
"H.	c #7C6C99",
"I.	c #7B6B98",
"J.	c #342550",
"K.	c #1D1335",
"L.	c #483C64",
"M.	c #473861",
"N.	c #726291",
"O.	c #695988",
"P.	c #705F8C",
"Q.	c #665582",
"R.	c #41305C",
"S.	c #453460",
"T.	c #40305D",
"U.	c #534370",
"V.	c #8B7BA8",
"W.	c #8D7DAA",
"X.	c #8878A5",
"Y.	c #1C1338",
"Z.	c #493D65",
"`.	c #3F3059",
" +	c #60507D",
".+	c #8272A1",
"++	c #8474A3",
"@+	c #7A6996",
"#+	c #695885",
"$+	c #493864",
"%+	c #4B3A66",
"&+	c #3C2C59",
"*+	c #3E2E5B",
"=+	c #8676A3",
"-+	c #72628F",
";+	c #746491",
">+	c #6E5E8B",
",+	c #4B3C67",
"'+	c #1F1337",
")+	c #52466E",
"!+	c #41325B",
"~+	c #463663",
"{+	c #7E6E9D",
"]+	c #8A7AA9",
"^+	c #8D7DAC",
"/+	c #907FAC",
"(+	c #54436F",
"_+	c #4C3B67",
":+	c #493966",
"<+	c #473764",
"[+	c #5A4A77",
"}+	c #61517E",
"|+	c #584875",
"1+	c #4F3F6C",
"2+	c #4E3E6B",
"3+	c #5B4B78",
"4+	c #6B5B88",
"5+	c #564772",
"6+	c #51456D",
"7+	c #4A3B64",
"8+	c #41315E",
"9+	c #564673",
"0+	c #6A5A89",
"a+	c #796895",
"b+	c #6F5E8B",
"c+	c #51406C",
"d+	c #463561",
"e+	c #453562",
"f+	c #443461",
"g+	c #483865",
"h+	c #3F2F5C",
"i+	c #382855",
"j+	c #433360",
"k+	c #4A3B66",
"l+	c #19132A",
"m+	c #392D55",
"n+	c #423261",
"o+	c #392958",
"p+	c #3A2A59",
"q+	c #493865",
"r+	c #402F5B",
"s+	c #3F2E5A",
"t+	c #4D3D6A",
"u+	c #6F5F8C",
"v+	c #594976",
"w+	c #392956",
"x+	c #52436E",
"y+	c #1B1335",
"z+	c #3C2D56",
"A+	c #50406F",
"B+	c #4A3A69",
"C+	c #453564",
"D+	c #4A3966",
"E+	c #473663",
"F+	c #473662",
"G+	c #4D3C68",
"H+	c #675784",
"I+	c #4D3E69",
"J+	c #302648",
"K+	c #1B1330",
"L+	c #32284C",
"M+	c #5A4D79",
"N+	c #463965",
"O+	c #443765",
"P+	c #433566",
"Q+	c #443667",
"R+	c #463967",
"S+	c #473A68",
"T+	c #463665",
"U+	c #443560",
"V+	c #43325F",
"W+	c #42315E",
"X+	c #5F4D7D",
"Y+	c #8674A4",
"Z+	c #8C7AAA",
"`+	c #796797",
" @	c #6B598B",
".@	c #6E5C8E",
"+@	c #726090",
"@@	c #8270A0",
"#@	c #6B5989",
"$@	c #3E2C5C",
"%@	c #402F5C",
"&@	c #4C3D68",
"*@	c #43385A",
"=@	c #1A142D",
"-@	c #3A2E56",
";@	c #4A3E66",
">@	c #493C67",
",@	c #453864",
"'@	c #483B69",
")@	c #4C3C6B",
"!@	c #4F3E6B",
"~@	c #342252",
"{@	c #423060",
"]@	c #665484",
"^@	c #8573A3",
"/@	c #8F7DAD",
"(@	c #7E6C9C",
"_@	c #5D4B7B",
":@	c #534171",
"<@	c #4C3B68",
"[@	c #453461",
"}@	c #503F6B",
"|@	c #50416A",
"1@	c #312749",
"2@	c #19132D",
"3@	c #372C4E",
"4@	c #3E3258",
"5@	c #463A60",
"6@	c #463964",
"7@	c #433662",
"8@	c #413460",
"9@	c #4F3F6E",
"0@	c #443463",
"a@	c #4E3E6D",
"b@	c #514170",
"c@	c #473766",
"d@	c #413160",
"e@	c #433362",
"f@	c #3F2F5E",
"g@	c #40315C",
"h@	c #42335E",
"i@	c #4E3F68",
"j@	c #55466F",
"k@	c #4A3B62",
"l@	c #291D41",
"m@	c #181332",
"n@	c #3E3554",
"o@	c #564D6C",
"p@	c #5B5271",
"q@	c #544B6A",
"r@	c #39304F",
"s@	c #281D3D",
"t@	c #372B4F",
"u@	c #3F3357",
"v@	c #453961",
"w@	c #4F426E",
"x@	c #51416E",
"y@	c #4B3C65",
"z@	c #382952",
"A@	c #312347",
"B@	c #322448",
"C@	c #25173A",
"D@	c #44436B",
"E@	c #9395BE",
"F@	c #7D7FA8",
"G@	c #8182AE",
"H@	c #8F90BC",
"I@	c #7C7FA8",
"J@	c #24264D",
"K@	c #181331",
"L@	c #1B1332",
"M@	c #281C40",
"N@	c #392D53",
"O@	c #51426B",
"P@	c #5C4D78",
"Q@	c #594A75",
"R@	c #483964",
"S@	c #50416C",
"T@	c #4F406B",
"U@	c #52436C",
"V@	c #413357",
"W@	c #1E1334",
"X@	c #494568",
"Y@	c #7C7CA2",
"Z@	c #6C6E95",
"`@	c #6D6F98",
" #	c #62648D",
".#	c #6F729D",
"+#	c #636691",
"@#	c #61648F",
"##	c #73759E",
"$#	c #6E6E94",
"%#	c #181336",
"&#	c #2E2248",
"*#	c #4A3E64",
"=#	c #3B2F55",
"-#	c #6F6E90",
";#	c #7A7CA3",
">#	c #51547D",
",#	c #585B86",
"'#	c #7578A3",
")#	c #484D77",
"!#	c #393E68",
"~#	c #282D57",
"{#	c #565982",
"]#	c #5F6187",
"^#	c #757599",
"/#	c #606289",
"(#	c #575A83",
"_#	c #656A94",
":#	c #60658F",
"<#	c #383C69",
"[#	c #424673",
"}#	c #39406A",
"|#	c #4B5078",
"1#	c #4D5177",
"2#	c #222246",
"3#	c #67678B",
"4#	c #4C4E77",
"5#	c #4C4F7A",
"6#	c #5C608D",
"7#	c #575B88",
"8#	c #535784",
"9#	c #525683",
"0#	c #5C638F",
"a#	c #5A5F89",
"b#	c #323256",
"c#	c #444269",
"d#	c #3F416A",
"e#	c #31345F",
"f#	c #414471",
"g#	c #656895",
"h#	c #5E628F",
"i#	c #565A87",
"j#	c #606491",
"k#	c #4F527D",
"l#	c #3E4067",
"m#	c #39375C",
"n#	c #191328",
"o#	c #231E46",
"p#	c #46456F",
"q#	c #464773",
"r#	c #414270",
"s#	c #4F5181",
"t#	c #595B8B",
"u#	c #5C5F8C",
"v#	c #5A5B87",
"w#	c #494872",
"x#	c #403B63",
"y#	c #181334",
"z#	c #2B2A56",
"A#	c #4B4C7A",
"B#	c #313260",
"C#	c #4A4B7B",
"D#	c #464777",
"E#	c #2E3060",
"F#	c #474876",
"G#	c #2F2E58",
"H#	c #18132F",
"I#	c #181438",
"J#	c #373962",
"K#	c #5A5D8A",
"L#	c #3F4171",
"M#	c #3E3E70",
"N#	c #515282",
"O#	c #464372",
"P#	c #1F1635",
"Q#	c #201E43",
"R#	c #35345C",
"S#	c #474670",
"T#	c #403F6B",
"U#	c #45426D",
"V#	c #38335C",
"W#	c #2F2645",
"X#	c #231A39",
"Y#	c #19132C",
"Z#	c #1A132D",
". . . . . . . . . . . . . . . . . . . . + . . . . . . . . . . . . . . . . . . . . . ",
". . . . . . . . . @ . # $ % & . * . . . . . . . . . . . . . . . . . . . . . . . . . ",
". . . . . . . . . . . . = - . . @ ; @ . . . . . . . . . . . . . . . . . . . . . . . ",
". . . . . . . . . . . . . . . > , ' @ . . . . . . . . . . . . . . . . . . . . . . . ",
". . . . . . . . . . . . . . . . . . . . . . . . . . . . . . . . . . . . . . . . . . ",
". . . . . . . . . . . . . . . . . ) . . . . ! ~ { ] ^ . . . . . . . . . . > . . + . ",
"> . . . . . . . . . . . . . . . . . . / ( _ : < [ : } | 1 2 + . . . . . . . . . . . ",
". . . . . . . . . . . * > . . . + . 3 4 5 6 7 8 9 6 0 a b c d e . . . . . . . - . . ",
". . . . . . . . . . . - . . - > . . f g 6 h i j k l m n h o p q r . . . . . . . . . ",
". . . . . . . . . s t . . . u . . v w x 7 i y 6 z A B C D E F G w H I J . . . . . . ",
"+ . . . . . . . . K L . . . . . M N O P Q R R S T U V W X Y Z `  ...G +.+ . . . . . ",
". . . . . . . . . @.. . . . . #.$.%.&.*.=.-.;.5 >.i 8 ,.*.'.).!.~.{.].^./.t . . . . ",
". . . . . . . . . . . + . . . (._.:.<.[.}.|.1.2.3.>.4.5.C l 6.7.8.9.0.a.b.c.. . . . ",
". . . . . . . . . . . . . d.e.f.k g.h.i.=.j.k.l.m.X Y |.X n.o.Z p.q.r.U o.s.t.u.. . ",
". . . . . . . . . . . . . v.e.w.6.g.x.V y.z.A.B.C.D.E.q.F.G.H.6.F.I.q.6.|.m m q.J.. ",
". . . . . . . . . . . . . K.L.M.6.l N.N.O.P.Q.R.S.T.U.Q q.o.H.H.V.'.F.W.X.q.q.D Y.. ",
". . . . . . . . . . > . . K.Z.`. +o..+++B @+#+$+%+&+*+U.j =+'.-+;+X g.p.H.-+>+;+,+. ",
". . . . . . . . . . > . . '+)+!+~+|.{+]+^+/+@+(+_+:+T.<+[+}+|+1+2+3+4+g.8 U }+}+5+. ",
". . . . . . . . . . . . . v.6+7+8+9+x.h.0+a+b+c+d+e+f+g+<+h+8+2+|+i+3+}+p.p. +j+k+. ",
". l++ . . . . . . . . . + . m+M.:+*+n+o+p+q+q+r+s+~+t.t+g+<+A -+|.*.Q }+|.u+v+w+x+> ",
". . . . . > . . . . . . . . y+z+t+j+A+B+C+D+E+F+G+:+e+8+*+2+u+j A H+X  +9  +*.e+I+J+",
". . . . . . K+* + . . . . . . L+M+N+O+P+Q+R+S+R+T+U+$+V+W+X+Y+Z+`+ @.@+@@@#@$@%@&@*@",
". * = = = . . . . . . > . . . =@-@;@>@N+,@O+R+'@)@e+!@!@%@~@{@]@^@/@(@_@:@<@[@}@|@1@",
". + . . . . . . . . . . + . . . 2@3@4@5@e.>@6@7@8@9@0@n+a@b@c@d@e@f@c@g@h@i@j@k@l@m@",
". . . > n@o@p@q@r@> . . + . > . . . - s@t@u@v@e.w@j+d@n+T+T+n+n+0@f+x@y@z@A@B@C@. . ",
". . m@D@E@F@G@H@I@J@K@. . . . . . . . . > L@M@N@v@O@P@Q@R@U+S@5+T@U@O@V@W@. . . . . ",
". X@Y@Z@`@ #.#+#@###$#%#. . . . . > + . . . . . * . + . > &#*#=#d.. . - . . . . . . ",
". -#;#>#,#'#)#!#~#{#]#@ . . . . . . . . . . . . . . . . . . . . . . . . . . . . . . ",
". ^#/#(#_#:#<#[#}#|#1#2#d.. . . . + . . . . . . . . . . . . . . . . . > . . . . . . ",
". 3#4#5#6#7#8#9#0#a#1#b#. . . . . > . + . . . . . . . . . . . . . . . . . . . . = . ",
". c#d#e#f#g#h#i#j#k#l#m#. . . . . . . . . . n#. . . . . . . . . . - . . . . . . . . ",
". o#p#q#r#r#s#t#u#v#w#x#. . . . . > L . . . + . . . . > . . . . . . . . . . - . . . ",
"y#. @ z#A#B#C#D#E#F#G#= . H#. . . . . . . . . . . . . . . . . . . . . L + . . . . . ",
"> > . I#J#K#L#M#N#O#%#. + . . . . . . . P#. . . + . . . . . . . . . . . u . . . . . ",
". . . + Q#R#S#T#U#V#d.. . . . . . . . . W#t . . . . . . . . . . . . . . . . . . . . ",
". . . . . H#. . . . . . . . . . . . . . X#> . . . . . . . . . . . . . . . . . . . . ",
". . . . . . . > . . > . . . . . . . . . . . . + . . . . . . . . . . . . . . . . . . ",
". . . . . . . . . . . . . . . . . . . . . . . . . . . . . . . . . . . . . . . + . . ",
". . . . . . Y#Z#. . . . . . . . . . . . . . . . . . . . . . . . . . . . . . . . . . ",
". . . . . . . . L . . . . . . . . . . . . . . . . . . . . . . . . . . . . . . . . . ",
". . . . . . . . . . . . . . . . . . . . . . . . . . . . . . . . . . . . . . . . . . ",
". . . . . . . . . . . . . . . . . . . . . . . . . . . . . . . . . . . . . . . . . . "};
