/* XPM */
static char * C:\Users\User\Documents\42W\so_long\101_xpm[] = {
"42 42 618 2",
"  	c None",
". 	c #18132A",
"+ 	c #181328",
"@ 	c #181329",
"# 	c #18132D",
"$ 	c #444269",
"% 	c #3F416A",
"& 	c #18132B",
"* 	c #18132C",
"= 	c #2D2443",
"- 	c #1E1333",
"; 	c #1C132F",
"> 	c #231E46",
", 	c #46456F",
"' 	c #19132E",
") 	c #181334",
"! 	c #18132E",
"~ 	c #34304B",
"{ 	c #45415C",
"] 	c #4A4762",
"^ 	c #46435E",
"/ 	c #393651",
"( 	c #2B2843",
"_ 	c #18132F",
": 	c #2D294C",
"< 	c #4F4B70",
"[ 	c #737196",
"} 	c #8785AC",
"| 	c #8988B0",
"1 	c #8281A9",
"2 	c #72719B",
"3 	c #636188",
"4 	c #373656",
"5 	c #504D6A",
"6 	c #1D1836",
"7 	c #181330",
"8 	c #4B4768",
"9 	c #8D89AE",
"0 	c #5D5B83",
"a 	c #6E6B98",
"b 	c #7876A5",
"c 	c #706EA0",
"d 	c #646498",
"e 	c #606096",
"f 	c #5D5C95",
"g 	c #5A588A",
"h 	c #6F6E90",
"i 	c #8D8AA7",
"j 	c #423D5B",
"k 	c #27203F",
"l 	c #2E2746",
"m 	c #26183C",
"n 	c #251D46",
"o 	c #181333",
"p 	c #2A2752",
"q 	c #8C8BB5",
"r 	c #545581",
"s 	c #6A6F99",
"t 	c #6E739D",
"u 	c #6B709A",
"v 	c #6D729C",
"w 	c #7679A6",
"x 	c #70719F",
"y 	c #606191",
"z 	c #5F5D8E",
"A 	c #5A5786",
"B 	c #514E7B",
"C 	c #727098",
"D 	c #181331",
"E 	c #1B1732",
"F 	c #2B1C43",
"G 	c #22163C",
"H 	c #241C45",
"I 	c #18133A",
"J 	c #3C3964",
"K 	c #8483AF",
"L 	c #585985",
"M 	c #686D97",
"N 	c #676B98",
"O 	c #6C709D",
"P 	c #6A6C9C",
"Q 	c #535484",
"R 	c #3E3E70",
"S 	c #403E70",
"T 	c #545180",
"U 	c #615E8B",
"V 	c #7E7CA4",
"W 	c #646287",
"X 	c #5D597A",
"Y 	c #291A43",
"Z 	c #2F234B",
"` 	c #201742",
" .	c #2C2551",
"..	c #5F5C89",
"+.	c #7D7BAA",
"@.	c #6D6E9C",
"#.	c #6F73A0",
"$.	c #6E729F",
"%.	c #7175A2",
"&.	c #767AA7",
"*.	c #4A4B7B",
"=.	c #373769",
"-.	c #3F3D6F",
";.	c #333160",
">.	c #52517D",
",.	c #585781",
"'.	c #64648A",
").	c #6E6D8F",
"!.	c #423E5F",
"~.	c #261742",
"{.	c #2C1F4A",
"].	c #18133B",
"^.	c #48406F",
"/.	c #7572A1",
"(.	c #626091",
"_.	c #7576A6",
":.	c #767AA9",
"<.	c #7175A4",
"[.	c #6A6E9B",
"}.	c #5F6390",
"|.	c #4C4E7E",
"1.	c #393A6A",
"2.	c #39396B",
"3.	c #484678",
"4.	c #4B4C7C",
"5.	c #5E5F8D",
"6.	c #575884",
"7.	c #56587F",
"8.	c #59597F",
"9.	c #7C7B9D",
"0.	c #312D4E",
"a.	c #271841",
"b.	c #2E1E4B",
"c.	c #251844",
"d.	c #19133F",
"e.	c #605887",
"f.	c #73709F",
"g.	c #3D3B6C",
"h.	c #656696",
"i.	c #474B78",
"j.	c #484C79",
"k.	c #444875",
"l.	c #363A67",
"m.	c #2E3060",
"n.	c #505181",
"o.	c #615F90",
"p.	c #505282",
"q.	c #4E517C",
"r.	c #454672",
"s.	c #404269",
"t.	c #75739A",
"u.	c #19183A",
"v.	c #30214A",
"w.	c #332350",
"x.	c #231642",
"y.	c #302756",
"z.	c #756D9C",
"A.	c #706D9C",
"B.	c #3F3D6C",
"C.	c #5C5D8B",
"D.	c #535784",
"E.	c #5E628F",
"F.	c #656A94",
"G.	c #5A5F89",
"H.	c #4B4E7B",
"I.	c #494A78",
"J.	c #414270",
"K.	c #6B6F9E",
"L.	c #555885",
"M.	c #3D406D",
"N.	c #54567F",
"O.	c #7A79A1",
"P.	c #1C1A3F",
"Q.	c #22133C",
"R.	c #1D133C",
"S.	c #4A416E",
"T.	c #766F9B",
"U.	c #696693",
"V.	c #5F5D8C",
"W.	c #575886",
"X.	c #646993",
"Y.	c #767BA3",
"Z.	c #7B80A8",
"`.	c #6F729B",
" +	c #64668F",
".+	c #474876",
"++	c #777AA7",
"@+	c #7D81B0",
"#+	c #545887",
"$+	c #3E4271",
"%+	c #585B86",
"&+	c #5C5E87",
"*+	c #2A2A50",
"=+	c #181332",
"-+	c #544B78",
";+	c #665F8B",
">+	c #595683",
",+	c #71709C",
"'+	c #494A76",
")+	c #535880",
"!+	c #4D527A",
"~+	c #555A82",
"{+	c #5E638B",
"]+	c #5A5D86",
"^+	c #595B84",
"/+	c #5A5B87",
"(+	c #5C608D",
"_+	c #5C6391",
":+	c #4B4F7E",
"<+	c #606493",
"[+	c #5D608D",
"}+	c #31325E",
"|+	c #404066",
"1+	c #3F3E60",
"2+	c #62648A",
"3+	c #5F618A",
"4+	c #53557E",
"5+	c #51527E",
"6+	c #5D5E8A",
"7+	c #595A86",
"8+	c #555682",
"9+	c #555881",
"0+	c #50557B",
"a+	c #5B6086",
"b+	c #4B5078",
"c+	c #5C5F8A",
"d+	c #515481",
"e+	c #484773",
"f+	c #4F4C77",
"g+	c #222143",
"h+	c #5C5E84",
"i+	c #6C6E97",
"j+	c #535681",
"k+	c #464976",
"l+	c #4B4D7D",
"m+	c #4E4F7D",
"n+	c #50517F",
"o+	c #545583",
"p+	c #5A5B89",
"q+	c #5B5E8B",
"r+	c #585B88",
"s+	c #4F547C",
"t+	c #5C618B",
"u+	c #494E78",
"v+	c #3D3F6F",
"w+	c #3E3C6B",
"x+	c #4C4974",
"y+	c #181337",
"z+	c #241939",
"A+	c #261B3B",
"B+	c #1B1330",
"C+	c #4D4F75",
"D+	c #686B96",
"E+	c #474E7A",
"F+	c #323868",
"G+	c #363A6A",
"H+	c #373A6D",
"I+	c #37396A",
"J+	c #3B3D6E",
"K+	c #464678",
"L+	c #515183",
"M+	c #555587",
"N+	c #4C507D",
"O+	c #393B6C",
"P+	c #333565",
"Q+	c #403E6D",
"R+	c #4A4772",
"S+	c #181336",
"T+	c #191328",
"U+	c #2F2F55",
"V+	c #494D7C",
"W+	c #3D4373",
"X+	c #393F71",
"Y+	c #3B4173",
"Z+	c #383B6E",
"`+	c #34376A",
" @	c #3A3C6F",
".@	c #404275",
"+@	c #434377",
"@@	c #454579",
"#@	c #45487B",
"$@	c #414477",
"%@	c #323568",
"&@	c #383A6D",
"*@	c #404272",
"=@	c #4C4A79",
"-@	c #423F6A",
";@	c #1B132F",
">@	c #19132A",
",@	c #2D2C54",
"'@	c #464974",
")@	c #494C79",
"!@	c #464878",
"~@	c #4E5080",
"{@	c #4A4C7D",
"]@	c #434576",
"^@	c #3E3E72",
"/@	c #37396C",
"(@	c #393B6E",
"_@	c #3D4075",
":@	c #36396E",
"<@	c #373B6B",
"[@	c #47497A",
"}@	c #4D507D",
"|@	c #262345",
"1@	c #403C57",
"2@	c #2D2846",
"3@	c #211F44",
"4@	c #1D1B42",
"5@	c #2C2B53",
"6@	c #3B3A62",
"7@	c #3F3E68",
"8@	c #41406C",
"9@	c #484977",
"0@	c #3D3F70",
"a@	c #3F4174",
"b@	c #3C3F72",
"c@	c #464A79",
"d@	c #38395F",
"e@	c #1B172E",
"f@	c #383554",
"g@	c #585574",
"h@	c #5F5E7D",
"i@	c #535272",
"j@	c #8F8EB0",
"k@	c #8785AA",
"l@	c #716F94",
"m@	c #454368",
"n@	c #1B173A",
"o@	c #181435",
"p@	c #201E43",
"q@	c #3A3963",
"r@	c #454674",
"s@	c #414574",
"t@	c #474B7B",
"u@	c #454978",
"v@	c #3F4370",
"w@	c #41456D",
"x@	c #201E38",
"y@	c #302A4C",
"z@	c #5D5C7C",
"A@	c #747395",
"B@	c #7F7FA3",
"C@	c #8282A6",
"D@	c #7B7BA1",
"E@	c #74739B",
"F@	c #61638C",
"G@	c #6E6F9B",
"H@	c #7779A2",
"I@	c #70729B",
"J@	c #6E6E94",
"K@	c #706E95",
"L@	c #474668",
"M@	c #26264C",
"N@	c #3B3E67",
"O@	c #464D7B",
"P@	c #4F5380",
"Q@	c #373A5F",
"R@	c #1E1A33",
"S@	c #1E1A3B",
"T@	c #666287",
"U@	c #8989AF",
"V@	c #7E7DA7",
"W@	c #72739F",
"X@	c #6B6C9A",
"Y@	c #686A9A",
"Z@	c #7476A6",
"`@	c #555988",
" #	c #4D5180",
".#	c #4F527F",
"+#	c #545782",
"@#	c #60628B",
"##	c #6D6D93",
"$#	c #505074",
"%#	c #1C183B",
"&#	c #1C1332",
"*#	c #281F3E",
"=#	c #231B38",
"-#	c #47456A",
";#	c #79779F",
">#	c #7A79A3",
",#	c #62608F",
"'#	c #6B6D9D",
")#	c #7375A8",
"!#	c #6A6DA0",
"~#	c #6D70A5",
"{#	c #5C6090",
"]#	c #4F5383",
"^#	c #575B88",
"/#	c #5A5D88",
"(#	c #40436C",
"_#	c #2E2E52",
":#	c #2F2B4C",
"<#	c #76769C",
"[#	c #7978A0",
"}#	c #676990",
"|#	c #66688F",
"1#	c #6F719A",
"2#	c #70719D",
"3#	c #696A98",
"4#	c #535482",
"5#	c #545983",
"6#	c #5B6088",
"7#	c #474A75",
"8#	c #6E719C",
"9#	c #8184AF",
"0#	c #7275A0",
"a#	c #777AA3",
"b#	c #36385F",
"c#	c #18183C",
"d#	c #1A132D",
"e#	c #424065",
"f#	c #8282A8",
"g#	c #7E7DA5",
"h#	c #51537C",
"i#	c #666795",
"j#	c #6C6F9C",
"k#	c #5A5D8A",
"l#	c #565B85",
"m#	c #595E86",
"n#	c #50537E",
"o#	c #696C97",
"p#	c #6B6E99",
"q#	c #676A95",
"r#	c #3A3C63",
"s#	c #313155",
"t#	c #1D1332",
"u#	c #3A395B",
"v#	c #807EA5",
"w#	c #706F97",
"x#	c #6C6B95",
"y#	c #63658E",
"z#	c #6C6F9A",
"A#	c #7073A0",
"B#	c #7275A2",
"C#	c #646794",
"D#	c #4E537D",
"E#	c #494E76",
"F#	c #565984",
"G#	c #4F527D",
"H#	c #53567F",
"I#	c #444468",
"J#	c #1A1535",
"K#	c #5E5C81",
"L#	c #8785AD",
"M#	c #636490",
"N#	c #5B5E89",
"O#	c #70739E",
"P#	c #7578A3",
"Q#	c #636693",
"R#	c #41466E",
"S#	c #3F446C",
"T#	c #61648F",
"U#	c #3D406B",
"V#	c #393C65",
"W#	c #303259",
"X#	c #47476B",
"Y#	c #1A1330",
"Z#	c #5B5778",
"`#	c #757599",
" $	c #706F99",
".$	c #575C86",
"+$	c #585D87",
"@$	c #606491",
"#$	c #525683",
"$$	c #373C64",
"%$	c #2E315C",
"&$	c #40436E",
"*$	c #3A3D66",
"=$	c #2E3057",
"-$	c #49496D",
";$	c #221938",
">$	c #322F4C",
",$	c #918DB0",
"'$	c #8080A6",
")$	c #64638F",
"!$	c #686C99",
"~$	c #696D9A",
"{$	c #2D325A",
"]$	c #646991",
"^$	c #7C7FAA",
"/$	c #636691",
"($	c #232651",
"_$	c #454873",
":$	c #2F3158",
"<$	c #271E3D",
"[$	c #1D1433",
"}$	c #221F3C",
"|$	c #726E91",
"1$	c #7A7AA0",
"2$	c #605F8B",
"3$	c #555787",
"4$	c #6C6E9F",
"5$	c #7579A6",
"6$	c #7377A4",
"7$	c #696E98",
"8$	c #202451",
"9$	c #686D95",
"0$	c #6F729D",
"a$	c #323560",
"b$	c #3F426D",
"c$	c #383A61",
"d$	c #38385C",
"e$	c #3E3A5F",
"f$	c #6D6B9A",
"g$	c #525484",
"h$	c #535586",
"i$	c #5E6291",
"j$	c #555A84",
"k$	c #4D527C",
"l$	c #282C59",
"m$	c #383D65",
"n$	c #636890",
"o$	c #8588B3",
"p$	c #393C67",
"q$	c #30335C",
"r$	c #474970",
"s$	c #202044",
"t$	c #444061",
"u$	c #918FB4",
"v$	c #65678E",
"w$	c #505785",
"x$	c #535B89",
"y$	c #4F5786",
"z$	c #5F6796",
"A$	c #515988",
"B$	c #565D8B",
"C$	c #4E5281",
"D$	c #343764",
"E$	c #4F507E",
"F$	c #7A7DAA",
"G$	c #7B7EAB",
"H$	c #656692",
"I$	c #4F4E78",
"J$	c #37365E",
"K$	c #211D3E",
"L$	c #1A1436",
"M$	c #534F72",
"N$	c #69698F",
"O$	c #62668C",
"P$	c #515680",
"Q$	c #515882",
"R$	c #454C78",
"S$	c #49507C",
"T$	c #414874",
"U$	c #5D628C",
"V$	c #3C3E6E",
"W$	c #565A89",
"X$	c #595D8C",
"Y$	c #3C3F6A",
"Z$	c #31335C",
"`$	c #393B62",
" %	c #4E4C71",
".%	c #191536",
"+%	c #77759A",
"@%	c #5E6086",
"#%	c #4A4D76",
"$%	c #5D628A",
"%%	c #5F648E",
"&%	c #63678D",
"*%	c #5D6089",
"=%	c #2D3160",
"-%	c #313866",
";%	c #383F6D",
">%	c #2D325C",
",%	c #353861",
"'%	c #3B3D64",
")%	c #333156",
"!%	c #3C3350",
"~%	c #7A789D",
"{%	c #5F5F85",
"]%	c #3C3E67",
"^%	c #52577F",
"/%	c #595E88",
"(%	c #5A5E8B",
"_%	c #414572",
":%	c #333A68",
"<%	c #282F5D",
"[%	c #303763",
"}%	c #353C68",
"|%	c #3A3F69",
"1%	c #474A73",
"2%	c #383A60",
"3%	c #37314B",
"4%	c #444365",
"5%	c #8787AD",
"6%	c #52547D",
"7%	c #404473",
"8%	c #303464",
"9%	c #2B2F5F",
"0%	c #2C2F5A",
"a%	c #41446D",
"b%	c #444770",
"c%	c #2F3359",
"d%	c #25274D",
"e%	c #18163A",
"f%	c #403E66",
"g%	c #4F517A",
"h%	c #3D3E6C",
"i%	c #383B68",
"j%	c #383A6A",
"k%	c #3A3B69",
"l%	c #403F67",
"m%	c #444267",
"n%	c #2B2B4F",
"o%	c #1F1F43",
"p%	c #181739",
"q%	c #1C132B",
"r%	c #272346",
"s%	c #35355B",
"t%	c #3F3F65",
"u%	c #3A3961",
"v%	c #36345B",
"w%	c #292444",
"x%	c #1C1534",
"y%	c #1A132E",
"z%	c #1F1C39",
"A%	c #2A1F3F",
". + + + + + + + + + + + + + + + + + + + + + + . + + + + + + + + + + + @ + + # + $ % ",
"+ + + + & + + + + + + . * & @ + @ @ + + + + . + + + + + + + + + + + . = - ; + + > , ",
"+ + + + + + + + + + + + + + + + + + + . + + @ + + + + + + + + + + @ @ ' + + + ) + # ",
"+ & . + + @ & + + + + + + + + + + + + + * + + + + + + + + + + + @ + + + + + + . . + ",
"+ + @ + @ + + + + ! ~ { ] ^ / ( + _ + + * + + . + + + + + + + + + + + + + + + + + + ",
"+ + + + + + + _ : < [ } | 1 2 3 4 5 6 + . + + + + + + + + + + + + * 7 + + + + + + + ",
"+ + + + + # 8 9 0 a b c d e f g h i j + @ + + + + + + + + + + + + k l ! + + + + + + ",
"+ m & n o p q r s t u v w x y z A B C D + + E + + + + + + + + + + + + + + + + + + + ",
"+ F G H I J K L M M N O P Q R S T U V W X * + & + + + + + + + + + + + + + + + + + + ",
"& Y Z `  ...+.@.#.$.%.&.P *.=.-.;.>.,.'.).!.+ + + + + + + + + + + + + + + + + + + + ",
"7 ~.{.].^./.(._.:.<.[.}.|.1.2.3.4.5.6.7.8.9.0.+ + + + + + + + + + + + + + + + + + + ",
"a.b.c.d.e.f.g.h.i.j.k.l.m.1.n.o.p.p.q.r.s.t.u.+ + + + + + + + + + + + + + + + + + + ",
"v.w.x.y.z.A.B.C.D.E.F.G.H.I.I.J.P K.L.M.N.O.P.+ + + + + + + + + + + + + + + + + + + ",
"Q.~.R.S.T.U.V.W.G.X.Y.Z.`. +6..+++@+#+$+%+&+*++ + + + + + + + + + + + + + + + + + + ",
"+ ! =+-+;+>+,+'+)+!+~+{+]+^+&+/+(+_+:+<+[+}+|++ + + + + + + + + + + + + + + + + + + ",
"+ + @ 1+2+3+4+5+6+6+6+7+8+6.%+9+0+a+b+c+d+e+f+o + + + + + + + + + + + . . + + + + + ",
"+ + + g+h+i+j+k+l+|.m+n+o+p+q+r+s+t+u+H.v+w+x+y++ + + + + + + + + + & z+A+B++ + + + ",
"+ + + # C+D+E+F+G+H+I+J+K+L+M+M+N+#+$+O+P+Q+R+S++ + + + + + T++ + + + . * + + + + + ",
"+ + + + U+q.V+W+X+Y+Z+`+ @.@+@@@#@$@%@&@*@=@-@! + @ ;@+ + + + + + + + + >@+ + + + + ",
"+ + + + _ ,@'@)@!@~@{@]@+@^@/@(@_@:@<@[@}@e+|@+ + + + + + + + 1@2@D + + + + @ + + + ",
"+ + + + + =+3@4@5@6@7@8@9@K+0@a@b@Z+c@H.d@e@+ + + + D f@g@h@i@j@k@l@m@n@+ + + + + + ",
"+ + + @ + + + + + o o@p@q@r@s@t@u@v@w@x@+ + + + y@z@A@B@C@D@E@F@G@H@I@J@K@L@+ + + + ",
"+ # + + + + + T++ + + + M@N@v@O@P@Q@R@+ + + + S@T@U@V@W@X@Y@Z@`@ #.#+#@###$#%#+ + + ",
"+ + + + + + + + + + @ + + + &#*#=#+ . + + + . -#;#>#,#'#)#!#~#{#]#^#/#(#U+_#:#+ + + ",
"+ + + + + + + + + + + + + + + + + + + + . + =+<#[#}#|#1#2#3#4#5#6#7#8#9#0#a#b#c#+ + ",
"+ + + + + + + + + + + + + + @ d#+ + + + + * e#f#g#3+h#L i#j#k#l#m#n#o#p#q#`.r#s#+ + ",
"+ + + + + + + + + + + + @ & + + t#+ + + + u#v#w#x#&+y#z#A#B#C#D#E#F#q#G#G#H#b#I#! + ",
"+ + + + . + + + + @ + + + + + + + + + + J#K#L#1#M#N#O#P#q#Q#r+R#S#T#z#U#U#V#W#X#& + ",
"+ + + + Y#@ + + + @ + + & + + + + . + + Z#`# $W@i#F#%+.$+$@$#$$$s+P#z#%$&$*$=$-$# + ",
"+ + + @ ;$! + + + + + @ ;$+ + + + ! + >$,$'$)$[+'#!$}.t+s ~$v@{$]$^$/$($_$(#:$-$D + ",
"+ + + & <$[$+ + + + + + ;$+ + + + + + }$|$1$2$3$4$5$6$7$7$^#8${$9$0$z#a$b$*$c$d$* + ",
"+ + + + + + + + + + + + + + + + + . + + e$1 f$g$h$`@i$j$k$j.l$m$n$/$o$n#p$q$r$s$+ + ",
"+ + + + + + + + + + + + + + + + + + + + t$u$v$+$w$x$y$z$A$B$C$D$E$F$G$H$I$J$e$K$# + ",
"+ + + + + + + + + + + + + + + + + + & + L$M$N$O$P$Q$R$S$T$m#U$k+V$W$X$Y$Z$`$ %o@+ + ",
"+ + + + + + + + + + + + + + + . + + + + + .%+%@%#%$%%%{+)+&%*%D.=%-%;%>%,%'%)%& + + ",
"+ + + + + + + + + + + + + + + !%& + + _ + . ~%{%]%^%/%(%P@D._%:%<%[%}%|%1%2%) + + + ",
"+ + + + + + + + + + + + + + + 3%+ + + + + + 4%5%6%D.7%G+8%H+9%0%a%b%V#c%d%e%+ + + + ",
"+ + + + + + + + + + + + + + + + + + + + + + * K#f%g%h%i%j%0@k%l%m%n%o%p%+ + + + + + ",
"+ + + + + + + + + + + + + + + + + . + + q%+ + + + r%3@s%t%u%v%w%x%+ + + + + y%+ + + ",
"+ + + + + + + + + + + + + + + & & + + + + + + + + @ + & z%* + + + + @ + + + + + + + ",
"+ + + + + + + + + + + + + + + + + + + + + + + + + + . + + + + + + + + + + + + + + + ",
"+ + + + + + + + + + + + + + + + + + + + + + + + + + + @ + # A%+ + + + + + + + + + + "};
