/* XPM */
static char * C:\Users\User\Documents\42W\so_long\102_xpm[] = {
"42 42 476 2",
"  	c #181328",
". 	c #19132E",
"+ 	c #181329",
"@ 	c #18132A",
"# 	c #1F1335",
"$ 	c #2C1D46",
"% 	c #2F204B",
"& 	c #291946",
"* 	c #271746",
"= 	c #2B1B48",
"- 	c #281944",
"; 	c #18132F",
"> 	c #1B1330",
", 	c #18132D",
"' 	c #24153C",
") 	c #2B1C45",
"! 	c #2C1C49",
"~ 	c #241939",
"{ 	c #443959",
"] 	c #191331",
"^ 	c #27183F",
"/ 	c #2E1F4A",
"( 	c #30214C",
"_ 	c #31224B",
": 	c #1B1333",
"< 	c #1C1331",
"[ 	c #201336",
"} 	c #2A1B44",
"| 	c #2D1E47",
"1 	c #2D1E45",
"2 	c #1B1331",
"3 	c #18132C",
"4 	c #1F1339",
"5 	c #1E1336",
"6 	c #18132E",
"7 	c #19132A",
"8 	c #1B132D",
"9 	c #181332",
"0 	c #1F183A",
"a 	c #262141",
"b 	c #1B1334",
"c 	c #261E43",
"d 	c #2C2449",
"e 	c #20183F",
"f 	c #241C43",
"g 	c #2D274B",
"h 	c #181330",
"i 	c #2C1D44",
"j 	c #2C2048",
"k 	c #2A1E46",
"l 	c #2B1E49",
"m 	c #291C47",
"n 	c #291E48",
"o 	c #1E133D",
"p 	c #18132B",
"q 	c #241937",
"r 	c #35234B",
"s 	c #2C1C43",
"t 	c #271642",
"u 	c #2D1E49",
"v 	c #281B47",
"w 	c #2B1E4A",
"x 	c #241840",
"y 	c #1A132F",
"z 	c #19132C",
"A 	c #2E1942",
"B 	c #2C1A42",
"C 	c #2F1C49",
"D 	c #2E1D4A",
"E 	c #281646",
"F 	c #2E1E4D",
"G 	c #322551",
"H 	c #261945",
"I 	c #2D2149",
"J 	c #574B73",
"K 	c #87789F",
"L 	c #4F4067",
"M 	c #1C132E",
"N 	c #29173F",
"O 	c #382552",
"P 	c #2D1C49",
"Q 	c #251343",
"R 	c #2C1E4F",
"S 	c #221445",
"T 	c #19133A",
"U 	c #332654",
"V 	c #4D406B",
"W 	c #5F527D",
"X 	c #756991",
"Y 	c #8A7EA6",
"Z 	c #8C7DA6",
"` 	c #7E6F96",
" .	c #3E3353",
"..	c #493E5C",
"+.	c #4D4260",
"@.	c #3C314F",
"#.	c #1E1331",
"$.	c #201537",
"%.	c #291A41",
"&.	c #3C2D58",
"*.	c #463762",
"=.	c #4D3D6A",
"-.	c #473764",
";.	c #32224F",
">.	c #554470",
",.	c #7A6995",
"'.	c #75648E",
").	c #8978A4",
"!.	c #8C7DA8",
"~.	c #8676A3",
"{.	c #81719E",
"].	c #9D8DBA",
"^.	c #74658E",
"/.	c #7A6B94",
"(.	c #75698D",
"_.	c #362B4D",
":.	c #1A1332",
"<.	c #43345F",
"[.	c #453661",
"}.	c #3A2A57",
"|.	c #443461",
"1.	c #5C4C79",
"2.	c #766591",
"3.	c #796894",
"4.	c #6B5A84",
"5.	c #6E5D89",
"6.	c #60517C",
"7.	c #60507D",
"8.	c #685885",
"9.	c #7A6B96",
"0.	c #8677A0",
"a.	c #81759B",
"b.	c #9286AA",
"c.	c #362B4B",
"d.	c #1F1837",
"e.	c #4B3C65",
"f.	c #5F507B",
"g.	c #554572",
"h.	c #4B3B68",
"i.	c #574774",
"j.	c #72628F",
"k.	c #6B5A86",
"l.	c #594874",
"m.	c #61507C",
"n.	c #665581",
"o.	c #70608D",
"p.	c #51416E",
"q.	c #4F3F6C",
"r.	c #51426D",
"s.	c #645580",
"t.	c #5A4E74",
"u.	c #8A7EA4",
"v.	c #766B8D",
"w.	c #1A1331",
"x.	c #1E1736",
"y.	c #271E3D",
"z.	c #463A62",
"A.	c #766790",
"B.	c #72638E",
"C.	c #6F5F8C",
"D.	c #746491",
"E.	c #604F7C",
"F.	c #5A4976",
"G.	c #72618D",
"H.	c #74638F",
"I.	c #493966",
"J.	c #372754",
"K.	c #40305D",
"L.	c #3F2F5C",
"M.	c #52426F",
"N.	c #61557D",
"O.	c #7A6E94",
"P.	c #9185A9",
"Q.	c #44395B",
"R.	c #3E3256",
"S.	c #675B83",
"T.	c #5D4D7A",
"U.	c #675786",
"V.	c #6D5D8C",
"W.	c #5E4E7D",
"X.	c #6D5C89",
"Y.	c #73628F",
"Z.	c #776692",
"`.	c #71608C",
" +	c #41325D",
".+	c #574873",
"++	c #6C5C89",
"@+	c #362653",
"#+	c #51446F",
"$+	c #60537E",
"%+	c #82769C",
"&+	c #7D7197",
"*+	c #5B5173",
"=+	c #35294D",
"-+	c #6C6086",
";+	c #756893",
">+	c #675883",
",+	c #5B4B7A",
"'+	c #554574",
")+	c #6E5D8A",
"!+	c #705F8C",
"~+	c #695885",
"{+	c #7B6A97",
"]+	c #594A75",
"^+	c #70618C",
"/+	c #6A5A87",
"(+	c #362655",
"_+	c #493C68",
":+	c #675A86",
"<+	c #796D95",
"[+	c #988CB2",
"}+	c #867C9F",
"|+	c #5B4F73",
"1+	c #776B91",
"2+	c #6D608B",
"3+	c #685984",
"4+	c #6B5B88",
"5+	c #6A5A89",
"6+	c #514170",
"7+	c #695988",
"8+	c #635181",
"9+	c #6B5989",
"0+	c #665582",
"a+	c #8A79A6",
"b+	c #6E5F8A",
"c+	c #665683",
"d+	c #4C3C6B",
"e+	c #564977",
"f+	c #6C5F8B",
"g+	c #736691",
"h+	c #8478A0",
"i+	c #857B9E",
"j+	c #281E41",
"k+	c #564A70",
"l+	c #4B3F65",
"m+	c #3D305B",
"n+	c #4A3B66",
"o+	c #4F3F6E",
"p+	c #3C2C5D",
"q+	c #625283",
"r+	c #5D4D7E",
"s+	c #554373",
"t+	c #6E5C8C",
"u+	c #71608D",
"v+	c #897AA5",
"w+	c #6C5D88",
"x+	c #8C7CA9",
"y+	c #6F5F8E",
"z+	c #5D4D7C",
"A+	c #5C4C7D",
"B+	c #665987",
"C+	c #645785",
"D+	c #625580",
"E+	c #645880",
"F+	c #80769B",
"G+	c #382E51",
"H+	c #2F2547",
"I+	c #6C5D84",
"J+	c #665780",
"K+	c #3F2E5B",
"L+	c #62537C",
"M+	c #776891",
"N+	c #6B5C85",
"O+	c #685982",
"P+	c #675784",
"Q+	c #655481",
"R+	c #695787",
"S+	c #5F4F7C",
"T+	c #6E5E8B",
"U+	c #7A6A97",
"V+	c #736390",
"W+	c #6A5986",
"X+	c #6B5A87",
"Y+	c #675683",
"Z+	c #52436A",
"`+	c #22183B",
" @	c #4F4567",
".@	c #84759C",
"+@	c #72618E",
"@@	c #4B3A67",
"#@	c #5E4F78",
"$@	c #73648D",
"%@	c #6A5B84",
"&@	c #6D5E89",
"*@	c #685784",
"=@	c #6C5A8A",
"-@	c #655582",
";@	c #62527F",
">@	c #61507D",
",@	c #645380",
"'@	c #695A83",
")@	c #57486F",
"!@	c #2D2346",
"~@	c #544A6C",
"{@	c #7F7097",
"]@	c #72638C",
"^@	c #7B6A96",
"/@	c #554471",
"(@	c #61527B",
"_@	c #70618A",
":@	c #64557E",
"<@	c #63547D",
"[@	c #6B5C87",
"}@	c #655383",
"|@	c #6D5D8A",
"1@	c #695986",
"2@	c #6C5B88",
"3@	c #6D5E87",
"4@	c #5D4E75",
"5@	c #342A4D",
"6@	c #52486A",
"7@	c #6F6087",
"8@	c #5B4A77",
"9@	c #695A85",
"0@	c #574575",
"a@	c #584875",
"b@	c #675881",
"c@	c #4B3C63",
"d@	c #21173A",
"e@	c #76678E",
"f@	c #73628E",
"g@	c #7C6B98",
"h@	c #7C6D96",
"i@	c #7E6F98",
"j@	c #71628B",
"k@	c #665782",
"l@	c #594976",
"m@	c #6F5E8B",
"n@	c #594A73",
"o@	c #36274E",
"p@	c #584E70",
"q@	c #6A5985",
"r@	c #746390",
"s@	c #83729F",
"t@	c #796A93",
"u@	c #83749D",
"v@	c #80719A",
"w@	c #75668F",
"x@	c #63547F",
"y@	c #645481",
"z@	c #665484",
"A@	c #483865",
"B@	c #433360",
"C@	c #52416E",
"D@	c #4E3D6A",
"E@	c #50416A",
"F@	c #3B2C53",
"G@	c #32284B",
"H@	c #2F2645",
"I@	c #3D3355",
"J@	c #72638A",
"K@	c #5C4B77",
"L@	c #6E5F88",
"M@	c #786992",
"N@	c #62537E",
"O@	c #81709D",
"P@	c #715F8F",
"Q@	c #42315E",
"R@	c #483764",
"S@	c #463562",
"T@	c #3C2B58",
"U@	c #4C3D66",
"V@	c #33244B",
"W@	c #2E2447",
"X@	c #352C4B",
"Y@	c #5F5077",
"Z@	c #6D5C88",
"`@	c #65567F",
" #	c #776794",
".#	c #8B7AA7",
"+#	c #635380",
"@#	c #4E3E6B",
"##	c #41305D",
"$#	c #3E2D5A",
"%#	c #473663",
"&#	c #4A3966",
"*#	c #43345D",
"=#	c #382D4F",
"-#	c #4D4169",
";#	c #60537F",
">#	c #6B5B8A",
",#	c #6A5B86",
"'#	c #705E8E",
")#	c #7C6A9A",
"!#	c #8876A6",
"~#	c #887BA7",
"{#	c #7B6E99",
"]#	c #524571",
"^#	c #392C58",
"/#	c #443763",
"(#	c #483B67",
"_#	c #423561",
":#	c #4A3D69",
"<#	c #3E315C",
"[#	c #2D2147",
"}#	c #261B3D",
"|#	c #443860",
"1#	c #5F4D7D",
"2#	c #584676",
"3#	c #4B396B",
"4#	c #3E2C5E",
"5#	c #433662",
"6#	c #413460",
"7#	c #473A66",
"8#	c #3F325E",
"9#	c #564A72",
"0#	c #493D65",
"a#	c #211539",
"b#	c #3A2E56",
"c#	c #4A3A69",
"d#	c #5C4C7B",
"e#	c #524271",
"f#	c #443463",
"g#	c #443262",
"h#	c #4A3868",
"i#	c #433163",
"j#	c #342254",
"k#	c #403361",
"l#	c #453866",
"m#	c #463965",
"n#	c #493C67",
"o#	c #483B66",
"p#	c #43375D",
"q#	c #271B41",
"r#	c #191333",
"s#	c #3F325D",
"t#	c #52436E",
"u#	c #3D2D5A",
"v#	c #4E3E6D",
"w#	c #4A3A6B",
"x#	c #403061",
"y#	c #402E60",
"z#	c #493769",
"A#	c #503E70",
"B#	c #514472",
"C#	c #463967",
"D#	c #40335F",
"E#	c #40335E",
"F#	c #453863",
"G#	c #41355B",
"H#	c #32264C",
"I#	c #42335A",
"J#	c #42325F",
"K#	c #473768",
"L#	c #483869",
"M#	c #473567",
"N#	c #453365",
"O#	c #463466",
"P#	c #4A386A",
"Q#	c #3B2E5A",
"R#	c #423560",
"S#	c #50446C",
"T#	c #483C64",
"U#	c #2E2246",
"V#	c #403158",
"W#	c #4E3F68",
"X#	c #463665",
"Y#	c #4C3A6C",
"Z#	c #4E416C",
"`#	c #51456D",
" $	c #52466C",
".$	c #4E4268",
"+$	c #44385C",
"@$	c #33274B",
"#$	c #1E142F",
"$$	c #4E3F6A",
"%$	c #4D3D6C",
"&$	c #4D3B6B",
"*$	c #4C3A6A",
"=$	c #4A3965",
"-$	c #382C50",
";$	c #22163A",
">$	c #21133D",
",$	c #3B2C57",
"'$	c #44335F",
")$	c #41305A",
"  . +                                                       @ # $ % & * = - ;       ",
"@       >                                                     , ' ) = = ! $ ;       ",
"      ~ {                                                       ] ^ / ( / _ :       ",
"        <                                                       @ [ } | $ 1 2       ",
"  3                                                               3 : 4 4 5 +       ",
"                                                                        3 @     +   ",
"                                                                                    ",
"                +     6       7         8                                           ",
"              9 0   ; a                                                             ",
"        +   b c d e f g h         +                                                 ",
"            i j k l m n o 9 3 p         q                                           ",
"          3 r s t u & v w x       y 3               +                               ",
"          z A B C D E F F G H I J K K L 3                                           ",
"            M N O P Q R S T U V W X Y Z `  ...+.@.#.                                ",
"                  $.9 %.&.*.=.-.;.>.,.'.).!.~.{.].^./.(._.            :.            ",
"              p       %.<.[.}.|.1.2.3.4.5.6.7.8.{.9.0.a.b.c.          , @   ] d.p   ",
"                    3 e.f.g.h.i.j.k.l.m.n.o.i.p.q.r.s.t.u.v.w.    2   p     x.y.3   ",
"                  ; z.A.B.C.D.C.C.E.F.G.H.I.J.K.L.}.M.N.O.P.Q.3   6 @ @     + p     ",
"            >   @ R.S.B.T.U.V.W.W.X.Y.Z.`. +.+8.++p.@+#+$+%+&+*+        3           ",
"                =+-+;+>+1.,+'+'+,+)+!+~+{+]+^+/+j.V.(+_+:+<+[+}+]   +           +   ",
"                |+1+2+3+4+5+6+7+U.8+9+0+a+9.b+c+7.5+d+e+f+g+h+i+j+  3 3         +   ",
"              + k+l+m+n+o+5+p+q+r+s+t+E.u+v+w+x+y+z+A+B+C+D+E+F+G+    3             ",
"              H+I+J+n.X.K+L+M+N+O+^+P+Q+R+S+T+U+V+W+X+X.Y+0+W+O+Z+`+                ",
"          @    @.@M+2.+@@@#@$@%@O+&@c+*@=@-@8.8.;@>@0+*@,@W+W+'@)@!@                ",
"              ~@{@]@^@!+/@(@_@:@<@[@8.W+}@T+|@/+1@2@2@~+Y+*@~+3@4@5@3               ",
"              6@7@(@G.0+8@_@$@<@(@9@/+*@0@a@1.;@/+u+2@0+*@)+W+b@c@d@    p           ",
"              *+e@<@f@Y.g@h@i@j@%@k@P+W+0@p.p.q.l@2@!+X.u+m@,@n@o@;                 ",
"              p@` O+q@r@s@t@u@v@w@x@y@r@z@++7.A@B@F.0+Q+~+C@D@E@F@G@H@              ",
"          p   I@J@O+K@,@,@L@M+M@]@N@++O@P@o.4+q.}.Q@R@S@@@T@Q@U@V@W@X@+             ",
"          @   , Y@$@Z@r@,@`@J+:@J+s. #.#P@+#D.8.@#S@##$#R@%#&#*#                    ",
"              + =#-#;#o.>#c+P+,#&@)+'#)#!#~#{#]#^#/#(#_#:#<#V [#                    ",
"                }#|#:#M.7+D.j.+++#1#2#3#4#^#/#5#6#:#7#8#_#9#0#a#  + +               ",
"                , b#:#-.c#d#d#e#f#g#h#i#j#k#l#7#m#m#_+n#o#p#q#                      ",
"                  r#s#t#u#c#v#w#x#y#z#A#A#B#C#D#D#E#F#G#H#;                         ",
"              ,     h I#r.J#f#K#L#M#N#O#P#Q#^#R#V S#T#U#        p                   ",
"            @         @ V#W#A@X#w#Y#M#g#S@Z#`# $.$+$@$y                             ",
"                  #$    3 c@$$q.%$&$*$@@=$T#l+-$;$,                                 ",
"          +                 >$,$L.K+Q@'$)$  6           +         @                 ",
"                                                                                    ",
"                                                                                    ",
"                                                                                    ",
"                                                                                    "};
