/* XPM */
static char * C:\Users\User\Documents\42W\so_long\103_xpm[] = {
"42 42 590 2",
"  	c None",
". 	c #181328",
"+ 	c #181329",
"@ 	c #18132D",
"# 	c #18132B",
"$ 	c #1A132F",
"% 	c #18132A",
"& 	c #1E1333",
"* 	c #271C3C",
"= 	c #2C2141",
"- 	c #231838",
"; 	c #1C1331",
"> 	c #261A42",
", 	c #312450",
"' 	c #2B1E4C",
") 	c #281849",
"! 	c #311F4F",
"~ 	c #281543",
"{ 	c #18132C",
"] 	c #251843",
"^ 	c #281B49",
"/ 	c #211344",
"( 	c #231344",
"_ 	c #2B1B4A",
": 	c #301F4C",
"< 	c #191330",
"[ 	c #25193F",
"} 	c #2F224E",
"| 	c #2B1D4E",
"1 	c #25174A",
"2 	c #2B1A4E",
"3 	c #251544",
"4 	c #32214E",
"5 	c #22163E",
"6 	c #2C1F4B",
"7 	c #281A4B",
"8 	c #291B4E",
"9 	c #271744",
"0 	c #2F204B",
"a 	c #1D1339",
"b 	c #291C47",
"c 	c #2A1D4B",
"d 	c #2A1C4D",
"e 	c #2C1D48",
"f 	c #2F2049",
"g 	c #19132F",
"h 	c #1C1332",
"i 	c #1A1332",
"j 	c #24183E",
"k 	c #2C1F4A",
"l 	c #20143C",
"m 	c #26183C",
"n 	c #281A3E",
"o 	c #1B1331",
"p 	c #1A132C",
"q 	c #191331",
"r 	c #18132E",
"s 	c #22133B",
"t 	c #312148",
"u 	c #322249",
"v 	c #19152E",
"w 	c #2B1A44",
"x 	c #301F49",
"y 	c #2F1E48",
"z 	c #32234A",
"A 	c #201338",
"B 	c #2F304F",
"C 	c #3B3E5F",
"D 	c #505072",
"E 	c #48486A",
"F 	c #2A2949",
"G 	c #1A1837",
"H 	c #1C1534",
"I 	c #18132F",
"J 	c #2F1E4A",
"K 	c #2A1943",
"L 	c #271640",
"M 	c #35264D",
"N 	c #23143B",
"O 	c #241E38",
"P 	c #554F69",
"Q 	c #6A6786",
"R 	c #7A7CA3",
"S 	c #6B6F9C",
"T 	c #656893",
"U 	c #60638E",
"V 	c #676990",
"W 	c #727199",
"X 	c #4A496D",
"Y 	c #211B36",
"Z 	c #1B132E",
"` 	c #2D1F42",
" .	c #2F2144",
"..	c #1C1330",
"+.	c #5F5B7E",
"@.	c #8A85AD",
"#.	c #7D7AA7",
"$.	c #7776A2",
"%.	c #686A93",
"&.	c #73769F",
"*.	c #636691",
"=.	c #515383",
"-.	c #585A8A",
";.	c #5D5F90",
">.	c #606390",
",.	c #696A94",
"'.	c #45435F",
").	c #1C1333",
"!.	c #3A3756",
"~.	c #646083",
"{.	c #76769C",
"].	c #73729C",
"^.	c #6D6E9C",
"/.	c #7374A2",
"(.	c #797BA4",
"_.	c #6E7099",
":.	c #5C5F8A",
"<.	c #5E6090",
"[.	c #7173A3",
"}.	c #7375A6",
"|.	c #6D709D",
"1.	c #7374A0",
"2.	c #8486AC",
"3.	c #413F60",
"4.	c #181332",
"5.	c #545375",
"6.	c #504E75",
"7.	c #6A6991",
"8.	c #7E7DA9",
"9.	c #696C97",
"0.	c #636693",
"a.	c #6D71A0",
"b.	c #6A6D9A",
"c.	c #666994",
"d.	c #595A86",
"e.	c #565984",
"f.	c #646794",
"g.	c #6B6D9D",
"h.	c #636595",
"i.	c #626592",
"j.	c #6A6D98",
"k.	c #7B7DA4",
"l.	c #67678B",
"m.	c #212042",
"n.	c #26223D",
"o.	c #1D1B33",
"p.	c #222141",
"q.	c #8484AA",
"r.	c #76759F",
"s.	c #7879A7",
"t.	c #7778A8",
"u.	c #696B9B",
"v.	c #6C719B",
"w.	c #4A4D78",
"x.	c #555881",
"y.	c #4E5079",
"z.	c #61648F",
"A.	c #5A5E8B",
"B.	c #525683",
"C.	c #555883",
"D.	c #595C87",
"E.	c #5F6188",
"F.	c #77779D",
"G.	c #5B5B7F",
"H.	c #191538",
"I.	c #181330",
"J.	c #332F48",
"K.	c #18142C",
"L.	c #292847",
"M.	c #636284",
"N.	c #5B5A82",
"O.	c #656490",
"P.	c #6A6B99",
"Q.	c #686999",
"R.	c #686B98",
"S.	c #7073A0",
"T.	c #6C6F98",
"U.	c #5C5F88",
"V.	c #696A96",
"W.	c #60618D",
"X.	c #5D608B",
"Y.	c #5E638D",
"Z.	c #626791",
"`.	c #5D628C",
" +	c #4C517B",
".+	c #484B74",
"++	c #676992",
"@+	c #8787AD",
"#+	c #4A466B",
"$+	c #3C3859",
"%+	c #717092",
"&+	c #6C6A91",
"*+	c #4D4F76",
"=+	c #5B5C88",
"-+	c #5D5E8C",
";+	c #676894",
">+	c #6B6D94",
",+	c #7C7EA7",
"'+	c #6D6E9A",
")+	c #6F709E",
"!+	c #626590",
"~+	c #525580",
"{+	c #535880",
"]+	c #60658D",
"^+	c #50557F",
"/+	c #4B4C78",
"(+	c #76789F",
"_+	c #59577E",
":+	c #181335",
"<+	c #2E2951",
"[+	c #756F9B",
"}+	c #8887B1",
"|+	c #5F5E8A",
"1+	c #676A95",
"2+	c #6C6F9A",
"3+	c #7477A0",
"4+	c #6E719A",
"5+	c #666891",
"6+	c #636490",
"7+	c #535681",
"8+	c #393C67",
"9+	c #41466E",
"0+	c #52577F",
"a+	c #555A84",
"b+	c #535882",
"c+	c #5F628F",
"d+	c #454875",
"e+	c #5E5F8B",
"f+	c #4D4C76",
"g+	c #343257",
"h+	c #2E2A4B",
"i+	c #282246",
"j+	c #716A93",
"k+	c #8A87B4",
"l+	c #706C9E",
"m+	c #636494",
"n+	c #7777A9",
"o+	c #646895",
"p+	c #7276A3",
"q+	c #7378A0",
"r+	c #656A92",
"s+	c #62658E",
"t+	c #6D7099",
"u+	c #6F729D",
"v+	c #626391",
"w+	c #373A65",
"x+	c #232651",
"y+	c #434870",
"z+	c #5C6189",
"A+	c #4F547E",
"B+	c #4B4F7C",
"C+	c #555885",
"D+	c #46456F",
"E+	c #424268",
"F+	c #3E3A5D",
"G+	c #181331",
"H+	c #504D78",
"I+	c #5B5988",
"J+	c #6E6F9F",
"K+	c #6E729F",
"L+	c #636890",
"M+	c #6D729A",
"N+	c #71749F",
"O+	c #6E719C",
"P+	c #6E6F9D",
"Q+	c #6B6C9A",
"R+	c #7B7EA9",
"S+	c #3F426D",
"T+	c #2E315C",
"U+	c #3A3C65",
"V+	c #31335C",
"W+	c #3B3A64",
"X+	c #52517B",
"Y+	c #50517D",
"Z+	c #666795",
"`+	c #7678A8",
" @	c #8083B0",
".@	c #3E4067",
"+@	c #333357",
"@@	c #1F1B40",
"#@	c #5D5A85",
"$@	c #5E5C8B",
"%@	c #5F6390",
"&@	c #626693",
"*@	c #51567E",
"=@	c #5A5F87",
"-@	c #5A5D88",
";@	c #7273A1",
">@	c #484B76",
",@	c #313461",
"'@	c #2B2E5B",
")@	c #3B3D66",
"!@	c #353760",
"~@	c #4C4B75",
"{@	c #72719B",
"]@	c #6F709C",
"^@	c #7677A5",
"/@	c #7275A2",
"(@	c #6A6C9C",
"_@	c #5E618E",
":@	c #32335F",
"<@	c #35375E",
"[@	c #363459",
"}@	c #231F44",
"|@	c #4D4B7A",
"1@	c #525383",
"2@	c #505481",
"3@	c #545885",
"4@	c #5B6088",
"5@	c #3D426A",
"6@	c #383B66",
"7@	c #343563",
"8@	c #424371",
"9@	c #4C4F7A",
"0@	c #3A3D68",
"a@	c #323562",
"b@	c #353865",
"c@	c #444571",
"d@	c #3D3E6A",
"e@	c #575982",
"f@	c #8284AD",
"g@	c #7D7EAA",
"h@	c #777AA7",
"i@	c #5C5E8E",
"j@	c #494C79",
"k@	c #333460",
"l@	c #424169",
"m@	c #39375C",
"n@	c #1C183D",
"o@	c #383560",
"p@	c #413F6E",
"q@	c #555686",
"r@	c #585C89",
"s@	c #535784",
"t@	c #585D85",
"u@	c #3E436B",
"v@	c #41446F",
"w@	c #50537E",
"x@	c #454674",
"y@	c #313260",
"z@	c #31345F",
"A@	c #393C69",
"B@	c #333663",
"C@	c #353767",
"D@	c #3B3C68",
"E@	c #30315D",
"F@	c #3F416A",
"G@	c #5C5E87",
"H@	c #51547F",
"I@	c #434673",
"J@	c #4F5380",
"K@	c #3A3C6C",
"L@	c #3D3C66",
"M@	c #47476D",
"N@	c #363255",
"O@	c #302C51",
"P@	c #393661",
"Q@	c #403E6D",
"R@	c #595A8A",
"S@	c #5C608D",
"T@	c #4D517E",
"U@	c #555A82",
"V@	c #5B5E89",
"W@	c #5E5F8D",
"X@	c #484977",
"Y@	c #323560",
"Z@	c #343764",
"`@	c #363868",
" #	c #363966",
".#	c #2D305D",
"+#	c #2F325D",
"@#	c #30355F",
"##	c #2C315B",
"$#	c #363A67",
"%#	c #3A3963",
"&#	c #2F2D54",
"*#	c #181336",
"=#	c #191334",
"-#	c #3D3A65",
";#	c #393766",
">#	c #4F5080",
",#	c #5E628F",
"'#	c #5E638B",
")#	c #595E86",
"!#	c #4E517C",
"~#	c #7172A0",
"{#	c #555684",
"]#	c #333661",
"^#	c #383B68",
"/#	c #3D3F6F",
"(#	c #393B6C",
"_#	c #363B65",
":#	c #353A64",
"<#	c #333A66",
"[#	c #39406C",
"}#	c #343B67",
"|#	c #383C69",
"1#	c #41406A",
"2#	c #201C41",
"3#	c #49456A",
"4#	c #343261",
"5#	c #444575",
"6#	c #5B5F8C",
"7#	c #656996",
"8#	c #777AA5",
"9#	c #7778A6",
"0#	c #50517F",
"a#	c #333565",
"b#	c #323465",
"c#	c #333862",
"d#	c #363D69",
"e#	c #2E3561",
"f#	c #40436C",
"g#	c #403F67",
"h#	c #1B173C",
"i#	c #19132E",
"j#	c #4B476C",
"k#	c #413E69",
"l#	c #333464",
"m#	c #393D6A",
"n#	c #3E426F",
"o#	c #4D527A",
"p#	c #30315F",
"q#	c #373A67",
"r#	c #383A6B",
"s#	c #373969",
"t#	c #373C66",
"u#	c #323965",
"v#	c #2D3460",
"w#	c #3A416D",
"x#	c #3C406D",
"y#	c #353861",
"z#	c #2D2C54",
"A#	c #29244C",
"B#	c #434169",
"C#	c #3F3C67",
"D#	c #3A3B67",
"E#	c #272E5A",
"F#	c #282F5B",
"G#	c #2D3563",
"H#	c #323A68",
"I#	c #313C6A",
"J#	c #303B69",
"K#	c #364071",
"L#	c #2D3768",
"M#	c #303867",
"N#	c #313866",
"O#	c #373E6A",
"P#	c #3D4069",
"Q#	c #393D63",
"R#	c #4D4D73",
"S#	c #363557",
"T#	c #272145",
"U#	c #221B44",
"V#	c #312C55",
"W#	c #2F2955",
"X#	c #2C2956",
"Y#	c #383562",
"Z#	c #3A3E6B",
"`#	c #3B3F6C",
" $	c #373B6A",
".$	c #333766",
"+$	c #383F6B",
"@$	c #444973",
"#$	c #3E416C",
"$$	c #3B3F65",
"%$	c #35355B",
"&$	c #212145",
"*$	c #262245",
"=$	c #1A1334",
"-$	c #20163B",
";$	c #251A44",
">$	c #241B46",
",$	c #1F1643",
"'$	c #211847",
")$	c #2D2453",
"!$	c #3A3462",
"~$	c #3B3865",
"{$	c #3F3C69",
"]$	c #43406F",
"^$	c #423F6E",
"/$	c #3C3A6B",
"($	c #383665",
"_$	c #3C3B63",
":$	c #3F3F65",
"<$	c #3E3E62",
"[$	c #28284C",
"}$	c #1C1B3B",
"|$	c #181333",
"1$	c #24153C",
"2$	c #312249",
"3$	c #2A1A47",
"4$	c #221445",
"5$	c #231745",
"6$	c #241846",
"7$	c #281C4A",
"8$	c #2D214F",
"9$	c #2E2554",
"0$	c #2A2052",
"a$	c #271E4B",
"b$	c #2B254B",
"c$	c #211B3D",
"d$	c #19132D",
"e$	c #26163D",
"f$	c #2F1E4B",
"g$	c #2D1D4C",
"h$	c #2E1E4D",
"i$	c #271746",
"j$	c #281845",
"k$	c #281847",
"l$	c #261645",
"m$	c #241445",
"n$	c #22133F",
"o$	c #261C41",
"p$	c #211835",
"q$	c #251C39",
"r$	c #2B1C43",
"s$	c #30214A",
"t$	c #291A45",
"u$	c #2B1B48",
"v$	c #2B1949",
"w$	c #2E1D4A",
"x$	c #2F1D4D",
"y$	c #33274B",
"z$	c #1E1532",
"A$	c #302746",
"B$	c #1B1333",
"C$	c #2A1E44",
"D$	c #2E224A",
"E$	c #271A45",
"F$	c #261944",
"G$	c #251844",
"H$	c #231340",
"I$	c #251542",
"J$	c #271642",
"K$	c #281743",
"L$	c #291844",
"M$	c #2C1947",
"N$	c #2C1B47",
"O$	c #201438",
"P$	c #261D3A",
"Q$	c #382F4C",
"R$	c #1F153A",
"S$	c #2B2048",
"T$	c #2B204A",
"U$	c #2D204B",
"V$	c #2A1D49",
"W$	c #271A48",
"X$	c #2C1C49",
"Y$	c #2E1D49",
"Z$	c #2B1A46",
"`$	c #2A1745",
" %	c #1D142F",
".%	c #352C47",
"+%	c #1F133B",
"@%	c #2C2048",
"#%	c #281C44",
"$%	c #2B1F45",
"%%	c #271B41",
"&%	c #291D43",
"*%	c #2F234B",
"=%	c #31254D",
"-%	c #1D133B",
";%	c #2C1D44",
">%	c #2F1F4C",
",%	c #29194A",
"'%	c #29184C",
")%	c #2C1B51",
"!%	c #29184E",
"~%	c #2A194D",
"{%	c #312152",
"]%	c #31214E",
"^%	c #25163D",
"/%	c #2B1C47",
"(%	c #312150",
"_%	c #2C1C4D",
":%	c #301F53",
"<%	c #2E1E4F",
"[%	c #281944",
"}%	c #211636",
"|%	c #231836",
"1%	c #241937",
"2%	c #251A38",
"3%	c #211634",
"4%	c #221737",
"5%	c #1B1330",
"6%	c #19132C",
"7%	c #1C132D",
"8%	c #19132A",
"9%	c #1A132B",
". . . . . . . . . . . . . . . . . . . . . + . . . . . . . . @ . . . . . . . . . . . ",
". . . . . . . . . . . . . . . . . . . . . . . . . . . . . . . . . . . . . . + # $ # ",
". . . . . . . . . . . . . . . . . . . . . . . . . . . . . . . . + . . . % & * = - ; ",
". . . . . . . . . . . . . . . . . . . . . . . . . . . . . . . . . . . . > , ' ) ! ~ ",
". . . . . . . . . . . . . . . . . . . . . + . . . . . . . . . . . . . { ] ^ / ( _ : ",
". . . . . . + . . + . . . . . . . . . . . . . . . . . . . . . . . + < [ } | 1 2 3 4 ",
". . . . . . . . . . . . . . . . . . . . . # + . . . . . . . . . . . % 5 6 7 1 8 9 0 ",
". . . . . . . . + . . . . . . . + . . . . . . # . . . . . . . . . . . a b c d | e f ",
". . . . . . . g h . . . . . . . . . . . . . . . + . . . . . . . @ . . i j b k b l j ",
". . . . . . @ m n o . . . { . . . . . p % . . . . . . . . . . . . . . . . @ q # + r ",
". . . . . . s t u n g . % . . . % . . . . . . { v . . . . . . . . . . . . . . . . . ",
". . . . . # w x y z A . % . . . . . . . . B C D E F G % H . . . . . . . . . . . . . ",
". . . . . I J K L M N . . I . . . . O P Q R S T U V W X Y . . . . . . . . . . . . . ",
". . . . . . Z `  .... . . . . . . +.@.#.$.%.&.*.=.-.;.>.,.'.. . . . . . . . . . . + ",
". . . . . . i ).. . . . . . I !.~.{.].^./.(._.:.<.[.}.|.1.2.3.. . . . . . . . . . . ",
". . . . . . 4.. . . % . . 5.6.7.8.9.0.a.b.c.d.e.f.g.h.i.j.k.l.m.. . + . . . . . . . ",
". . . . . . . { n.o.. . p.q.r.s.t.u.[.v.w.x.y.e.z.A.B.C.D.E.F.G.H.. I.. . . . . . . ",
". . . . . I.. # J.K.. L.M.N.O.P.Q.R.S.T.U.V.W.:.X.Y.Z.`. +.+++@+#+. . # . . . . . . ",
". . . . . . . . . . $+%+&+*+d.=+-+;+;+>+,+'+)+!+~+{+]+Y.^+e./+(+_+:+# + . . . . . . ",
". . . . . . . . % <+[+}+|+D.*.1+2+3+4+5+;+6+P.7+8+9+0+a+b+c+d+e+f+g+h+. . . . . . . ",
". . . . . . . i+j+k+l+m+n+o+p+q+r+s+t+u+*.^.v+w+x+y+z+a+A+B+C+c.D+E+F+. + % . . . . ",
". . . . . . . G+H+I+J+K+K+L+M+N+O+P+Q+u+R+S+T+U+V+W+X+Y+Z+>.`+ @/+.@+@. . . . . . . ",
". . . . . . . @@#@$@m+%@&@*@=@!+-@-+;@2+>@,@'@)@!@~@{@]@^@/@(@_@:@<@[@. r . . . . . ",
". . . . . @ . }@H+|@1@2@3@4@5@w+6@7@8@9@0@a@b@c@d@e@f@g@/.h@i@j@k@l@m@. . . . . . . ",
". . . . . . . n@o@p@q@r@s@t@u@v@w@x@y@z@A@B@C@D@E@F@G@H@I@J@K@w+L@M@N@. . . . . . . ",
". . . . . . . O@P@Q@R@S@T@0+U@C.V@W@X@Y@Z@A@`@ #.#+#6@@###$#.#Y@%#&#*#. + . . . . + ",
". . . . . . =##+-#;#>#,#A.'#)#!#:.~#{#]#^#/#(#A@^#_#:#<#[#}#|#v@1#2#. . . . . . % . ",
". . . . . . # 3#P@4#5#6#7#)#4@T 8#9#0#z@b@a#b#a@b@:#c#<#d#e#|#f#g#h#. i#+ . + . . . ",
". . . . . . % j#k#;#l#m#n#o#M+R+V@7@p#8+q#`@r#`@s#t#:#u#v#w#x#y#z#% . $ . . + . . . ",
". . . . . % . . A#B#C#k@D#]#T+E#F#G#H#I#J#K#L#M#N#O#P#Q#R#S#T#. . . . . . . . . . . ",
". . . . . . . { U#V#W#X#Y#d@D#w+6@Z#`# $.$<#+$@$#$$$%$&$*$# . . . . . . . . . . . . ",
". . . . . . =$-$;$>$,$'$)$!$!$~${$]$^$/$($_$:$<$[$}$|$. . . . . . + . . . . . . . . ",
". . . . . . 1$2$0 3$3 4$7 5$6$7$8$9$9$0$a$b$c$|$. . . . . d$. . + . . . . . . . . . ",
". . . . . . e$u J J f$g$h$i$i$j$j$k$l$m$n$o$% . . . + . p$q$. . . . + . { . . . . . ",
". . . . . I.r$s$t$t$u$v$v$: f$f$w$w$w$x$f$y$< . . # . . z$A$. . . . @ . + . . . . . ",
". . . . . B$C$D$E$F$G$3 l$H$I$J$K$K$L$M$N$O$. . . . . . P$Q$. . . . { . . . . . . . ",
". . . . . . R$S$T$U$V$W$c 3$X$J Y$Z$L$`$L$. . % . . . .  %.%. . . . . . . . . . . . ",
". . . . . . # +%@%#%#%$%%%&%[ > *%=%#%-%=$. . . . . . i#. . # . . . . . . . . . . . ",
". . . . . . . $ ;%>%,%'%)%!%~%{%]%^%$ # . . . . . . . ; . . . . + . . . . . . . . . ",
"% % % + % . . . g /%(%_%2 :%<%(%[%+ . . . . . . . . . . . . . . . . . . . . . . . . ",
". . . . . . < . . . }%|%1%2%3%4%5%. % { . . . 6%. 7%. 8%9%. . . . . . % . . . . . . ",
". . . . . . @ . . . . . . . . . . . . % . . . . . . . . . . . 8%+ . . . # . . . . . "};
