/* XPM */
static char * C00_xpm[] = {
"42 42 49 1",
" 	c None",
".	c #181328",
"+	c #1D1428",
"@	c #000000",
"#	c #8B9BB4",
"$	c #3A4466",
"%	c #5A6988",
"&	c #FCFCFC",
"*	c #37415A",
"=	c #37415B",
"-	c #7992A6",
";	c #7891A5",
">	c #E76E46",
",	c #373F5A",
"'	c #0EA669",
")	c #E66E46",
"!	c #F5A56E",
"~	c #F6A66E",
"{	c #460035",
"]	c #37405A",
"^	c #0F7373",
"/	c #0E7373",
"(	c #0EA569",
"_	c #1E1A2C",
":	c #F6A66F",
"<	c #363F59",
"[	c #7892A6",
"}	c #4B143C",
"|	c #F5A46B",
"1	c #FDFDFD",
"2	c #A6BFCE",
"3	c #54637C",
"4	c #E66D44",
"5	c #E76F46",
"6	c #F5A56D",
"7	c #7790A4",
"8	c #A5BECD",
"9	c #010102",
"0	c #54647D",
"a	c #8C2323",
"b	c #8D2323",
"c	c #7790A5",
"d	c #A6BFCD",
"e	c #7892A5",
"f	c #55647D",
"g	c #53627B",
"h	c #7791A5",
"i	c #56657E",
"j	c #55647E",
"........................+......@@.........",
".......................+...#...@@.........",
"................................@@........",
".........................$.......@......%.",
".................................@........",
"..................................@.......",
"..................................@.......",
"...................................@@@....",
"...........&&&&..................@@**@....",
".........&&....&&...............@=@***@...",
".......&&........&&.............@-@*@*@...",
"......&...%.@@.....&...........@;-@@@**@..",
"......&.....@>@.&&.&...........@-@-@,'*@..",
".....&@..@@@)!~@{&..&..........@@;-@]^/*@.",
".....&!@@))!!!!>@...&...........@-@@@,(*@.",
"_...&@!!!!!!!!!!~@...&..........@@@-@***@@",
"....&@!!!!!!!!!!!:@..&..........@<;[*@*@@@",
"....&@)!!!!!!!~@@:@!.&..@@.......@;;-@@**@",
"....&}@!!!@@!!!!!|1@.&.@;-@......@<;-@***@",
".....&@!!!!!!~@!!!:@2}@3;;-@......@;-@**@.",
".....&@4&!!>@@~@@)5@2@3;;;-@......@*@**@..",
"......&6&!!!!!!!!:@78;;;;-@.@@@....9999...",
"......&!))!!!!!!!5@@@@3-@@.@72-@..........",
"......@@0))aaaaab@7882@@@.@7882-@.........",
"....@@;8@@@)))>@@c8888d-@@efg882@.........",
"...@;88888;@@@@h8888888d-@827882@.........",
"..@f888;;;888888888878888888882-@.........",
".@;8888f@@8888888888;78888882-@@..........",
"@;88;f@@.@;8888888888888882-@@............",
"@888;@...@388888888888882-@@..............",
"@8;;@.....@;8888888888dei@................",
".@@@......@388888888882@fi@@..............",
"...........@f;8888888;3;;;ei@.............",
"........%...@@;88888-@@3;;;[i@............",
"..............@88882@..@3;;;-@............",
".............@88882@.....@3;-@............",
"...........@@;;h8-@.....@;;[i@............",
"........$.@888888-@....@;;;-@.............",
"..........@;;8882j@....@;;-@........$.....",
"..........@f;;;h2@.....@@@@...............",
"...........@@@fh2@........................",
"..............@@@........................."};
