/* XPM */
static char * C01_xpm[] = {
"42 42 73 1",
" 	c None",
".	c #181328",
"+	c #1D1428",
"@	c #000000",
"#	c #8B9BB4",
"$	c #3A4466",
"%	c #5A6988",
"&	c #FCFCFC",
"*	c #37415A",
"=	c #37415B",
"-	c #7992A6",
";	c #7891A5",
">	c #E76E46",
",	c #373F5A",
"'	c #B40000",
")	c #E66E46",
"!	c #F5A56E",
"~	c #F6A66E",
"{	c #460035",
"]	c #37405A",
"^	c #820000",
"/	c #810000",
"(	c #3B3C56",
"_	c #B30000",
":	c #1E1A2C",
"<	c #110D1E",
"[	c #F6A66F",
"}	c #687E90",
"|	c #363F59",
"1	c #7892A6",
"2	c #232538",
"3	c #7790A4",
"4	c #4B143C",
"5	c #F5A46B",
"6	c #FDFDFD",
"7	c #546475",
"8	c #A6BFCE",
"9	c #6C8395",
"0	c #151124",
"a	c #E66D44",
"b	c #E76F46",
"c	c #030508",
"d	c #71889D",
"e	c #181327",
"f	c #F5A56D",
"g	c #A5BECD",
"h	c #010103",
"i	c #0A0715",
"j	c #010102",
"k	c #171226",
"l	c #54647D",
"m	c #8C2323",
"n	c #8D2323",
"o	c #06040D",
"p	c #06040E",
"q	c #0F0B1C",
"r	c #7790A5",
"s	c #A6BFCD",
"t	c #7791A5",
"u	c #0C0816",
"v	c #55647D",
"w	c #7A90A0",
"x	c #91A7B5",
"y	c #54637C",
"z	c #859BAA",
"A	c #7892A5",
"B	c #56657E",
"C	c #030207",
"D	c #3F4A5D",
"E	c #53627B",
"F	c #0E1418",
"G	c #303C45",
"H	c #55647E",
"........................+......@@.........",
".......................+...#...@@.........",
"................................@@........",
".........................$.......@......%.",
".................................@........",
"..................................@.......",
"..................................@.......",
"...................................@@@....",
"...........&&&&..................@@**@....",
".........&&....&&...............@=@***@...",
".......&&........&&.............@-@*@*@...",
"......&...%.@@.....&...........@;-@@@**@..",
"......&.....@>@.&&.&...........@-@-@,'*@..",
".....&@..@@@)!~@{&..&..........@@;-@]^/*@.",
".....&!@@))!!!!>@...&...........@-@@@(_*@.",
":...&@!!!!!!!!!!~@...&.<@.......@@@-@***@@",
"....&@!!!!!!!!!!![@..&.}-@......@|;1*@*@@@",
"....&@)!!!!!!!~@@[@!.&23;-@......@;;-@@**@",
"....&4@!!!@@!!!!!56@.&7;;-@......@|;-@***@",
".....&@!!!!!!~@!!![@849;-@.0......@;-@**@.",
".....&@a&!!>@@~@@)b@8cd@@.e.......@*@**@..",
"......&f&!!!!!!!![@3g;hi.e.........jjjj...",
"......&!))!!!!!!!b@@@@..k.................",
"......@@l))mmmmmn@3gg8opq.................",
"....@@;g@@@)))>@@rggggs-@q..#.............",
"...@;ggggg;@@@@tgggggggs-u................",
"..@vggg;;;gggggggggg3ggggw@@..............",
".@;ggggv@@gggggggggg;3gggx8-@@............",
"@;gg;v@@.@;ggggggggggggggxgg8-@@..........",
"@ggg;@...@yggggggggggggg8zgggg8-@.........",
"@g;;@.....@;ggggggggggsABCg83gg8@.........",
".@@@......@ygggggggggg8@vDAvEgg8@.........",
"...........@v;ggggggg;y;;;F3gg8-@.........",
"........%...@@;ggggg-@@y;;;F38-@..........",
"..............@gggg8@..@y;;;G@@...........",
".............@gggg8@.....@y;-@............",
"...........@@;;tg-@.....@;;1B@............",
"........$.@gggggg-@....@;;;-@.............",
"..........@;;ggg8H@....@;;-@........$.....",
"..........@v;;;t8@.....@@@@...............",
"...........@@@vt8@........................",
"..............@@@........................."};
