/* XPM */
static char * C02_xpm[] = {
"42 42 70 1",
" 	c None",
".	c #181328",
"+	c #1D1428",
"@	c #000000",
"#	c #8B9BB4",
"$	c #3A4466",
"%	c #5A6988",
"&	c #FCFCFC",
"*	c #37415A",
"=	c #37415B",
"-	c #7992A6",
";	c #7891A5",
">	c #E76E46",
",	c #373F5A",
"'	c #0EA669",
")	c #E66E46",
"!	c #F5A56E",
"~	c #F6A66E",
"{	c #460035",
"]	c #37405A",
"^	c #0F7373",
"/	c #810000",
"(	c #A50000",
"_	c #1E1A2C",
":	c #F6A66F",
"<	c #363F59",
"[	c #7892A6",
"}	c #4B143C",
"|	c #F5A46B",
"1	c #FDFDFD",
"2	c #A6BFCE",
"3	c #54637C",
"4	c #E66D44",
"5	c #E76F46",
"6	c #A5BECD",
"7	c #F5A56D",
"8	c #7790A4",
"9	c #010102",
"0	c #55647D",
"a	c #54647D",
"b	c #8C2323",
"c	c #8D2323",
"d	c #040309",
"e	c #7790A5",
"f	c #A6BFCD",
"g	c #7892A5",
"h	c #53627B",
"i	c #74899B",
"j	c #7791A5",
"k	c #8CA2B0",
"l	c #0C0917",
"m	c #000001",
"n	c #020206",
"o	c #010103",
"p	c #56657E",
"q	c #030508",
"r	c #161125",
"s	c #5B6B83",
"t	c #3B4658",
"u	c #0C0816",
"v	c #758DA1",
"w	c #505E76",
"x	c #748DA0",
"y	c #748CA0",
"z	c #536179",
"A	c #171227",
"B	c #55647E",
"C	c #020405",
"D	c #171226",
"E	c #171327",
"........................+......@@.........",
".......................+...#...@@.........",
"................................@@........",
".........................$.......@......%.",
".................................@........",
"..................................@.......",
"..................................@.......",
"...................................@@@....",
"...........&&&&..................@@**@....",
".........&&....&&...............@=@***@...",
".......&&........&&.............@-@*@*@...",
"......&...%.@@.....&...........@;-@@@**@..",
"......&.....@>@.&&.&...........@-@-@,'*@..",
".....&@..@@@)!~@{&..&..........@@;-@]^/*@.",
".....&!@@))!!!!>@...&...........@-@@@,(*@.",
"_...&@!!!!!!!!!!~@...&..........@@@-@***@@",
"....&@!!!!!!!!!!!:@..&..........@<;[*@*@@@",
"....&@)!!!!!!!~@@:@!.&..@@.......@;;-@@**@",
"....&}@!!!@@!!!!!|1@.&.@;-@......@<;-@***@",
".....&@!!!!!!~@!!!:@2}@3;;-@......@;-@**@.",
".@@@.&@4&!!>@@~@@)5@2@3;;;-@......@*@**@..",
"@6;;@.&7&!!!!!!!!:@86;;;;-@.@@@....9999...",
"@666;@&!))!!!!!!!5@@@@3-@@.@82-@..........",
"@;66;0@@a))bbbbbc@8662@@@.@8662-@.........",
".@;66660d@@)))>@@e6666f-@@g0h662@.........",
"..@0666;i6;@@@@j6666666f-@628662@.........",
"...@;666k;666666666686666666662-9.........",
"....ll@@l@6666666666;86666662-mn..........",
".........@;6666666666666662-@o............",
".........@366666666666662-@m..............",
"..........@;6666666666fgpqr..m@m..........",
"..........@366666666662@pstum;;@..........",
"...........@0;6666666;3;8vv9;;;@..........",
"........%...@@;66666-@@wxy83;;-m..........",
"..............@66662@..nzj;;[-m...........",
".............@66662@....9p--p@............",
"...........@@;;j6-@.A....@@@@.............",
"........$.@666666-@.......................",
"..........@;;6662BCD................$.....",
"..........@0;;;j2@E.......................",
"...........@@@0j2@........................",
"..............@@@........................."};
