/* XPM */
static char * C:\Users\User\Documents\42W\so_long\G01_xpm[] = {
"42 42 258 2",
"  	c None",
". 	c #181328",
"+ 	c #96393F",
"@ 	c #C46C7B",
"# 	c #C06877",
"$ 	c #BF6774",
"% 	c #BE6573",
"& 	c #BC6370",
"* 	c #BA616E",
"= 	c #BB626F",
"- 	c #331628",
"; 	c #92353B",
"> 	c #BE6674",
", 	c #B9606D",
"' 	c #B75E6A",
") 	c #B55B67",
"! 	c #B25862",
"~ 	c #CF7A8F",
"{ 	c #F7A4BC",
"] 	c #704349",
"^ 	c #B45A66",
"/ 	c #6D2A2D",
"( 	c #B55E6B",
"_ 	c #C46D7C",
": 	c #4A3334",
"< 	c #692F32",
"[ 	c #5A3133",
"} 	c #4F3233",
"| 	c #453334",
"1 	c #373131",
"2 	c #93474D",
"3 	c #EE9CB2",
"4 	c #AD545D",
"5 	c #FAA7BF",
"6 	c #ED9EB5",
"7 	c #55282B",
"8 	c #73373E",
"9 	c #B45A65",
"0 	c #E996AC",
"a 	c #F9A6BE",
"b 	c #B05660",
"c 	c #F4A1B8",
"d 	c #CD7A8A",
"e 	c #CE8DA1",
"f 	c #B9606C",
"g 	c #FFB1C9",
"h 	c #BD6472",
"i 	c #181728",
"j 	c #2C2C2C",
"k 	c #282828",
"l 	c #CC798D",
"m 	c #A14448",
"n 	c #9A4348",
"o 	c #89505B",
"p 	c #E28FA5",
"q 	c #D17D8E",
"r 	c #B25761",
"s 	c #B0555F",
"t 	c #A74D55",
"u 	c #4E2C2E",
"v 	c #A84C53",
"w 	c #8A3F46",
"x 	c #7E2D31",
"y 	c #722F32",
"z 	c #6E2F32",
"A 	c #B15660",
"B 	c #88373D",
"C 	c #B35963",
"D 	c #AC5159",
"E 	c #A84B52",
"F 	c #A5484E",
"G 	c #A24549",
"H 	c #9F4246",
"I 	c #4B3535",
"J 	c #F29FB6",
"K 	c #AC545D",
"L 	c #913D43",
"M 	c #C67082",
"N 	c #E996AD",
"O 	c #F09DB5",
"P 	c #F19EB6",
"Q 	c #F09DB4",
"R 	c #B05965",
"S 	c #F6A3BB",
"T 	c #CE869A",
"U 	c #472128",
"V 	c #B06E81",
"W 	c #DE94AA",
"X 	c #9F6B7A",
"Y 	c #3A242B",
"Z 	c #6F2F32",
"` 	c #FFADC5",
" .	c #FDAAC2",
"..	c #BE6673",
"+.	c #8B2D32",
"@.	c #FBA8C0",
"#.	c #FFAEC6",
"$.	c #481E28",
"%.	c #AB5058",
"&.	c #9F4247",
"*.	c #9A3C41",
"=.	c #97393E",
"-.	c #95373C",
";.	c #96383D",
">.	c #271328",
",.	c #1F1328",
"'.	c #983A3F",
").	c #993B40",
"!.	c #9B3D42",
"~.	c #9D3F44",
"{.	c #923A3F",
"].	c #895967",
"^.	c #C27D8E",
"/.	c #4C262A",
"(.	c #7B515D",
"_.	c #D48FA3",
":.	c #C46D7D",
"<.	c #FFACC4",
"[.	c #D9859B",
"}.	c #5D3133",
"|.	c #9E4045",
"1.	c #9C3E43",
"2.	c #A3464B",
"3.	c #593133",
"4.	c #431828",
"5.	c #BB6673",
"6.	c #EE9BB3",
"7.	c #EB98B0",
"8.	c #E996AE",
"9.	c #EA97AF",
"0.	c #EC99B1",
"a.	c #ED9AB2",
"b.	c #EF9CB4",
"c.	c #F29FB7",
"d.	c #F4A1B9",
"e.	c #C97484",
"f.	c #B65C67",
"g.	c #2F1328",
"h.	c #DC89A0",
"i.	c #AE545E",
"j.	c #DE8AA0",
"k.	c #F8A5BD",
"l.	c #BF7687",
"m.	c #8C5965",
"n.	c #BC768A",
"o.	c #882E33",
"p.	c #B85F6B",
"q.	c #B55B66",
"r.	c #AD525A",
"s.	c #D58096",
"t.	c #F5A2BA",
"u.	c #D47F94",
"v.	c #D17C90",
"w.	c #D27D91",
"x.	c #D8849A",
"y.	c #5D373B",
"z.	c #D78297",
"A.	c #E895AD",
"B.	c #E693AB",
"C.	c #E592AA",
"D.	c #E28FA4",
"E.	c #844049",
"F.	c #862F34",
"G.	c #DF8CA4",
"H.	c #673337",
"I.	c #B75D69",
"J.	c #BA636F",
"K.	c #8D3F47",
"L.	c #301328",
"M.	c #752E32",
"N.	c #D07B8E",
"O.	c #CF798D",
"P.	c #D68297",
"Q.	c #FCA9C1",
"R.	c #6C2528",
"S.	c #AD555F",
"T.	c #F6A3BA",
"U.	c #AC535D",
"V.	c #C47C91",
"W.	c #E18EA6",
"X.	c #803A40",
"Y.	c #F3A0B8",
"Z.	c #DB879E",
"`.	c #AA505A",
" +	c #AA4F57",
".+	c #93353A",
"++	c #8B2E33",
"@+	c #832D31",
"#+	c #7D2E31",
"$+	c #7F2D31",
"%+	c #872C31",
"&+	c #5F3133",
"*+	c #B15A65",
"=+	c #C56F7F",
"-+	c #FEABC3",
";+	c #D78497",
">+	c #D8859A",
",+	c #663F4A",
"'+	c #BF778C",
")+	c #714C56",
"!+	c #762E31",
"~+	c #5A2729",
"{+	c #E899AF",
"]+	c #B65F6B",
"^+	c #2C1328",
"/+	c #A15C6A",
"(+	c #E894AB",
"_+	c #DA859B",
":+	c #3B2028",
"<+	c #622E30",
"[+	c #8F3136",
"}+	c #8E3035",
"|+	c #8D2F34",
"1+	c #732F32",
"2+	c #D98EA2",
"3+	c #6B4248",
"4+	c #DE8AA1",
"5+	c #B15761",
"6+	c #AF545E",
"7+	c #AC5058",
"8+	c #A84C52",
"9+	c #A64950",
"0+	c #D78499",
"a+	c #BB636F",
"b+	c #9C5360",
"c+	c #905E6C",
"d+	c #373333",
"e+	c #443434",
"f+	c #4C3334",
"g+	c #432A2C",
"h+	c #2E1D28",
"i+	c #483334",
"j+	c #3C3535",
"k+	c #1B1A28",
"l+	c #F2A1B8",
"m+	c #A04B53",
"n+	c #503233",
"o+	c #512528",
"p+	c #915F6D",
"q+	c #382F30",
"r+	c #4E3234",
"s+	c #623033",
"t+	c #613033",
"u+	c #543234",
"v+	c #F4A4BB",
"w+	c #D48094",
"x+	c #99515C",
"y+	c #BA606D",
"z+	c #C26A79",
"A+	c #983B3F",
"B+	c #782E31",
"C+	c #893539",
"D+	c #B35B67",
"E+	c #C06876",
"F+	c #BD6471",
"G+	c #B65C68",
"H+	c #BA616D",
"I+	c #9E5763",
". . . . . . . . . . . . . . . . . . . . . . . . . . . . . . . . . . . . . . . . . . ",
". . . . . . . . . . . . . . . . . . . . . . . . . . . . . . . . . . . . . . . . . . ",
". . . . . . . . . . . . . . . . . . . . . . . . . . . . . . . . . . . . . . . . . . ",
". . . . . . . . . . . . . . . . . . . . . . . . . . . . . . . . . . . . . . . . . . ",
". . . . . . . . . . . . . . . . . . . . . . . . . . . . . . . . . . . . . . . . . . ",
". . . . . . . . . . . . . . . . . . . . . . . . . . . . . . . . . . . . . . . . . . ",
". . . . . . . . . . . . . . . . . . . . . . . . . . . . . . . . . . . . . . . . . . ",
". . . . . . . . . . . . . . . . . . . . . . . . . . . . . . . . . . . . . . . . . . ",
". . . . . . . . . . . . . . . . . . . . . . . . . . . . . . . . . . . . . . . . . . ",
". . . . . . . . . . . . . . . . . . . . . . . . . . . . . . . . . . . . . . . . . . ",
". . . . . . . . . . . . . . . . . . . . . . . . . . . . . . . . . . . . . . . . . . ",
". . . . . . . . . . . . . . . . . . . . . . . . . . . . . . . . . . . . . . . . . . ",
". . . . . . . . . . . . . . . . . . . . . . . . . . . . . . . . . . . . . . . . . . ",
". . . . . . . . . . . . . . . . . . . . . . . . . . . . . . . . . . . . . . . . . . ",
". . . . . . . . . . . . . . . . . . . . . . . . . . . . . . . . . . . . . . . . . . ",
". . . + @ # $ % & * = - . . . . . . . . . . . . . . . . . . . . . . . . . . . . . . ",
". . . ; > , ' ) ! ~ { ] ^ / . . . . . . ( . . . . . . . . . . . . . . . . . _ . . . ",
". . . : < [ } | 1 2 3 4 5 6 7 8 ! 9 0 a 5 b c d e . . . . . . . . . . . . . f g h . ",
". . . i i . . . . j k l m n o p { q r s ! t u v w . . . . . . . . . . . . x y z A h ",
". . . . B C D E F G H I J K L ! s M N O P Q R S T U V W X Y . . . Z `  ...& * +.@.#.",
". . . . $.%.&.*.=.-.;.>.,.;.=.=.=.'.'.).!.~.{.].S ^./.(._.:.#.#.<.[.}.m |.!.*.1.2.3.",
". . . . 4.5.6.7.8.8.9.0.a.6.b.O c.d.e.f.g.h.i.j.k.@.l.m.n.o.f p.q.r.s.t.u.v.6.w.x.p.",
". . . y.z.a.A.B.C.B.A.7.a.b.D.r E.. . F.G.H.9 C C I.J.K.L.. . . . M.! k.c.N.0.O.P.Q.",
"R.S.T.d.6.8.B.C.C.B.9.b U.. . . . . V.W.X.. . . . . . . . . . . . . . . P.Y.b.b.d.Z.",
"`. +|..+++@+x #+$+%+&+*+& =+7.-+` ;+>+,+. . . . . . . . . . . . . . . . . [.{ { @.Z ",
"'+d.c.6.7.9.8.A.8.a.)+. . . . . . . . . . . . . . . . . . . . . . . . . . . z I.!+. ",
"~+{+d.P b.6.6.a.0.b.]+^+. . . . . . . . . . . . . . . . . . . . . . . . . . . . . . ",
". . . . . . . . /+(+_+:+. . . . . . . . . . . . . . . . . . . . . . . . . . . . . . ",
". . <+[+}+|++.%+1+2+k.3+. . . . . . . . . . . . . . . . . . . . . . . . . . . . . . ",
"@.-+4+s A ! 5+6+7+8+9+9+@.0+a+b+. . . . . . . . . . . . . . . . . . . . . . . . . . ",
"c+. d+e+f+g+h+i+j+k+. l+S m+n+o+. . . . . . . . . . . . . . . . . . . . . . . . . . ",
"p+q+r+3.&+s+t+}.u+| . v+a w+' x+. . . . . . . . . . . . . . . . . . . . . . . . . . ",
"y+> z+A+!+B+B+C+D+E+F+I.G+H+E+I+. . . . . . . . . . . . . . . . . . . . . . . . . . ",
". . . . . . . . . . . . . . . . . . . . . . . . . . . . . . . . . . . . . . . . . . ",
". . . . . . . . . . . . . . . . . . . . . . . . . . . . . . . . . . . . . . . . . . ",
". . . . . . . . . . . . . . . . . . . . . . . . . . . . . . . . . . . . . . . . . . ",
". . . . . . . . . . . . . . . . . . . . . . . . . . . . . . . . . . . . . . . . . . ",
". . . . . . . . . . . . . . . . . . . . . . . . . . . . . . . . . . . . . . . . . . ",
". . . . . . . . . . . . . . . . . . . . . . . . . . . . . . . . . . . . . . . . . . ",
". . . . . . . . . . . . . . . . . . . . . . . . . . . . . . . . . . . . . . . . . . ",
". . . . . . . . . . . . . . . . . . . . . . . . . . . . . . . . . . . . . . . . . . ",
". . . . . . . . . . . . . . . . . . . . . . . . . . . . . . . . . . . . . . . . . . "};
