/* XPM */
static char * C:\Users\User\Documents\42W\so_long\G02_xpm[] = {
"42 42 258 2",
"  	c None",
". 	c #181328",
"+ 	c #331628",
"@ 	c #BB626F",
"# 	c #BA616E",
"$ 	c #BC6370",
"% 	c #BE6573",
"& 	c #BF6774",
"* 	c #C06877",
"= 	c #C46C7B",
"- 	c #96393F",
"; 	c #C46D7C",
"> 	c #B55E6B",
", 	c #6D2A2D",
"' 	c #B45A66",
") 	c #704349",
"! 	c #F7A4BC",
"~ 	c #CF7A8F",
"{ 	c #B25862",
"] 	c #B55B67",
"^ 	c #B75E6A",
"/ 	c #B9606D",
"( 	c #BE6674",
"_ 	c #92353B",
": 	c #BD6472",
"< 	c #FFB1C9",
"[ 	c #B9606C",
"} 	c #CE8DA1",
"| 	c #CD7A8A",
"1 	c #F4A1B8",
"2 	c #B05660",
"3 	c #FAA7BF",
"4 	c #F9A6BE",
"5 	c #E996AC",
"6 	c #B45A65",
"7 	c #73373E",
"8 	c #55282B",
"9 	c #ED9EB5",
"0 	c #AD545D",
"a 	c #EE9CB2",
"b 	c #93474D",
"c 	c #373131",
"d 	c #453334",
"e 	c #4F3233",
"f 	c #5A3133",
"g 	c #692F32",
"h 	c #4A3334",
"i 	c #B15660",
"j 	c #6E2F32",
"k 	c #722F32",
"l 	c #7E2D31",
"m 	c #8A3F46",
"n 	c #A84C53",
"o 	c #4E2C2E",
"p 	c #A74D55",
"q 	c #B0555F",
"r 	c #B25761",
"s 	c #D17D8E",
"t 	c #E28FA5",
"u 	c #89505B",
"v 	c #9A4348",
"w 	c #A14448",
"x 	c #CC798D",
"y 	c #282828",
"z 	c #2C2C2C",
"A 	c #181728",
"B 	c #FFAEC6",
"C 	c #FBA8C0",
"D 	c #8B2D32",
"E 	c #BE6673",
"F 	c #FDAAC2",
"G 	c #FFADC5",
"H 	c #6F2F32",
"I 	c #3A242B",
"J 	c #9F6B7A",
"K 	c #DE94AA",
"L 	c #B06E81",
"M 	c #472128",
"N 	c #CE869A",
"O 	c #F6A3BB",
"P 	c #B05965",
"Q 	c #F09DB4",
"R 	c #F19EB6",
"S 	c #F09DB5",
"T 	c #E996AD",
"U 	c #C67082",
"V 	c #913D43",
"W 	c #AC545D",
"X 	c #F29FB6",
"Y 	c #4B3535",
"Z 	c #9F4246",
"` 	c #A24549",
" .	c #A5484E",
"..	c #A84B52",
"+.	c #AC5159",
"@.	c #B35963",
"#.	c #88373D",
"$.	c #593133",
"%.	c #A3464B",
"&.	c #9C3E43",
"*.	c #9A3C41",
"=.	c #9B3D42",
"-.	c #9E4045",
";.	c #5D3133",
">.	c #D9859B",
",.	c #FFACC4",
"'.	c #C46D7D",
").	c #D48FA3",
"!.	c #7B515D",
"~.	c #4C262A",
"{.	c #C27D8E",
"].	c #895967",
"^.	c #923A3F",
"/.	c #9D3F44",
"(.	c #993B40",
"_.	c #983A3F",
":.	c #97393E",
"<.	c #96383D",
"[.	c #1F1328",
"}.	c #271328",
"|.	c #95373C",
"1.	c #9F4247",
"2.	c #AB5058",
"3.	c #481E28",
"4.	c #B85F6B",
"5.	c #D8849A",
"6.	c #D27D91",
"7.	c #EE9BB3",
"8.	c #D17C90",
"9.	c #D47F94",
"0.	c #F5A2BA",
"a.	c #D58096",
"b.	c #AD525A",
"c.	c #B55B66",
"d.	c #882E33",
"e.	c #BC768A",
"f.	c #8C5965",
"g.	c #BF7687",
"h.	c #F8A5BD",
"i.	c #DE8AA0",
"j.	c #AE545E",
"k.	c #DC89A0",
"l.	c #2F1328",
"m.	c #B65C67",
"n.	c #C97484",
"o.	c #F4A1B9",
"p.	c #F29FB7",
"q.	c #EF9CB4",
"r.	c #ED9AB2",
"s.	c #EC99B1",
"t.	c #EA97AF",
"u.	c #E996AE",
"v.	c #EB98B0",
"w.	c #BB6673",
"x.	c #431828",
"y.	c #FCA9C1",
"z.	c #D68297",
"A.	c #CF798D",
"B.	c #D07B8E",
"C.	c #752E32",
"D.	c #301328",
"E.	c #8D3F47",
"F.	c #BA636F",
"G.	c #B75D69",
"H.	c #673337",
"I.	c #DF8CA4",
"J.	c #862F34",
"K.	c #844049",
"L.	c #E28FA4",
"M.	c #E895AD",
"N.	c #E693AB",
"O.	c #E592AA",
"P.	c #D78297",
"Q.	c #5D373B",
"R.	c #DB879E",
"S.	c #F3A0B8",
"T.	c #803A40",
"U.	c #E18EA6",
"V.	c #C47C91",
"W.	c #AC535D",
"X.	c #F6A3BA",
"Y.	c #AD555F",
"Z.	c #6C2528",
"`.	c #663F4A",
" +	c #D8859A",
".+	c #D78497",
"++	c #FEABC3",
"@+	c #C56F7F",
"#+	c #B15A65",
"$+	c #5F3133",
"%+	c #872C31",
"&+	c #7F2D31",
"*+	c #7D2E31",
"=+	c #832D31",
"-+	c #8B2E33",
";+	c #93353A",
">+	c #AA4F57",
",+	c #AA505A",
"'+	c #762E31",
")+	c #714C56",
"!+	c #BF778C",
"~+	c #2C1328",
"{+	c #B65F6B",
"]+	c #E899AF",
"^+	c #5A2729",
"/+	c #3B2028",
"(+	c #DA859B",
"_+	c #E894AB",
":+	c #A15C6A",
"<+	c #6B4248",
"[+	c #D98EA2",
"}+	c #732F32",
"|+	c #8D2F34",
"1+	c #8E3035",
"2+	c #8F3136",
"3+	c #622E30",
"4+	c #9C5360",
"5+	c #BB636F",
"6+	c #D78499",
"7+	c #A64950",
"8+	c #A84C52",
"9+	c #AC5058",
"0+	c #AF545E",
"a+	c #B15761",
"b+	c #DE8AA1",
"c+	c #512528",
"d+	c #503233",
"e+	c #A04B53",
"f+	c #F2A1B8",
"g+	c #1B1A28",
"h+	c #3C3535",
"i+	c #483334",
"j+	c #2E1D28",
"k+	c #432A2C",
"l+	c #4C3334",
"m+	c #443434",
"n+	c #373333",
"o+	c #905E6C",
"p+	c #99515C",
"q+	c #D48094",
"r+	c #F4A4BB",
"s+	c #543234",
"t+	c #613033",
"u+	c #623033",
"v+	c #4E3234",
"w+	c #382F30",
"x+	c #915F6D",
"y+	c #9E5763",
"z+	c #C06876",
"A+	c #BA616D",
"B+	c #B65C68",
"C+	c #BD6471",
"D+	c #B35B67",
"E+	c #893539",
"F+	c #782E31",
"G+	c #983B3F",
"H+	c #C26A79",
"I+	c #BA606D",
". . . . . . . . . . . . . . . . . . . . . . . . . . . . . . . . . . . . . . . . . . ",
". . . . . . . . . . . . . . . . . . . . . . . . . . . . . . . . . . . . . . . . . . ",
". . . . . . . . . . . . . . . . . . . . . . . . . . . . . . . . . . . . . . . . . . ",
". . . . . . . . . . . . . . . . . . . . . . . . . . . . . . . . . . . . . . . . . . ",
". . . . . . . . . . . . . . . . . . . . . . . . . . . . . . . . . . . . . . . . . . ",
". . . . . . . . . . . . . . . . . . . . . . . . . . . . . . . . . . . . . . . . . . ",
". . . . . . . . . . . . . . . . . . . . . . . . . . . . . . . . . . . . . . . . . . ",
". . . . . . . . . . . . . . . . . . . . . . . . . . . . . . . . . . . . . . . . . . ",
". . . . . . . . . . . . . . . . . . . . . . . . . . . . . . . . . . . . . . . . . . ",
". . . . . . . . . . . . . . . . . . . . . . . . . . . . . . . . . . . . . . . . . . ",
". . . . . . . . . . . . . . . . . . . . . . . . . . . . . . . . . . . . . . . . . . ",
". . . . . . . . . . . . . . . . . . . . . . . . . . . . . . . . . . . . . . . . . . ",
". . . . . . . . . . . . . . . . . . . . . . . . . . . . . . . . . . . . . . . . . . ",
". . . . . . . . . . . . . . . . . . . . . . . . . . . . . . . . . . . . . . . . . . ",
". . . . . . . . . . . . . . . . . . . . . . . . . . . . . . . . . . . . . . . . . . ",
". . . . . . . . . . . . . . . . . . . . . . . . . . . . . . + @ # $ % & * = - . . . ",
". . . ; . . . . . . . . . . . . . . . . . > . . . . . . , ' ) ! ~ { ] ^ / ( _ . . . ",
". : < [ . . . . . . . . . . . . . } | 1 2 3 4 5 6 { 7 8 9 3 0 a b c d e f g h . . . ",
": i j k l . . . . . . . . . . . . m n o p { q r s ! t u v w x y z . . . . A A . . . ",
"B C D # $ E F G H . . . I J K L M N O P Q R S T U q { V W X Y Z `  ...+.@.#.. . . . ",
"$.%.&.*.=.-.w ;.>.,.B B '.).!.~.{.O ].^./.=.(._._.:.:.:.<.[.}.<.|.:.*.1.2.3.. . . . ",
"4.5.6.7.8.9.0.a.b.c.4.[ d.e.f.g.C h.i.j.k.l.m.n.o.p.S q.7.r.s.t.u.u.v.7.w.x.. . . . ",
"y.z.A.s.B.p.h.{ C.. . . . D.E.F.G.@.@.6 H.I.J.. . K.r L.q.r.v.M.N.O.N.M.r.P.Q.. . . ",
"R.o.q.q.S.z.. . . . . . . . . . . . . . . T.U.V.. . . . . W.2 t.N.O.O.N.u.7.o.X.Y.Z.",
"H C ! ! >.. . . . . . . . . . . . . . . . . `. +.+G ++v.@+$ #+$+%+&+*+l =+-+;+-.>+,+",
". '+G.j . . . . . . . . . . . . . . . . . . . . . . . . . . . )+r.u.M.u.t.v.7.p.o.!+",
". . . . . . . . . . . . . . . . . . . . . . . . . . . . . . ~+{+q.s.r.7.7.q.R o.]+^+",
". . . . . . . . . . . . . . . . . . . . . . . . . . . . . . /+(+_+:+. . . . . . . . ",
". . . . . . . . . . . . . . . . . . . . . . . . . . . . . . <+h.[+}+%+D |+1+2+3+. . ",
". . . . . . . . . . . . . . . . . . . . . . . . . . 4+5+6+C 7+7+8+9+0+a+{ i q b+++C ",
". . . . . . . . . . . . . . . . . . . . . . . . . . c+d+e+O f+. g+h+i+j+k+l+m+n+. o+",
". . . . . . . . . . . . . . . . . . . . . . . . . . p+^ q+4 r+. d s+;.t+u+$+$.v+w+x+",
". . . . . . . . . . . . . . . . . . . . . . . . . . y+z+A+B+G.C+z+D+E+F+F+'+G+H+( I+",
". . . . . . . . . . . . . . . . . . . . . . . . . . . . . . . . . . . . . . . . . . ",
". . . . . . . . . . . . . . . . . . . . . . . . . . . . . . . . . . . . . . . . . . ",
". . . . . . . . . . . . . . . . . . . . . . . . . . . . . . . . . . . . . . . . . . ",
". . . . . . . . . . . . . . . . . . . . . . . . . . . . . . . . . . . . . . . . . . ",
". . . . . . . . . . . . . . . . . . . . . . . . . . . . . . . . . . . . . . . . . . ",
". . . . . . . . . . . . . . . . . . . . . . . . . . . . . . . . . . . . . . . . . . ",
". . . . . . . . . . . . . . . . . . . . . . . . . . . . . . . . . . . . . . . . . . ",
". . . . . . . . . . . . . . . . . . . . . . . . . . . . . . . . . . . . . . . . . . ",
". . . . . . . . . . . . . . . . . . . . . . . . . . . . . . . . . . . . . . . . . . "};
