/* XPM */
static char * C:\Users\User\Documents\42W\so_long\G03_xpm[] = {
"42 42 561 2",
"  	c None",
". 	c #181328",
"+ 	c #441D28",
"@ 	c #2A1328",
"# 	c #2F1328",
"$ 	c #281328",
"% 	c #681328",
"& 	c #B66574",
"* 	c #9F525C",
"= 	c #892E2F",
"- 	c #A83F43",
"; 	c #AA4248",
"> 	c #741328",
", 	c #B0616F",
"' 	c #9C393B",
") 	c #DF8499",
"! 	c #322828",
"~ 	c #C76A77",
"{ 	c #FFB5CF",
"] 	c #FFAEC7",
"^ 	c #FFB8D3",
"/ 	c #58414D",
"( 	c #A64449",
"_ 	c #E1889E",
": 	c #722128",
"< 	c #A85E6E",
"[ 	c #DC869B",
"} 	c #A46B78",
"| 	c #7A1328",
"1 	c #A03434",
"2 	c #A25C6C",
"3 	c #D07E93",
"4 	c #AA6473",
"5 	c #C1616C",
"6 	c #B2545E",
"7 	c #9F3E40",
"8 	c #A64549",
"9 	c #B85962",
"0 	c #8A3437",
"a 	c #B15B69",
"b 	c #B65A65",
"c 	c #CA6E7E",
"d 	c #BF6572",
"e 	c #D57687",
"f 	c #40242C",
"g 	c #B0545F",
"h 	c #C3636F",
"i 	c #C3626D",
"j 	c #83414A",
"k 	c #93515F",
"l 	c #8D515E",
"m 	c #521328",
"n 	c #E2889A",
"o 	c #AA7283",
"p 	c #5A2028",
"q 	c #F59AB0",
"r 	c #BA8295",
"s 	c #561828",
"t 	c #F69BB1",
"u 	c #BC8497",
"v 	c #68343C",
"w 	c #C76877",
"x 	c #98373C",
"y 	c #986979",
"z 	c #FFA8C1",
"A 	c #CA6876",
"B 	c #643036",
"C 	c #956575",
"D 	c #FCA3BA",
"E 	c #C4626E",
"F 	c #5F2B31",
"G 	c #956574",
"H 	c #FCA3B9",
"I 	c #C2606B",
"J 	c #5E282D",
"K 	c #7C4C58",
"L 	c #D77C8D",
"M 	c #9F3A40",
"N 	c #461328",
"O 	c #8A5B69",
"P 	c #FFB8D1",
"Q 	c #DF8698",
"R 	c #4C1328",
"S 	c #8D5C69",
"T 	c #E28A9D",
"U 	c #541828",
"V 	c #1E1328",
"W 	c #CC7484",
"X 	c #FFACC5",
"Y 	c #FFADC7",
"Z 	c #875866",
"` 	c #1A1328",
" .	c #CB7483",
"..	c #FFACC7",
"+.	c #FFACC4",
"@.	c #845562",
"#.	c #815765",
"$.	c #D57B8B",
"%.	c #371328",
"&.	c #8A5B6A",
"*.	c #FFB6D1",
"=.	c #DB8192",
"-.	c #451328",
";.	c #5F3B44",
">.	c #DD899B",
",.	c #994F58",
"'.	c #B06673",
").	c #A14C54",
"!.	c #321328",
"~.	c #53333E",
"{.	c #F198B2",
"].	c #F19EB7",
"^.	c #E08B9E",
"/.	c #BE606C",
"(.	c #592529",
"_.	c #733740",
":.	c #CB6B78",
"<.	c #BE5F6A",
"[.	c #9B3439",
"}.	c #CD7382",
"|.	c #4A2A31",
"1.	c #351328",
"2.	c #501628",
"3.	c #261328",
"4.	c #E2879D",
"5.	c #F69FB6",
"6.	c #E597AE",
"7.	c #D98DA3",
"8.	c #994C59",
"9.	c #B75A63",
"0.	c #331428",
"a.	c #361728",
"b.	c #CB7988",
"c.	c #4F2A31",
"d.	c #B46F7F",
"e.	c #E499AF",
"f.	c #F09BB2",
"g.	c #FFA7BF",
"h.	c #A9464D",
"i.	c #E68FA7",
"j.	c #8F1628",
"k.	c #FAA3BE",
"l.	c #F19CB5",
"m.	c #F59FBA",
"n.	c #DD879A",
"o.	c #F29AB1",
"p.	c #E0869B",
"q.	c #E48BA2",
"r.	c #B75760",
"s.	c #B3525B",
"t.	c #9A464C",
"u.	c #614044",
"v.	c #AA464D",
"w.	c #AA464F",
"x.	c #663D41",
"y.	c #1F3B3D",
"z.	c #B2545D",
"A.	c #B85961",
"B.	c #FFAFC9",
"C.	c #DA8093",
"D.	c #F099B0",
"E.	c #DA8397",
"F.	c #F39EB8",
"G.	c #F6A1BB",
"H.	c #C86E80",
"I.	c #DF879D",
"J.	c #561328",
"K.	c #FDA8C1",
"L.	c #CB798C",
"M.	c #B66D7D",
"N.	c #EC97B0",
"O.	c #EA96AF",
"P.	c #CC7587",
"Q.	c #DE889E",
"R.	c #B05A69",
"S.	c #CD7687",
"T.	c #D58092",
"U.	c #D57F91",
"V.	c #D67D8F",
"W.	c #D37D8F",
"X.	c #D77E91",
"Y.	c #D98193",
"Z.	c #D57E90",
"`.	c #CA7384",
" +	c #C26A79",
".+	c #DB869B",
"++	c #CB7587",
"@+	c #EB96B1",
"#+	c #F49FB9",
"$+	c #6B1328",
"%+	c #FBA6BF",
"&+	c #DD879B",
"*+	c #CB7283",
"=+	c #C17082",
"-+	c #F49FB8",
";+	c #EE99B2",
">+	c #5E1328",
",+	c #EF99B3",
"'+	c #E995AE",
")+	c #C77183",
"!+	c #D68397",
"~+	c #BA5F6C",
"{+	c #E490A7",
"]+	c #EB97B1",
"^+	c #ED99B2",
"/+	c #EC97B1",
"(+	c #E28FA7",
"_+	c #B85F6C",
":+	c #D68297",
"<+	c #C97384",
"[+	c #ED9AB4",
"}+	c #C36A79",
"|+	c #B3555F",
"1+	c #F09CB5",
"2+	c #F5A2BA",
"3+	c #933B3D",
"4+	c #A33A3F",
"5+	c #181428",
"6+	c #FFC4DD",
"7+	c #381328",
"8+	c #ED9BB3",
"9+	c #EF9AB3",
"0+	c #BE6471",
"a+	c #8F464D",
"b+	c #D88297",
"c+	c #B15A67",
"d+	c #BE6978",
"e+	c #B0555F",
"f+	c #E693AB",
"g+	c #E18CA2",
"h+	c #884045",
"i+	c #D68296",
"j+	c #DE8A9F",
"k+	c #FAA4BD",
"l+	c #EF98AF",
"m+	c #DD879C",
"n+	c #954A53",
"o+	c #C17285",
"p+	c #F09BB5",
"q+	c #A1464F",
"r+	c #BF6A7A",
"s+	c #B25C69",
"t+	c #E0899E",
"u+	c #2C1328",
"v+	c #E594AD",
"w+	c #EB96AF",
"x+	c #F39EB7",
"y+	c #DA889D",
"z+	c #C7798D",
"A+	c #E38295",
"B+	c #CA7383",
"C+	c #9E515D",
"D+	c #EF99B1",
"E+	c #EC98B1",
"F+	c #EB98B0",
"G+	c #9E3C3F",
"H+	c #72333B",
"I+	c #EB96AE",
"J+	c #DE8BA3",
"K+	c #E290A8",
"L+	c #B55A66",
"M+	c #ED99B1",
"N+	c #8C282B",
"O+	c #651328",
"P+	c #452E38",
"Q+	c #E392A9",
"R+	c #8A3A40",
"S+	c #EA96AE",
"T+	c #AF5661",
"U+	c #E591A9",
"V+	c #994D57",
"W+	c #C97F93",
"X+	c #B35A65",
"Y+	c #E894AD",
"Z+	c #F09BB4",
"`+	c #E698AF",
" @	c #CD788C",
".@	c #633640",
"+@	c #CA7181",
"@@	c #83383D",
"#@	c #C36471",
"$@	c #E590A7",
"%@	c #E793AC",
"&@	c #A64447",
"*@	c #BA626E",
"=@	c #B46371",
"-@	c #E28DA4",
";@	c #E28FA5",
">@	c #B65C66",
",@	c #F39EB6",
"'@	c #A64850",
")@	c #994A53",
"!@	c #45323C",
"~@	c #504047",
"{@	c #974A51",
"]@	c #CC6F7F",
"^@	c #E491A8",
"/@	c #751328",
"(@	c #EE9AB2",
"_@	c #E590A8",
":@	c #91464F",
"<@	c #D9899F",
"[@	c #B85F6A",
"}@	c #DD889F",
"|@	c #C56977",
"1@	c #E599B0",
"2@	c #CA6D7C",
"3@	c #FFB3CD",
"4@	c #941928",
"5@	c #3C1328",
"6@	c #AB7082",
"7@	c #F59EB7",
"8@	c #C16979",
"9@	c #A9494E",
"0@	c #DE89A1",
"a@	c #E994AE",
"b@	c #A14E56",
"c@	c #73383F",
"d@	c #E18AA1",
"e@	c #D9859B",
"f@	c #BD6471",
"g@	c #B45C69",
"h@	c #D08BA1",
"i@	c #841328",
"j@	c #FFADC8",
"k@	c #FCA6C0",
"l@	c #FDA5BF",
"m@	c #FDA6C0",
"n@	c #AD5460",
"o@	c #D38196",
"p@	c #B75F6B",
"q@	c #D47E90",
"r@	c #AE555F",
"s@	c #E08BA1",
"t@	c #A65764",
"u@	c #9D434B",
"v@	c #CF798B",
"w@	c #EA97B1",
"x@	c #B85C6A",
"y@	c #D68094",
"z@	c #B95E69",
"A@	c #DF8EA4",
"B@	c #752028",
"C@	c #EF97AB",
"D@	c #D17382",
"E@	c #EF9BB1",
"F@	c #801328",
"G@	c #CE7B8E",
"H@	c #F39FBA",
"I@	c #AE545C",
"J@	c #E491AA",
"K@	c #E490A8",
"L@	c #A34347",
"M@	c #EF9AB5",
"N@	c #C1768A",
"O@	c #A76170",
"P@	c #F5A0BA",
"Q@	c #CF7485",
"R@	c #CA7284",
"S@	c #831328",
"T@	c #781328",
"U@	c #691328",
"V@	c #631328",
"W@	c #671328",
"X@	c #791328",
"Y@	c #F4A2BA",
"Z@	c #7F1328",
"`@	c #891E28",
" #	c #AB6475",
".#	c #C57A8E",
"+#	c #D27B8E",
"@#	c #C06877",
"##	c #E693AC",
"$#	c #A7494F",
"%#	c #F4A0B9",
"&#	c #D48092",
"*#	c #8A1328",
"=#	c #FAA3BB",
"-#	c #CF7382",
";#	c #873B43",
">#	c #E18CA1",
",#	c #BA6676",
"'#	c #F9A4BF",
")#	c #D48095",
"!#	c #C87384",
"~#	c #D9849A",
"{#	c #C06674",
"]#	c #E591AB",
"^#	c #C8788C",
"/#	c #AC5966",
"(#	c #F09AB2",
"_#	c #D57B8D",
":#	c #8F2528",
"<#	c #903033",
"[#	c #FAA5BF",
"}#	c #EE99B3",
"|#	c #EC96B0",
"1#	c #ED97B1",
"2#	c #F8A3BD",
"3#	c #8F2D32",
"4#	c #F8A2BB",
"5#	c #9A3335",
"6#	c #D1798A",
"7#	c #C77D90",
"8#	c #AE6576",
"9#	c #EB96B0",
"0#	c #E692AB",
"a#	c #C46F81",
"b#	c #C46E80",
"c#	c #EA97AF",
"d#	c #B45963",
"e#	c #EA95AE",
"f#	c #C27082",
"g#	c #DD8A9D",
"h#	c #E798AE",
"i#	c #3D2F2C",
"j#	c #A43C3F",
"k#	c #BF6C7E",
"l#	c #E691A9",
"m#	c #CA7385",
"n#	c #A34244",
"o#	c #E18EA5",
"p#	c #E18DA6",
"q#	c #B46576",
"r#	c #D38499",
"s#	c #DF8497",
"t#	c #9A3738",
"u#	c #923033",
"v#	c #F39EB9",
"w#	c #E591AA",
"x#	c #E28EA7",
"y#	c #F09AB4",
"z#	c #882228",
"A#	c #F9A4BD",
"B#	c #A53F44",
"C#	c #DA8195",
"D#	c #D28398",
"E#	c #AE6172",
"F#	c #E390AA",
"G#	c #C56D7C",
"H#	c #A84A51",
"I#	c #E28DA5",
"J#	c #C36A7A",
"K#	c #C8778A",
"L#	c #E08CA1",
"M#	c #855866",
"N#	c #513332",
"O#	c #A94245",
"P#	c #BB6473",
"Q#	c #D68295",
"R#	c #BC6472",
"S#	c #CF798D",
"T#	c #B9626E",
"U#	c #D37F95",
"V#	c #E490A9",
"W#	c #D9859A",
"X#	c #D18698",
"Y#	c #D1798C",
"Z#	c #9B393E",
"`#	c #F8A2BC",
" $	c #E792AB",
".$	c #E894AC",
"+$	c #923034",
"@$	c #FFA9C2",
"#$	c #A0474E",
"$$	c #B65967",
"%$	c #C36B7A",
"&$	c #FDA7C1",
"*$	c #E794AC",
"=$	c #9B3533",
"-$	c #E895AE",
";$	c #BA6370",
">$	c #D47E93",
",$	c #921828",
"'$	c #E891A7",
")$	c #865968",
"!$	c #573635",
"~$	c #AA454A",
"{$	c #B25A68",
"]$	c #C66E80",
"^$	c #CE7A8D",
"/$	c #A44244",
"($	c #FDA3BC",
"_$	c #BD7587",
":$	c #BB5D67",
"<$	c #B6565F",
"[$	c #FFB7D1",
"}$	c #FFADC6",
"|$	c #FFAAC4",
"1$	c #FFABC5",
"2$	c #FFB4CF",
"3$	c #B5535B",
"4$	c #FFB8D2",
"5$	c #482428",
"6$	c #D78FA2",
"7$	c #F09CB4",
"8$	c #D88197",
"9$	c #C06673",
"0$	c #E693AD",
"a$	c #E08DA4",
"b$	c #C76C7C",
"c$	c #94525D",
"d$	c #D991A4",
"e$	c #895A68",
"f$	c #181728",
"g$	c #231328",
"h$	c #A94449",
"i$	c #A24146",
"j$	c #DC879C",
"k$	c #EA96B0",
"l$	c #E793AB",
"m$	c #EE9AB3",
"n$	c #C36876",
"o$	c #F49EB6",
"p$	c #DA91A7",
"q$	c #7B1928",
"r$	c #691628",
"s$	c #B65C68",
"t$	c #9D596A",
"u$	c #EF9CB5",
"v$	c #C06570",
"w$	c #E893AB",
"x$	c #945562",
"y$	c #D58EA3",
"z$	c #875968",
"A$	c #C46E81",
"B$	c #9E302D",
"C$	c #C36E7F",
"D$	c #F6A1BC",
"E$	c #EC98B0",
"F$	c #F7A4BD",
"G$	c #EF95AD",
"H$	c #B17484",
"I$	c #191328",
"J$	c #6E3A43",
"K$	c #D37889",
"L$	c #F29EB6",
"M$	c #F29EB7",
"N$	c #C67283",
"O$	c #E690A4",
"P$	c #7F5E6A",
"Q$	c #A74F59",
"R$	c #FFB1C9",
"S$	c #CD7585",
"T$	c #FFAAC3",
"U$	c #FFACC6",
"V$	c #C0636F",
"W$	c #4D2728",
"X$	c #E68CA3",
"Y$	c #D27E90",
"Z$	c #C16879",
"`$	c #C66A7A",
" %	c #C86875",
".%	c #FFB2CB",
"+%	c #8A5C68",
"@%	c #CC8093",
"#%	c #441328",
"$%	c #A65A65",
"%%	c #C97787",
"&%	c #B16674",
"*%	c #CF6F7D",
". . . . . . . . . . . . . . . . . . . + @ # $ . . . . . . . . . . . . . . . . . . . ",
". . . . . . . . . . . . . . . . % & * = - ; > , , . . . . . . . . . . . . . . . . . ",
". . . . . . . . . . . . . . . ' ) ! ~ { ] ] ^ / ( _ . . . . . . . . . . . . . . . . ",
". . . . . . . . . . . . . . . . : < [ } | 1 2 3 4 . . . . . . . . . . . . . . . . . ",
". . . . . . . . . . . . . . . . . . 5 6 7 8 9 0 . . . . . . . . . . . . . . . . . . ",
". . . . . . . . . . . . . . . . . . a b c d e f . . . . . . . . . . . . . . . . . . ",
". . . . . . . . . . . . . . . . . . . g h i j . . . . . . . . . . . . . . . . . . . ",
". . . . . . . . . . . . . . . . . . . . k l . . . . . . . . . . . . . . . . . . . . ",
". . . . . . . . . . . . . . . . . . . m n o . . . . . . . . . . . . . . . . . . . . ",
". . . . . . . . . . . . . . . . . . . p q r . . . . . . . . . . . . . . . . . . . . ",
". . . . . . . . . . . . . . . . . . . s t u . . . . . . . . . . . . . . . . . . . . ",
". . . . . . . . . . . . . . . . . . . v w x # . . . . . . . . . . . . . . . . . . . ",
". . . . . . . . . . . . . . . . . . . y z A B . . . . . . . . . . . . . . . . . . . ",
". . . . . . . . . . . . . . . . . . . C D E F . . . . . . . . . . . . . . . . . . . ",
". . . . . . . . . . . . . . . . . . . G H I J . . . . . . . . . . . . . . . . . . . ",
". . . . . . . . . . . . . . . . . . . K L M N . . . . . . . . . . . . . . . . . . . ",
". . . . . . . . . . . . . . . . . . . O P Q R . . . . . . . . . . . . . . . . . . . ",
". . . . . . . . . . . . . . . . . . . S { T U . . . . . . . . . . . . . . . . . . . ",
". . . . . . . . . . . . . . . . . . V W X Y Z . . . . . . . . . . . . . . . . . . . ",
". . . . . . . . . . . . . . . . . . `  ...+.@.. . . . . . . . . . . . . . . . . . . ",
". . . . . . . . . . . . . . . . . . . #.{ $.%.. . . . . . . . . . . . . . . . . . . ",
". . . . . . . . . . . . . . . . . . . &.*.=.-.. . . . . . . . . . . . . . . . . . . ",
". . . . . . . . . . . . . . . . . . ;.>.,.'.).!.. . . . . . . . . . . . . . . . . . ",
". . . . . . . . . . . . . . . . . . ~.{.].^./.%.. . . . . . . . . . . . . . . . . . ",
". . . . . . . . (.-.. . . . . . . . _.:.<.[.}.|.. . . . . . . 1.2.3.. . . . . . . . ",
". . . . . . . . 4.5.6.7.8.. . . . . 9.0.a.. b.c.. . . . . d.e.f.g.h.. . . . . . . . ",
". . . . . . . i.j.k.l.m.n.o.p.q.r.s.t.u.v.w.x.y.z.A.B.C.D.E.F.G.H.I.J.. . . . . . . ",
". . . . . . J.K.L.M.N.O.P.Q.R.S.T.T.U.V.W.W.X.Y.T.Z.`. +.+++@+#+$+%+&+. . . . . . . ",
". *+. . . . =+-+;+>+,+'+)+!+~+{+]+^+/+O.O.O.N.^+O.'+(+_+:+<+[+}+|+1+2+. . . . 3+4+. ",
"5+6+. . . 7+8+9+'+0+a+b+c+d+e+f+g+h+i+j+k+l+m+n+o+p+(+q+r+s+t+u+v+w+x+y+. . . z+A+. ",
". B+. . . C+D+E+F+G+H+I+J+K+L+M+N+O+. . P+3.. . Q+R+S+T+U+U+V+W+X+Y+Z+`+. . .  @.@. ",
". +@. . @@#@$@%@&@^+*@=@-@;@>@,@% Z+'@)@!@~@{@]@^@/@(@e+{+_@:@<@[@}@%@|@1@. . . 2@. ",
". 3@4@5@6@7@8@9@0@a@b@c@d@e@f@g@h@i@j@k@l@m@..n@o@p@q@r@s@t@u@v@w@x@y@z@A@. B@C@D@. ",
". { E@F@G@H@I@J@K@L@M@N@O@P@Q@. R@S@T@U@V@W@X@. Y@Z@`@+@#+ #.#+#@###$#^+%#&#*#=#-#. ",
". ;#>#,#'#)#!#~#{#:+]#^#/#(#_#. :#<#[#}#|#1#2#3#4#. 5#6#7#8#9#0#a#b#c#d#e#f#g#h#. . ",
". i#j#k#l#m#P.n#o#p#p#'+q#r#s#. t#u#v#w#x#K@y#z#A#. B#C#D#E#a@p#F#G#H#I#J#K#L#M#. . ",
". N#O#P#Q#R#S#T#U#V#w#9+W#X#Y#. 8 Z#`#e# $.$#++$@$. #$$$%$&$Y+V#*$=$-$;$>$,$'$)$. . ",
". !$~${$]$^$V#O./$9+x+($_$. . . :$<$[$}$|$1$2$3$4$. . . 5$6$@$7$8$9$0$a$b$c$d$e$f$. ",
". g$h$i$j$k$l$m$n$o$p$. . . . . q$r$. . . . . . s$. . . . . t$u$v$x+'+.$w$x$y$z$. . ",
". A$B$C$D$E$F$G$H$I$. . . . . . . . . . . . . . . . . . . . . . J$K$|$L$M$N$O$P$Q$. ",
". R$@ S$T$U$V$. . . . . . . . . . . . . . . . . . . . . . . . . . . W$X$..Y$Z$`$ %. ",
". .%. +%@%#%. . . . . . . . . . . . . . . . . . . . . . . . . . . . . . $%%%. &%*%. "};
