/* XPM */
static char * C:\Users\User\Documents\42W\so_long\G04_xpm[] = {
"42 42 561 2",
"  	c None",
". 	c #181328",
"+ 	c #FFB2CB",
"@ 	c #8A5C68",
"# 	c #CC8093",
"$ 	c #441328",
"% 	c #A65A65",
"& 	c #C97787",
"* 	c #B16674",
"= 	c #CF6F7D",
"- 	c #FFB1C9",
"; 	c #2A1328",
"> 	c #CD7585",
", 	c #FFAAC3",
"' 	c #FFACC6",
") 	c #C0636F",
"! 	c #4D2728",
"~ 	c #E68CA3",
"{ 	c #FFACC7",
"] 	c #D27E90",
"^ 	c #C16879",
"/ 	c #C66A7A",
"( 	c #C86875",
"_ 	c #C46E81",
": 	c #9E302D",
"< 	c #C36E7F",
"[ 	c #F6A1BC",
"} 	c #EC98B0",
"| 	c #F7A4BD",
"1 	c #EF95AD",
"2 	c #B17484",
"3 	c #191328",
"4 	c #6E3A43",
"5 	c #D37889",
"6 	c #FFAAC4",
"7 	c #F29EB6",
"8 	c #F29EB7",
"9 	c #C67283",
"0 	c #E690A4",
"a 	c #7F5E6A",
"b 	c #A74F59",
"c 	c #231328",
"d 	c #A94449",
"e 	c #A24146",
"f 	c #DC879C",
"g 	c #EA96B0",
"h 	c #E793AB",
"i 	c #EE9AB3",
"j 	c #C36876",
"k 	c #F49EB6",
"l 	c #DA91A7",
"m 	c #7B1928",
"n 	c #691628",
"o 	c #B65C68",
"p 	c #9D596A",
"q 	c #EF9CB5",
"r 	c #C06570",
"s 	c #F39EB7",
"t 	c #E995AE",
"u 	c #E894AC",
"v 	c #E893AB",
"w 	c #945562",
"x 	c #D58EA3",
"y 	c #875968",
"z 	c #573635",
"A 	c #AA454A",
"B 	c #B25A68",
"C 	c #C66E80",
"D 	c #CE7A8D",
"E 	c #E490A9",
"F 	c #EA96AF",
"G 	c #A44244",
"H 	c #EF9AB3",
"I 	c #FDA3BC",
"J 	c #BD7587",
"K 	c #BB5D67",
"L 	c #B6565F",
"M 	c #FFB7D1",
"N 	c #FFADC6",
"O 	c #FFABC5",
"P 	c #FFB4CF",
"Q 	c #B5535B",
"R 	c #FFB8D2",
"S 	c #482428",
"T 	c #D78FA2",
"U 	c #FFA9C2",
"V 	c #F09CB4",
"W 	c #D88197",
"X 	c #C06673",
"Y 	c #E693AD",
"Z 	c #E08DA4",
"` 	c #C76C7C",
" .	c #94525D",
"..	c #D991A4",
"+.	c #895A68",
"@.	c #181728",
"#.	c #513332",
"$.	c #A94245",
"%.	c #BB6473",
"&.	c #D68295",
"*.	c #BC6472",
"=.	c #CF798D",
"-.	c #B9626E",
";.	c #D37F95",
">.	c #E591AA",
",.	c #D9859A",
"'.	c #D18698",
").	c #D1798C",
"!.	c #A64549",
"~.	c #9B393E",
"{.	c #F8A2BC",
"].	c #EA95AE",
"^.	c #E792AB",
"/.	c #F49FB9",
"(.	c #923034",
"_.	c #A0474E",
":.	c #B65967",
"<.	c #C36B7A",
"[.	c #FDA7C1",
"}.	c #E894AD",
"|.	c #E794AC",
"1.	c #9B3533",
"2.	c #E895AE",
"3.	c #BA6370",
"4.	c #D47E93",
"5.	c #921828",
"6.	c #E891A7",
"7.	c #865968",
"8.	c #3D2F2C",
"9.	c #A43C3F",
"0.	c #BF6C7E",
"a.	c #E691A9",
"b.	c #CA7385",
"c.	c #CC7587",
"d.	c #A34244",
"e.	c #E18EA5",
"f.	c #E18DA6",
"g.	c #B46576",
"h.	c #D38499",
"i.	c #DF8497",
"j.	c #9A3738",
"k.	c #923033",
"l.	c #F39EB9",
"m.	c #E28EA7",
"n.	c #E490A8",
"o.	c #F09AB4",
"p.	c #882228",
"q.	c #F9A4BD",
"r.	c #A53F44",
"s.	c #DA8195",
"t.	c #D28398",
"u.	c #AE6172",
"v.	c #E994AE",
"w.	c #E390AA",
"x.	c #C56D7C",
"y.	c #A84A51",
"z.	c #E28DA5",
"A.	c #C36A7A",
"B.	c #C8778A",
"C.	c #E08CA1",
"D.	c #855866",
"E.	c #873B43",
"F.	c #E18CA1",
"G.	c #BA6676",
"H.	c #F9A4BF",
"I.	c #D48095",
"J.	c #C87384",
"K.	c #D9849A",
"L.	c #C06674",
"M.	c #D68297",
"N.	c #E591AB",
"O.	c #C8788C",
"P.	c #AC5966",
"Q.	c #F09AB2",
"R.	c #D57B8D",
"S.	c #8F2528",
"T.	c #903033",
"U.	c #FAA5BF",
"V.	c #EE99B3",
"W.	c #EC96B0",
"X.	c #ED97B1",
"Y.	c #F8A3BD",
"Z.	c #8F2D32",
"`.	c #F8A2BB",
" +	c #9A3335",
".+	c #D1798A",
"++	c #C77D90",
"@+	c #AE6576",
"#+	c #EB96B0",
"$+	c #E692AB",
"%+	c #C46F81",
"&+	c #C46E80",
"*+	c #EA97AF",
"=+	c #B45963",
"-+	c #C27082",
";+	c #DD8A9D",
">+	c #E798AE",
",+	c #FFB5CF",
"'+	c #EF9BB1",
")+	c #801328",
"!+	c #CE7B8E",
"~+	c #F39FBA",
"{+	c #AE545C",
"]+	c #E491AA",
"^+	c #A34347",
"/+	c #EF9AB5",
"(+	c #C1768A",
"_+	c #A76170",
":+	c #F5A0BA",
"<+	c #CF7485",
"[+	c #CA7284",
"}+	c #831328",
"|+	c #781328",
"1+	c #691328",
"2+	c #631328",
"3+	c #671328",
"4+	c #791328",
"5+	c #F4A2BA",
"6+	c #7F1328",
"7+	c #891E28",
"8+	c #CA7181",
"9+	c #AB6475",
"0+	c #C57A8E",
"a+	c #D27B8E",
"b+	c #C06877",
"c+	c #E693AC",
"d+	c #A7494F",
"e+	c #ED99B2",
"f+	c #F4A0B9",
"g+	c #D48092",
"h+	c #8A1328",
"i+	c #FAA3BB",
"j+	c #CF7382",
"k+	c #FFB3CD",
"l+	c #941928",
"m+	c #3C1328",
"n+	c #AB7082",
"o+	c #F59EB7",
"p+	c #C16979",
"q+	c #A9494E",
"r+	c #DE89A1",
"s+	c #A14E56",
"t+	c #73383F",
"u+	c #E18AA1",
"v+	c #D9859B",
"w+	c #BD6471",
"x+	c #B45C69",
"y+	c #D08BA1",
"z+	c #841328",
"A+	c #FFADC8",
"B+	c #FCA6C0",
"C+	c #FDA5BF",
"D+	c #FDA6C0",
"E+	c #AD5460",
"F+	c #D38196",
"G+	c #B75F6B",
"H+	c #D47E90",
"I+	c #AE555F",
"J+	c #E08BA1",
"K+	c #A65764",
"L+	c #9D434B",
"M+	c #CF798B",
"N+	c #EA97B1",
"O+	c #B85C6A",
"P+	c #D68094",
"Q+	c #B95E69",
"R+	c #DF8EA4",
"S+	c #752028",
"T+	c #EF97AB",
"U+	c #D17382",
"V+	c #83383D",
"W+	c #C36471",
"X+	c #E590A7",
"Y+	c #E793AC",
"Z+	c #A64447",
"`+	c #BA626E",
" @	c #B46371",
".@	c #E28DA4",
"+@	c #E28FA5",
"@@	c #B65C66",
"#@	c #F39EB6",
"$@	c #681328",
"%@	c #F09BB4",
"&@	c #A64850",
"*@	c #994A53",
"=@	c #45323C",
"-@	c #504047",
";@	c #974A51",
">@	c #CC6F7F",
",@	c #E491A8",
"'@	c #751328",
")@	c #EE9AB2",
"!@	c #B0555F",
"~@	c #E490A7",
"{@	c #E590A8",
"]@	c #91464F",
"^@	c #D9899F",
"/@	c #B85F6A",
"(@	c #DD889F",
"_@	c #C56977",
":@	c #E599B0",
"<@	c #CA6D7C",
"[@	c #CA7383",
"}@	c #9E515D",
"|@	c #EF99B1",
"1@	c #EC98B1",
"2@	c #EB98B0",
"3@	c #9E3C3F",
"4@	c #72333B",
"5@	c #EB96AE",
"6@	c #DE8BA3",
"7@	c #E290A8",
"8@	c #B55A66",
"9@	c #ED99B1",
"0@	c #8C282B",
"a@	c #651328",
"b@	c #452E38",
"c@	c #261328",
"d@	c #E392A9",
"e@	c #8A3A40",
"f@	c #EA96AE",
"g@	c #AF5661",
"h@	c #E591A9",
"i@	c #994D57",
"j@	c #C97F93",
"k@	c #B35A65",
"l@	c #E698AF",
"m@	c #CD788C",
"n@	c #633640",
"o@	c #181428",
"p@	c #FFC4DD",
"q@	c #381328",
"r@	c #ED9BB3",
"s@	c #BE6471",
"t@	c #8F464D",
"u@	c #D88297",
"v@	c #B15A67",
"w@	c #BE6978",
"x@	c #E693AB",
"y@	c #E18CA2",
"z@	c #884045",
"A@	c #D68296",
"B@	c #DE8A9F",
"C@	c #FAA4BD",
"D@	c #EF98AF",
"E@	c #DD879C",
"F@	c #954A53",
"G@	c #C17285",
"H@	c #F09BB5",
"I@	c #E28FA7",
"J@	c #A1464F",
"K@	c #BF6A7A",
"L@	c #B25C69",
"M@	c #E0899E",
"N@	c #2C1328",
"O@	c #E594AD",
"P@	c #EB96AF",
"Q@	c #DA889D",
"R@	c #C7798D",
"S@	c #E38295",
"T@	c #CB7283",
"U@	c #C17082",
"V@	c #F49FB8",
"W@	c #EE99B2",
"X@	c #5E1328",
"Y@	c #EF99B3",
"Z@	c #C77183",
"`@	c #D68397",
" #	c #BA5F6C",
".#	c #EB97B1",
"+#	c #EC97B1",
"@#	c #EC97B0",
"##	c #B85F6C",
"$#	c #C97384",
"%#	c #ED9AB4",
"&#	c #C36A79",
"*#	c #B3555F",
"=#	c #F09CB5",
"-#	c #F5A2BA",
";#	c #933B3D",
">#	c #A33A3F",
",#	c #561328",
"'#	c #FDA8C1",
")#	c #CB798C",
"!#	c #B66D7D",
"~#	c #DE889E",
"{#	c #B05A69",
"]#	c #CD7687",
"^#	c #D58092",
"/#	c #D57F91",
"(#	c #D67D8F",
"_#	c #D37D8F",
":#	c #D77E91",
"<#	c #D98193",
"[#	c #D57E90",
"}#	c #CA7384",
"|#	c #C26A79",
"1#	c #DB869B",
"2#	c #CB7587",
"3#	c #EB96B1",
"4#	c #6B1328",
"5#	c #FBA6BF",
"6#	c #DD879B",
"7#	c #E68FA7",
"8#	c #8F1628",
"9#	c #FAA3BE",
"0#	c #F19CB5",
"a#	c #F59FBA",
"b#	c #DD879A",
"c#	c #F29AB1",
"d#	c #E0869B",
"e#	c #E48BA2",
"f#	c #B75760",
"g#	c #B3525B",
"h#	c #9A464C",
"i#	c #614044",
"j#	c #AA464D",
"k#	c #AA464F",
"l#	c #663D41",
"m#	c #1F3B3D",
"n#	c #B2545D",
"o#	c #B85961",
"p#	c #FFAFC9",
"q#	c #DA8093",
"r#	c #F099B0",
"s#	c #DA8397",
"t#	c #F39EB8",
"u#	c #F6A1BB",
"v#	c #C86E80",
"w#	c #DF879D",
"x#	c #E2879D",
"y#	c #F69FB6",
"z#	c #E597AE",
"A#	c #D98DA3",
"B#	c #994C59",
"C#	c #B75A63",
"D#	c #331428",
"E#	c #361728",
"F#	c #CB7988",
"G#	c #4F2A31",
"H#	c #B46F7F",
"I#	c #E499AF",
"J#	c #F09BB2",
"K#	c #FFA7BF",
"L#	c #A9464D",
"M#	c #592529",
"N#	c #451328",
"O#	c #733740",
"P#	c #CB6B78",
"Q#	c #BE5F6A",
"R#	c #9B3439",
"S#	c #CD7382",
"T#	c #4A2A31",
"U#	c #351328",
"V#	c #501628",
"W#	c #53333E",
"X#	c #F198B2",
"Y#	c #F19EB7",
"Z#	c #E08B9E",
"`#	c #BE606C",
" $	c #371328",
".$	c #5F3B44",
"+$	c #DD899B",
"@$	c #994F58",
"#$	c #B06673",
"$$	c #A14C54",
"%$	c #321328",
"&$	c #8A5B6A",
"*$	c #FFB6D1",
"=$	c #DB8192",
"-$	c #815765",
";$	c #D57B8B",
">$	c #1A1328",
",$	c #CB7483",
"'$	c #FFACC4",
")$	c #845562",
"!$	c #1E1328",
"~$	c #CC7484",
"{$	c #FFACC5",
"]$	c #FFADC7",
"^$	c #875866",
"/$	c #8D5C69",
"($	c #E28A9D",
"_$	c #541828",
":$	c #8A5B69",
"<$	c #FFB8D1",
"[$	c #DF8698",
"}$	c #4C1328",
"|$	c #7C4C58",
"1$	c #D77C8D",
"2$	c #9F3A40",
"3$	c #461328",
"4$	c #956574",
"5$	c #FCA3B9",
"6$	c #C2606B",
"7$	c #5E282D",
"8$	c #956575",
"9$	c #FCA3BA",
"0$	c #C4626E",
"a$	c #5F2B31",
"b$	c #986979",
"c$	c #FFA8C1",
"d$	c #CA6876",
"e$	c #643036",
"f$	c #68343C",
"g$	c #C76877",
"h$	c #98373C",
"i$	c #2F1328",
"j$	c #561828",
"k$	c #F69BB1",
"l$	c #BC8497",
"m$	c #5A2028",
"n$	c #F59AB0",
"o$	c #BA8295",
"p$	c #521328",
"q$	c #E2889A",
"r$	c #AA7283",
"s$	c #93515F",
"t$	c #8D515E",
"u$	c #B0545F",
"v$	c #C3636F",
"w$	c #C3626D",
"x$	c #83414A",
"y$	c #B15B69",
"z$	c #B65A65",
"A$	c #CA6E7E",
"B$	c #BF6572",
"C$	c #D57687",
"D$	c #40242C",
"E$	c #C1616C",
"F$	c #B2545E",
"G$	c #9F3E40",
"H$	c #B85962",
"I$	c #8A3437",
"J$	c #722128",
"K$	c #A85E6E",
"L$	c #DC869B",
"M$	c #A46B78",
"N$	c #7A1328",
"O$	c #A03434",
"P$	c #A25C6C",
"Q$	c #D07E93",
"R$	c #AA6473",
"S$	c #9C393B",
"T$	c #DF8499",
"U$	c #322828",
"V$	c #C76A77",
"W$	c #FFAEC7",
"X$	c #FFB8D3",
"Y$	c #58414D",
"Z$	c #A64449",
"`$	c #E1889E",
" %	c #B66574",
".%	c #9F525C",
"+%	c #892E2F",
"@%	c #A83F43",
"#%	c #AA4248",
"$%	c #741328",
"%%	c #B0616F",
"&%	c #441D28",
"*%	c #281328",
". + . @ # $ . . . . . . . . . . . . . . . . . . . . . . . . . . . . . . % & . * = . ",
". - ; > , ' ) . . . . . . . . . . . . . . . . . . . . . . . . . . . ! ~ { ] ^ / ( . ",
". _ : < [ } | 1 2 3 . . . . . . . . . . . . . . . . . . . . . . 4 5 6 7 8 9 0 a b . ",
". c d e f g h i j k l . . . . . m n . . . . . . o . . . . . p q r s t u v w x y . . ",
". z A B C D E F G H s I J . . . K L M N 6 O P Q R . . . S T U V W X Y Z `  ...+.@.. ",
". #.$.%.&.*.=.-.;.E >.H ,.'.).. !.~.{.].^.u /.(.U . _.:.<.[.}.E |.1.2.3.4.5.6.7.. . ",
". 8.9.0.a.b.c.d.e.f.f.t g.h.i.. j.k.l.>.m.n.o.p.q.. r.s.t.u.v.f.w.x.y.z.A.B.C.D.. . ",
". E.F.G.H.I.J.K.L.M.N.O.P.Q.R.. S.T.U.V.W.X.Y.Z.`..  +.+++@+#+$+%+&+*+=+].-+;+>+. . ",
". ,+'+)+!+~+{+]+n.^+/+(+_+:+<+. [+}+|+1+2+3+4+. 5+6+7+8+/.9+0+a+b+c+d+e+f+g+h+i+j+. ",
". k+l+m+n+o+p+q+r+v.s+t+u+v+w+x+y+z+A+B+C+D+{ E+F+G+H+I+J+K+L+M+N+O+P+Q+R+. S+T+U+. ",
". 8+. . V+W+X+Y+Z+e+`+ @.@+@@@#@$@%@&@*@=@-@;@>@,@'@)@!@~@{@]@^@/@(@Y+_@:@. . . <@. ",
". [@. . . }@|@1@2@3@4@5@6@7@8@9@0@a@. . b@c@. . d@e@f@g@h@h@i@j@k@}.%@l@. . . m@n@. ",
"o@p@. . . q@r@H t s@t@u@v@w@!@x@y@z@A@B@C@D@E@F@G@H@I@J@K@L@M@N@O@P@s Q@. . . R@S@. ",
". T@. . . . U@V@W@X@Y@t Z@`@ #~@.#e++#F F F @#e+F t I@##M.$#%#&#*#=#-#. . . . ;#>#. ",
". . . . . . ,#'#)#!#@#F c.~#{#]#^#^#/#(#_#_#:#<#^#[#}#|#1#2#3#/.4#5#6#. . . . . . . ",
". . . . . . . 7#8#9#0#a#b#c#d#e#f#g#h#i#j#k#l#m#n#o#p#q#r#s#t#u#v#w#,#. . . . . . . ",
". . . . . . . . x#y#z#A#B#. . . . . C#D#E#. F#G#. . . . . H#I#J#K#L#. . . . . . . . ",
". . . . . . . . M#N#. . . . . . . . O#P#Q#R#S#T#. . . . . . . U#V#c@. . . . . . . . ",
". . . . . . . . . . . . . . . . . . W#X#Y#Z#`# $. . . . . . . . . . . . . . . . . . ",
". . . . . . . . . . . . . . . . . . .$+$@$#$$$%$. . . . . . . . . . . . . . . . . . ",
". . . . . . . . . . . . . . . . . . . &$*$=$N#. . . . . . . . . . . . . . . . . . . ",
". . . . . . . . . . . . . . . . . . . -$,+;$ $. . . . . . . . . . . . . . . . . . . ",
". . . . . . . . . . . . . . . . . . >$,${ '$)$. . . . . . . . . . . . . . . . . . . ",
". . . . . . . . . . . . . . . . . . !$~${$]$^$. . . . . . . . . . . . . . . . . . . ",
". . . . . . . . . . . . . . . . . . . /$,+($_$. . . . . . . . . . . . . . . . . . . ",
". . . . . . . . . . . . . . . . . . . :$<$[$}$. . . . . . . . . . . . . . . . . . . ",
". . . . . . . . . . . . . . . . . . . |$1$2$3$. . . . . . . . . . . . . . . . . . . ",
". . . . . . . . . . . . . . . . . . . 4$5$6$7$. . . . . . . . . . . . . . . . . . . ",
". . . . . . . . . . . . . . . . . . . 8$9$0$a$. . . . . . . . . . . . . . . . . . . ",
". . . . . . . . . . . . . . . . . . . b$c$d$e$. . . . . . . . . . . . . . . . . . . ",
". . . . . . . . . . . . . . . . . . . f$g$h$i$. . . . . . . . . . . . . . . . . . . ",
". . . . . . . . . . . . . . . . . . . j$k$l$. . . . . . . . . . . . . . . . . . . . ",
". . . . . . . . . . . . . . . . . . . m$n$o$. . . . . . . . . . . . . . . . . . . . ",
". . . . . . . . . . . . . . . . . . . p$q$r$. . . . . . . . . . . . . . . . . . . . ",
". . . . . . . . . . . . . . . . . . . . s$t$. . . . . . . . . . . . . . . . . . . . ",
". . . . . . . . . . . . . . . . . . . u$v$w$x$. . . . . . . . . . . . . . . . . . . ",
". . . . . . . . . . . . . . . . . . y$z$A$B$C$D$. . . . . . . . . . . . . . . . . . ",
". . . . . . . . . . . . . . . . . . E$F$G$!.H$I$. . . . . . . . . . . . . . . . . . ",
". . . . . . . . . . . . . . . . J$K$L$M$N$O$P$Q$R$. . . . . . . . . . . . . . . . . ",
". . . . . . . . . . . . . . . S$T$U$V$,+W$W$X$Y$Z$`$. . . . . . . . . . . . . . . . ",
". . . . . . . . . . . . . . . . $@ %.%+%@%#%$%%%%%. . . . . . . . . . . . . . . . . ",
". . . . . . . . . . . . . . . . . . . &%; i$*%. . . . . . . . . . . . . . . . . . . "};
