/* XPM */
static char * C:\Users\User\Documents\42W\so_long\P01_xpm[] = {
"42 42 128 2",
"  	c None",
". 	c #181328",
"+ 	c #2E2E2E",
"@ 	c #1D1D28",
"# 	c #3D3D3D",
"$ 	c #383838",
"% 	c #4A4A4A",
"& 	c #464646",
"* 	c #313131",
"= 	c #3F4545",
"- 	c #1F1F28",
"; 	c #3E3E3E",
"> 	c #DDDBCC",
", 	c #B3B3B3",
"' 	c #EEEEEE",
") 	c #D8D8D8",
"! 	c #B4B4B4",
"~ 	c #C6C6C6",
"{ 	c #E8E8E8",
"] 	c #EAECEC",
"^ 	c #F6F8F8",
"/ 	c #F7F7F7",
"( 	c #F6F7F7",
"_ 	c #F6F6F6",
": 	c #E78A8A",
"< 	c #936863",
"[ 	c #252528",
"} 	c #414141",
"| 	c #B0B0B0",
"1 	c #E3E3E3",
"2 	c #E0E0E1",
"3 	c #E1E1E1",
"4 	c #2C2C2C",
"5 	c #8F8F8F",
"6 	c #D4D4D4",
"7 	c #C2C2C2",
"8 	c #D7D7D7",
"9 	c #FAF9F9",
"0 	c #F3CDCD",
"a 	c #F2D3D3",
"b 	c #ECECEC",
"c 	c #F2CCCC",
"d 	c #F1CACB",
"e 	c #F5DDDD",
"f 	c #F8EADD",
"g 	c #FAFAFA",
"h 	c #BABABA",
"i 	c #E98383",
"j 	c #9A6B63",
"k 	c #303028",
"l 	c #454545",
"m 	c #434343",
"n 	c #959595",
"o 	c #CBCBCB",
"p 	c #F0F0F0",
"q 	c #F9F9F9",
"r 	c #F7EBEB",
"s 	c #E0E0E0",
"t 	c #626262",
"u 	c #505050",
"v 	c #BDBDBD",
"w 	c #EAEAEA",
"x 	c #848484",
"y 	c #555555",
"z 	c #515858",
"A 	c #F3F3F3",
"B 	c #F8F8F8",
"C 	c #F5F5F5",
"D 	c #F5F6F6",
"E 	c #BEBEBE",
"F 	c #767676",
"G 	c #D0D0D0",
"H 	c #D6D6D6",
"I 	c #DDDDDD",
"J 	c #DEDEDE",
"K 	c #CECECE",
"L 	c #C9C9C9",
"M 	c #DFDFDF",
"N 	c #CCCCCC",
"O 	c #5D5D5D",
"P 	c #FFFFFF",
"Q 	c #666666",
"R 	c #E6E6E6",
"S 	c #EBEBEB",
"T 	c #A2A2A2",
"U 	c #333333",
"V 	c #888888",
"W 	c #B8B8B8",
"X 	c #2D2D2D",
"Y 	c #747474",
"Z 	c #4D4D4D",
"` 	c #F4F4F4",
" .	c #EDEDED",
"..	c #ADADAD",
"+.	c #9A9A9A",
"@.	c #DADADA",
"#.	c #DCDCDC",
"$.	c #E5E5E5",
"%.	c #E7E7E7",
"&.	c #A8A8A8",
"*.	c #441328",
"=.	c #E9E9E9",
"-.	c #FBFDFD",
";.	c #F8F9F9",
">.	c #381328",
",.	c #551328",
"'.	c #C0C0C0",
").	c #C4C4C4",
"!.	c #FAD5D6",
"~.	c #FBD6D6",
"{.	c #F9D4D5",
"].	c #F39797",
"^.	c #F9D4D4",
"/.	c #F7BE97",
"(.	c #F1E5E5",
"_.	c #DBDBDB",
":.	c #674028",
"<.	c #664028",
"[.	c #2C2C28",
"}.	c #676767",
"|.	c #FBFBFB",
"1.	c #8E8E8E",
"2.	c #5E1328",
"3.	c #1B1B28",
"4.	c #7F7F7F",
"5.	c #949494",
"6.	c #D2D2D2",
"7.	c #868686",
". . . . . . . . . . . . . . . . . . . . . . . . . . . . . . . . . . . . . . . . . . ",
". . . . . . . . . . . . . . . . . . . . . . . . . . . . . . . . . . . . . . . . . . ",
". . . . . . . . . . . . . . . . . . . . . . . . . . . . . . . . . . . . . . . . . . ",
". . . . . . . . . . . . . . . . . . . . . . . . . . . . . . . . . . . . . . . . . . ",
". . . . . . . . . . . . . . . . . . . . . . . . . . . . . . . . . . . . . . . . . . ",
". . . . . . . . . . . . . . . . . . . . . . . . . . . . . . . . . . . . . . . . . . ",
". . . . . . . . . . . . . . . . . . . . . . . . . . . . . . . . . . . . . . . . . . ",
". . . . . . . . . . . . . . . . . . . . . . . . . . . . . . . . . . . . . . . . . . ",
". . . . . . . . . . . . . . . . . . . . . . . . . . . . . . . . . . . . . . . . . . ",
". . . . . . . . . . . . . . . . . . . . . . . . . . . . . . . . . . . . . . . . . . ",
". . . . . . . . . . . . . . . . . . . . . . . . . . . . . . . . . . . . . . . . . . ",
". . . . . . . . . . . . . . . . . . . . . . . . . . . . . . . . . . . . . . . . . . ",
". . . . . . . . . . . . . . . . . . . . . . . . . . . . . . . . . . . . . . . . . . ",
". . . . . . . . . . . . . . . . . . . . . . . . . . . . . . . . . . . . . . . . . . ",
". . . . . . . . . . . . . . . . . . . . . . . . . . . . . . . + @ . . . . . . . . . ",
"# $ % & & % # # # # # # # # # # # * = . . . . . . . . . . - ; > , - . . . . . . . . ",
"' ) ! ~ { ] ^ / / ^ ^ ^ ^ ^ ( ( _ ! : < [ . . . . . . . } | 1 2 3 | 4 . . . . . . . ",
"5 6 7 8 9 0 a 3 b 0 0 0 c d e f g h i j k l m m m m n o p _ q r q _ s o t m m m l . ",
". [ u u u u u u u u u u v w x u u y z . . 6 ' A B B _ C C C C D C C C C / B A ' 6 . ",
". . . . . . . . . . . . E C F . . . . . . 5 G H I J K L L K M J J J N L L L 7 h O . ",
". . . . . . . . . . . . E P F . . . . . Q R S B { T U . . U V W W V X . . . . . . . ",
". . . . . . . . . . . . v P Y . . . Z Y ` b  .... . . . . . . . . . . . . . . . . . ",
". . . . . . . . . +.@.@.#.w H @.@.@.q $.I J %.q &.4 . *.. . . . . . . . . . . . . . ",
". . . . . . . . . @._ q g / P P ` =.` P P P -.;.w E >.,.. . . . . . . . . . . . . . ",
". . . . . . . . . '.)._ P A q A !.~.{.].].^./.(.%._.:.<.[.. . . . . . . . . . . . . ",
". . . . . . . . . . . }.7 8 q q ( ( P P P P P |.J 1.. 2.. . . . . . . . . . . . . . ",
". . . . . . . . . . . . . 3.4.5.5.5.6.6.6.6.6.6.7.. . . . . . . . . . . . . . . . . ",
". . . . . . . . . . . . . . . . . . . . . . . . . . . . . . . . . . . . . . . . . . ",
". . . . . . . . . . . . . . . . . . . . . . . . . . . . . . . . . . . . . . . . . . ",
". . . . . . . . . . . . . . . . . . . . . . . . . . . . . . . . . . . . . . . . . . ",
". . . . . . . . . . . . . . . . . . . . . . . . . . . . . . . . . . . . . . . . . . ",
". . . . . . . . . . . . . . . . . . . . . . . . . . . . . . . . . . . . . . . . . . ",
". . . . . . . . . . . . . . . . . . . . . . . . . . . . . . . . . . . . . . . . . . ",
". . . . . . . . . . . . . . . . . . . . . . . . . . . . . . . . . . . . . . . . . . ",
". . . . . . . . . . . . . . . . . . . . . . . . . . . . . . . . . . . . . . . . . . ",
". . . . . . . . . . . . . . . . . . . . . . . . . . . . . . . . . . . . . . . . . . ",
". . . . . . . . . . . . . . . . . . . . . . . . . . . . . . . . . . . . . . . . . . ",
". . . . . . . . . . . . . . . . . . . . . . . . . . . . . . . . . . . . . . . . . . ",
". . . . . . . . . . . . . . . . . . . . . . . . . . . . . . . . . . . . . . . . . . ",
". . . . . . . . . . . . . . . . . . . . . . . . . . . . . . . . . . . . . . . . . . ",
". . . . . . . . . . . . . . . . . . . . . . . . . . . . . . . . . . . . . . . . . . ",
". . . . . . . . . . . . . . . . . . . . . . . . . . . . . . . . . . . . . . . . . . "};
