/* XPM */
static char * C:\Users\User\Documents\42W\so_long\P02_xpm[] = {
"42 42 128 2",
"  	c None",
". 	c #181328",
"+ 	c #1D1D28",
"@ 	c #2E2E2E",
"# 	c #1F1F28",
"$ 	c #B3B3B3",
"% 	c #DDDBCC",
"& 	c #3E3E3E",
"* 	c #3F4545",
"= 	c #313131",
"- 	c #3D3D3D",
"; 	c #4A4A4A",
"> 	c #464646",
", 	c #383838",
"' 	c #2C2C2C",
") 	c #B0B0B0",
"! 	c #E1E1E1",
"~ 	c #E0E0E1",
"{ 	c #E3E3E3",
"] 	c #414141",
"^ 	c #252528",
"/ 	c #936863",
"( 	c #E78A8A",
"_ 	c #B4B4B4",
": 	c #F6F6F6",
"< 	c #F6F7F7",
"[ 	c #F6F8F8",
"} 	c #F7F7F7",
"| 	c #EAECEC",
"1 	c #E8E8E8",
"2 	c #C6C6C6",
"3 	c #D8D8D8",
"4 	c #EEEEEE",
"5 	c #454545",
"6 	c #434343",
"7 	c #626262",
"8 	c #CBCBCB",
"9 	c #E0E0E0",
"0 	c #F9F9F9",
"a 	c #F7EBEB",
"b 	c #F0F0F0",
"c 	c #959595",
"d 	c #303028",
"e 	c #9A6B63",
"f 	c #E98383",
"g 	c #BABABA",
"h 	c #FAFAFA",
"i 	c #F8EADD",
"j 	c #F5DDDD",
"k 	c #F1CACB",
"l 	c #F2CCCC",
"m 	c #F3CDCD",
"n 	c #ECECEC",
"o 	c #F2D3D3",
"p 	c #FAF9F9",
"q 	c #D7D7D7",
"r 	c #C2C2C2",
"s 	c #D4D4D4",
"t 	c #8F8F8F",
"u 	c #F3F3F3",
"v 	c #F8F8F8",
"w 	c #F5F5F5",
"x 	c #F5F6F6",
"y 	c #515858",
"z 	c #555555",
"A 	c #505050",
"B 	c #848484",
"C 	c #EAEAEA",
"D 	c #BDBDBD",
"E 	c #5D5D5D",
"F 	c #C9C9C9",
"G 	c #CCCCCC",
"H 	c #DEDEDE",
"I 	c #DFDFDF",
"J 	c #CECECE",
"K 	c #DDDDDD",
"L 	c #D6D6D6",
"M 	c #D0D0D0",
"N 	c #767676",
"O 	c #BEBEBE",
"P 	c #2D2D2D",
"Q 	c #888888",
"R 	c #B8B8B8",
"S 	c #333333",
"T 	c #A2A2A2",
"U 	c #EBEBEB",
"V 	c #E6E6E6",
"W 	c #666666",
"X 	c #FFFFFF",
"Y 	c #ADADAD",
"Z 	c #EDEDED",
"` 	c #F4F4F4",
" .	c #747474",
"..	c #4D4D4D",
"+.	c #441328",
"@.	c #A8A8A8",
"#.	c #E7E7E7",
"$.	c #E5E5E5",
"%.	c #DADADA",
"&.	c #DCDCDC",
"*.	c #9A9A9A",
"=.	c #551328",
"-.	c #381328",
";.	c #F8F9F9",
">.	c #FBFDFD",
",.	c #E9E9E9",
"'.	c #2C2C28",
").	c #664028",
"!.	c #674028",
"~.	c #DBDBDB",
"{.	c #F1E5E5",
"].	c #F7BE97",
"^.	c #F9D4D4",
"/.	c #F39797",
"(.	c #F9D4D5",
"_.	c #FBD6D6",
":.	c #FAD5D6",
"<.	c #C4C4C4",
"[.	c #C0C0C0",
"}.	c #5E1328",
"|.	c #8E8E8E",
"1.	c #FBFBFB",
"2.	c #676767",
"3.	c #868686",
"4.	c #D2D2D2",
"5.	c #949494",
"6.	c #7F7F7F",
"7.	c #1B1B28",
". . . . . . . . . . . . . . . . . . . . . . . . . . . . . . . . . . . . . . . . . . ",
". . . . . . . . . . . . . . . . . . . . . . . . . . . . . . . . . . . . . . . . . . ",
". . . . . . . . . . . . . . . . . . . . . . . . . . . . . . . . . . . . . . . . . . ",
". . . . . . . . . . . . . . . . . . . . . . . . . . . . . . . . . . . . . . . . . . ",
". . . . . . . . . . . . . . . . . . . . . . . . . . . . . . . . . . . . . . . . . . ",
". . . . . . . . . . . . . . . . . . . . . . . . . . . . . . . . . . . . . . . . . . ",
". . . . . . . . . . . . . . . . . . . . . . . . . . . . . . . . . . . . . . . . . . ",
". . . . . . . . . . . . . . . . . . . . . . . . . . . . . . . . . . . . . . . . . . ",
". . . . . . . . . . . . . . . . . . . . . . . . . . . . . . . . . . . . . . . . . . ",
". . . . . . . . . . . . . . . . . . . . . . . . . . . . . . . . . . . . . . . . . . ",
". . . . . . . . . . . . . . . . . . . . . . . . . . . . . . . . . . . . . . . . . . ",
". . . . . . . . . . . . . . . . . . . . . . . . . . . . . . . . . . . . . . . . . . ",
". . . . . . . . . . . . . . . . . . . . . . . . . . . . . . . . . . . . . . . . . . ",
". . . . . . . . . . . . . . . . . . . . . . . . . . . . . . . . . . . . . . . . . . ",
". . . . . . . . . + @ . . . . . . . . . . . . . . . . . . . . . . . . . . . . . . . ",
". . . . . . . . # $ % & # . . . . . . . . . . * = - - - - - - - - - - - ; > > ; , - ",
". . . . . . . ' ) ! ~ { ) ] . . . . . . . ^ / ( _ : < < [ [ [ [ [ } } [ | 1 2 _ 3 4 ",
". 5 6 6 6 7 8 9 : 0 a 0 : b 8 c 6 6 6 6 5 d e f g h i j k l m m m n ! o m p q r s t ",
". s 4 u v } w w w w x w w w w : v v u 4 s . . y z A A B C D A A A A A A A A A A ^ . ",
". E g r F F F G H H H I J F F J H K L M t . . . . . . N w O . . . . . . . . . . . . ",
". . . . . . . P Q R R Q S . . S T 1 v U V W . . . . . N X O . . . . . . . . . . . . ",
". . . . . . . . . . . . . . . . . . Y Z n `  .... . .  .X D . . . . . . . . . . . . ",
". . . . . . . . . . . . . . +.. ' @.0 #.H K $.0 %.%.%.L C &.%.%.*.. . . . . . . . . ",
". . . . . . . . . . . . . . =.-.O C ;.>.X X X ` ,.` X X } h 0 : %.. . . . . . . . . ",
". . . . . . . . . . . . . '.).!.~.#.{.].^././.(._.:.u 0 u X : <.[.. . . . . . . . . ",
". . . . . . . . . . . . . . }.. |.H 1.X X X X X < < 0 0 q r 2.. . . . . . . . . . . ",
". . . . . . . . . . . . . . . . . 3.4.4.4.4.4.4.5.5.5.6.7.. . . . . . . . . . . . . ",
". . . . . . . . . . . . . . . . . . . . . . . . . . . . . . . . . . . . . . . . . . ",
". . . . . . . . . . . . . . . . . . . . . . . . . . . . . . . . . . . . . . . . . . ",
". . . . . . . . . . . . . . . . . . . . . . . . . . . . . . . . . . . . . . . . . . ",
". . . . . . . . . . . . . . . . . . . . . . . . . . . . . . . . . . . . . . . . . . ",
". . . . . . . . . . . . . . . . . . . . . . . . . . . . . . . . . . . . . . . . . . ",
". . . . . . . . . . . . . . . . . . . . . . . . . . . . . . . . . . . . . . . . . . ",
". . . . . . . . . . . . . . . . . . . . . . . . . . . . . . . . . . . . . . . . . . ",
". . . . . . . . . . . . . . . . . . . . . . . . . . . . . . . . . . . . . . . . . . ",
". . . . . . . . . . . . . . . . . . . . . . . . . . . . . . . . . . . . . . . . . . ",
". . . . . . . . . . . . . . . . . . . . . . . . . . . . . . . . . . . . . . . . . . ",
". . . . . . . . . . . . . . . . . . . . . . . . . . . . . . . . . . . . . . . . . . ",
". . . . . . . . . . . . . . . . . . . . . . . . . . . . . . . . . . . . . . . . . . ",
". . . . . . . . . . . . . . . . . . . . . . . . . . . . . . . . . . . . . . . . . . ",
". . . . . . . . . . . . . . . . . . . . . . . . . . . . . . . . . . . . . . . . . . ",
". . . . . . . . . . . . . . . . . . . . . . . . . . . . . . . . . . . . . . . . . . "};
