/* XPM */
static char * C:\Users\User\Documents\42W\so_long\P04_xpm[] = {
"42 42 234 2",
"  	c None",
". 	c #181328",
"+ 	c #595959",
"@ 	c #303030",
"# 	c #737373",
"$ 	c #AEAEAE",
"% 	c #939393",
"& 	c #707070",
"* 	c #9D9D9D",
"= 	c #B0B0B0",
"- 	c #FFFFFF",
"; 	c #555555",
"> 	c #EBEBEB",
", 	c #C3C3C3",
"' 	c #6B6B6B",
") 	c #F8F8F8",
"! 	c #C2C2C2",
"~ 	c #6A6A6A",
"{ 	c #F7F7F7",
"] 	c #A7A7A7",
"^ 	c #FDFDFD",
"/ 	c #484848",
"( 	c #E5E5E5",
"_ 	c #676767",
": 	c #C1C1C1",
"< 	c #686868",
"[ 	c #696969",
"} 	c #4C4D4D",
"| 	c #6F7070",
"1 	c #C5C5C5",
"2 	c #BFA6A6",
"3 	c #DFCBCB",
"4 	c #5F5F5F",
"5 	c #EEEFEF",
"6 	c #F3F5F5",
"7 	c #545454",
"8 	c #F5F5F5",
"9 	c #CECECE",
"0 	c #CFCFCF",
"a 	c #CCCCCC",
"b 	c #CDCDCD",
"c 	c #F2F2F2",
"d 	c #D0D0D0",
"e 	c #C9C9C9",
"f 	c #F4F4F4",
"g 	c #C0C0C0",
"h 	c #F9F9F9",
"i 	c #D5D5D5",
"j 	c #DDDDDD",
"k 	c #DEDEDE",
"l 	c #DADADA",
"m 	c #BEBEBE",
"n 	c #F3F3F3",
"o 	c #F5F6F6",
"p 	c #232428",
"q 	c #343434",
"r 	c #373737",
"s 	c #2E2F2F",
"t 	c #757575",
"u 	c #BCBCBC",
"v 	c #282828",
"w 	c #353636",
"x 	c #363636",
"y 	c #2B2C2C",
"z 	c #6B6C6C",
"A 	c #C1C2C2",
"B 	c #6D6F6F",
"C 	c #EDEEEE",
"D 	c #E1E3E3",
"E 	c #BEBFBF",
"F 	c #F6F6F6",
"G 	c #B2B4B4",
"H 	c #B4B5B5",
"I 	c #707373",
"J 	c #EDDBDB",
"K 	c #E2D5D5",
"L 	c #EEEEEE",
"M 	c #575858",
"N 	c #B4ACAC",
"O 	c #B5ADAD",
"P 	c #4A5051",
"Q 	c #FD4C47",
"R 	c #DD7272",
"S 	c #626363",
"T 	c #9E6969",
"U 	c #FF3128",
"V 	c #9F6B6C",
"W 	c #48572D",
"X 	c #E3E4E4",
"Y 	c #D3D3D3",
"Z 	c #B1B1B1",
"` 	c #5A5B5B",
" .	c #566648",
"..	c #9B9B9B",
"+.	c #D6D6D6",
"@.	c #CECFCF",
"#.	c #ABABAB",
"$.	c #E2E2E2",
"%.	c #A3A3A3",
"&.	c #525253",
"*.	c #868686",
"=.	c #EDEDED",
"-.	c #E1E1E1",
";.	c #EFF0F0",
">.	c #D9DADA",
",.	c #AAACAC",
"'.	c #F1F1F2",
").	c #EAEBEB",
"!.	c #FCFCFC",
"~.	c #B9B9B9",
"{.	c #FAFAFA",
"].	c #E3E4D0",
"^.	c #EEF0F0",
"/.	c #E3C7C7",
"(.	c #CAA7A7",
"_.	c #E3E3E4",
":.	c #F6F6E4",
"<.	c #F3F4F4",
"[.	c #D9D9D9",
"}.	c #A9A9A9",
"|.	c #F1F1F1",
"1.	c #F7F8F8",
"2.	c #E6E7E9",
"3.	c #F7F9F9",
"4.	c #F6C0C0",
"5.	c #E6ABAB",
"6.	c #F5F6F7",
"7.	c #E5E6E6",
"8.	c #F7F8F9",
"9.	c #F2F2F3",
"0.	c #ECECEC",
"a.	c #DFDFDF",
"b.	c #7A7A7A",
"c.	c #F8F9F9",
"d.	c #E2E3E3",
"e.	c #EDEFEF",
"f.	c #F7C5C5",
"g.	c #E5AAAB",
"h.	c #F0F3F3",
"i.	c #FBFBFB",
"j.	c #C8C8C8",
"k.	c #DBDBDB",
"l.	c #F1F2F2",
"m.	c #F6F7F7",
"n.	c #DBDCDD",
"o.	c #F5C0C0",
"p.	c #E5AAAA",
"q.	c #ECEFEF",
"r.	c #DDDEDE",
"s.	c #F0F1F1",
"t.	c #606061",
"u.	c #D7D7D7",
"v.	c #EAEAEA",
"w.	c #F0F0F0",
"x.	c #ECEDED",
"y.	c #EBECEC",
"z.	c #E2E4E5",
"A.	c #F5BDBF",
"B.	c #E59197",
"C.	c #F4F5F6",
"D.	c #EFEFEF",
"E.	c #E9E9E9",
"F.	c #ADADAD",
"G.	c #FAFAFB",
"H.	c #DDDDDE",
"I.	c #E6E7E7",
"J.	c #D8DADA",
"K.	c #FAF8E7",
"L.	c #F6EFC9",
"M.	c #E1E2E3",
"N.	c #E6E6E6",
"O.	c #E5E5E6",
"P.	c #D6D6D7",
"Q.	c #CBCBCC",
"R.	c #ECEDEE",
"S.	c #E9EAEA",
"T.	c #FBFBFD",
"U.	c #F7F7F8",
"V.	c #EBEBEC",
"W.	c #F5F5F6",
"X.	c #6F6F70",
"Y.	c #C7C79C",
"Z.	c #E0E0BD",
"`.	c #DCDCDD",
" +	c #DCDCDC",
".+	c #E4E4E4",
"++	c #E6E6BF",
"@+	c #D0D0D1",
"#+	c #C5C5C6",
"$+	c #EEEEC8",
"%+	c #ECECED",
"&+	c #E2E293",
"*+	c #B7B7B8",
"=+	c #6D6D6F",
"-+	c #CACAB1",
";+	c #F1F1DD",
">+	c #EEEEEF",
",+	c #EDEDEE",
"'+	c #E4E4E5",
")+	c #EAEAEB",
"!+	c #E0E0E1",
"~+	c #E6E6E8",
"{+	c #EFEFF0",
"]+	c #F4F4C8",
"^+	c #B8B8B9",
"/+	c #707071",
"(+	c #C3C3C4",
"_+	c #B3B3B4",
":+	c #E0E0E0",
"<+	c #E7E7E7",
"[+	c #E3E3E3",
"}+	c #D7D7D8",
"|+	c #949494",
"1+	c #F4F4F5",
"2+	c #242428",
"3+	c #E8E8E8",
"4+	c #959595",
"5+	c #AFAFAF",
"6+	c #1B1B28",
"7+	c #818182",
"8+	c #181628",
"9+	c #818181",
"0+	c #181428",
"a+	c #BBBBBB",
"b+	c #E7E7E8",
"c+	c #7F7F7F",
"d+	c #8F8F8F",
"e+	c #EBEBDB",
"f+	c #D4D4C1",
"g+	c #646464",
"h+	c #A6A6A6",
"i+	c #BDBDBC",
"j+	c #B2B2B1",
"k+	c #626263",
". . . . . . . . . . . . + @ . . . . . . . . . . . . . # . . . . . . . . . . . . . . ",
". . . . . . . . . . . . $ % . . . . . . . . . . . . & * & . . . . . . . . . . . . . ",
". . . . . . . . . . . = - - ; . . . . . . . . . . . > - > . . . . . . . . . . . . . ",
". . . . . . . . . . . , - - ' . . . . . . . . . . . ) - ) . . . . . . . . . . . . . ",
". . . . . . . . . . . ! - - ~ . . . . . . . . . . . { - { . . . . . . . . . . . . . ",
". . . . . . . . . . . ] - ^ / . . . . . . . . . . . ( - ( . . . . . . . . . . . . . ",
". . . . . . . . . . . _ - { . . . . . . . . . . . . : - : . . . . . . . . . . . . . ",
". . . . . . . . . . . < - { . . . . . . . . . . . . : - : . . . . . . . . . . . . . ",
". . . . . . . . . . . [ - { . . . . . . . . . . . . ! - ! . . . . . . . . . . . . . ",
". . . . . . . . . . . [ - { . . . . . . . . . . . . ! - ! . . . . . . . . . . . . . ",
". . . . . . . . . . . [ - { . . . . . . . . . . . . : - ! . . . . . . . . . . . . . ",
". . . . . . . . . . . < - ) . . . . . } | . . . . . 1 - : . . . . . . . . . . . . . ",
". . . . . . . . . . . _ - - < . . . . 2 3 . . . . . { - : . . . . . . . . . . . . . ",
". . . . . . . . . . . _ - - 4 . . . . 5 6 7 . . . . 8 - : . . . . . . . . . . . . . ",
". . . . . . . . . . . _ - - 1 9 0 a b c > 0 0 d 0 e f - g . . . . . . . . . . . . . ",
". . . . . . . . . . . _ - h i j k ! l j k m j k k : n - : . . . . . . . . . . . . . ",
". . . . . . . . . . . [ - o p q r s t - f u v w x y 1 - ! . . . . . . . . . . . . . ",
". . . . . . . . . . . z - { . . . . & - n 1 . . . . A - , . . . . . . . . . . . . . ",
". . . . . . . . . . . B C D . . . . E - c F . . . . G C H . . . . . . . . . . . . . ",
". . . . . . . . . . . I J K . . . . L - c - M . . . N J O . . . . . . . . . . . . . ",
". . . . . . . . . . . P Q R . . . . F n f - S . . . T U V . . . . . . . . . . . . . ",
". . . . . . . . . . . . W . . . . . X Y Z ) ` . . . .  .. . . . . . . . . . . . . . ",
". . . . . . . . . . . . . . . . ..+.- @.#.n $.%.&.. . . . . . . . . . . . . . . . . ",
". . . . . . . . . . . . . . *.=.- -.;.>.,.f '.).!.~.. . . . . . . . . . . . . . . . ",
". . . . . . . . . . . . . ] {.) 8 ].^./.(.^._.:.<.{ [.. . . . . . . . . . . . . . . ",
". . . . . . . . . . . . }.8 |.1.n 2.3.4.5.6.7.8.9.F 0.a.. . . . . . . . . . . . . . ",
". . . . . . . . . . . b.- |.( c.;.d.e.f.g.h.X =.i.X L - j.. . . . . . . . . . . . . ",
". . . . . . . . . . . k.^ ) l.-.m.n.^.o.p.q.r.s.=.<.9.|.- x . . . . . . . . . . . . ",
". . . . . . . . . . t.- u.v.w.n x.y.z.A.B.C.>.L =.=.D.E.=.u . . . . . . . . . . . . ",
". . . . . . . . . . = F.G.0.H.=.L I.J.K.L.M.).k 8 N.O.|.P.e . . . . . . . . . . . . ",
". . . . . . . . . . a Q.9.w.w.L ( - R.8.S.T.U.V.L w.D.|.W.~.X.. . . . . . . . . . . ",
". . . . . . . . . . j.Y.Z.k `. +.+- ++@+#+$+%+x. + +j a.&+*+=+. . . . . . . . . . . ",
". . . . . . . . . . @+-+;+>+,+=.N.- '+)+!+~+i.N.L =.L {+]+^+/+. . . . . . . . . . . ",
". . . . . . . . . . (+_+|.F :+( > <+- %+%+{.w.f [++.D.w.}+[.. . . . . . . . . . . . ",
". . . . . . . . . . |+- 0.a.0.=.0.0.k D.|.%+( j L f O.v.1+l . . . . . . . . . . . . ",
". . . . . . . . . . 2+w.3+F F L 0.( .+=.j L k.=.=.1+L |.n 4+. . . . . . . . . . . . ",
". . . . . . . . . . . 5+- c k f L .+L =.k L j 8 f a.) h v.. . . . . . . . . . . . . ",
". . . . . . . . . . . 6+c n w.L ^ j L L k L j !.D.F $.- 7+. . . . . . . . . . . . . ",
". . . . . . . . . . . . 8+3+{.|.{ k D.^ D.D.a.D.) c F 9+. . . . . . . . . . . . . . ",
". . . . . . . . . . . . . 0+:+- |.!+- j a+- b+v.- { c+. . . . . . . . . . . . . . . ",
". . . . . . . . . . . . . . . d+{ !.{.e+f+c - L ! . . . . . . . . . . . . . . . . . ",
". . . . . . . . . . . . . . . . . g+h+i+j+m k+. . . . . . . . . . . . . . . . . . . "};
