/* XPM */
static char * C:\Users\User\Documents\42W\so_long\W03_xpm[] = {
"42 42 934 2",
"  	c None",
". 	c #181328",
"+ 	c #1C1328",
"@ 	c #1B1328",
"# 	c #1A1328",
"$ 	c #191328",
"% 	c #182945",
"& 	c #236491",
"* 	c #646464",
"= 	c #A6A6A6",
"- 	c #BDBDBC",
"; 	c #B2B2B1",
"> 	c #BEBEBE",
", 	c #626263",
"' 	c #1E6191",
") 	c #1C5E91",
"! 	c #346196",
"~ 	c #18254A",
"{ 	c #181329",
"] 	c #18132C",
"^ 	c #8F8F8F",
"/ 	c #F7F7F7",
"( 	c #FCFCFC",
"_ 	c #FAFAFA",
": 	c #EBEBDB",
"< 	c #D4D4C1",
"[ 	c #F2F2F2",
"} 	c #FFFFFF",
"| 	c #EEEEEE",
"1 	c #C2C2C2",
"2 	c #3984CB",
"3 	c #183B6C",
"4 	c #18132B",
"5 	c #18446D",
"6 	c #4389CB",
"7 	c #E0E0E0",
"8 	c #F1F1F1",
"9 	c #E0E0E1",
"0 	c #DDDDDD",
"a 	c #BBBBBB",
"b 	c #E7E7E8",
"c 	c #EAEAEA",
"d 	c #7F7F7F",
"e 	c #3689CF",
"f 	c #4589C6",
"g 	c #18436A",
"h 	c #182C4F",
"i 	c #265883",
"j 	c #185987",
"k 	c #18538B",
"l 	c #E8E8E8",
"m 	c #DEDEDE",
"n 	c #EFEFEF",
"o 	c #FDFDFD",
"p 	c #DFDFDF",
"q 	c #F8F8F8",
"r 	c #F6F6F6",
"s 	c #818181",
"t 	c #1875BE",
"u 	c #1D629B",
"v 	c #25598A",
"w 	c #265A87",
"x 	c #222B4D",
"y 	c #1A507E",
"z 	c #3288C6",
"A 	c #205378",
"B 	c #F3F3F3",
"C 	c #F0F0F0",
"D 	c #E2E2E2",
"E 	c #818182",
"F 	c #187EC9",
"G 	c #278ACC",
"H 	c #2F89CB",
"I 	c #1E4C7E",
"J 	c #3682B2",
"K 	c #1E7AB7",
"L 	c #1868B2",
"M 	c #AFAFAF",
"N 	c #F4F4F4",
"O 	c #E4E4E4",
"P 	c #EDEDED",
"Q 	c #F5F5F5",
"R 	c #F9F9F9",
"S 	c #1859AE",
"T 	c #1867B8",
"U 	c #1867B6",
"V 	c #187ABD",
"W 	c #3A80B3",
"X 	c #182E4D",
"Y 	c #185578",
"Z 	c #449683",
"` 	c #3E947B",
" .	c #242424",
"..	c #ECECEC",
"+.	c #E5E5E5",
"@.	c #DBDBDB",
"#.	c #F4F4F5",
"$.	c #959595",
"%.	c #1857AF",
"&.	c #1869B9",
"*.	c #1881A6",
"=.	c #3E9787",
"-.	c #185479",
";.	c #183251",
">.	c #185677",
",.	c #2992AA",
"'.	c #68A450",
").	c #6DAB42",
"!.	c #949494",
"~.	c #ECECED",
"{.	c #E5E5E6",
"].	c #DADADA",
"^.	c #184095",
"/.	c #389074",
"(.	c #65A75C",
"_.	c #2B90A9",
":.	c #3982AC",
"<.	c #4A9A7B",
"[.	c #6BA94F",
"}.	c #67AD36",
"|.	c #519F28",
"1.	c #C3C3C4",
"2.	c #B3B3B4",
"3.	c #EBEBEB",
"4.	c #E7E7E7",
"5.	c #E3E3E3",
"6.	c #D6D6D6",
"7.	c #D7D7D8",
"8.	c #D9D9D9",
"9.	c #1867B5",
"0.	c #1868A8",
"a.	c #188049",
"b.	c #238828",
"c.	c #61AA4D",
"d.	c #338868",
"e.	c #185A86",
"f.	c #182F4D",
"g.	c #1A4D73",
"h.	c #4C947B",
"i.	c #639C5C",
"j.	c #6EA93C",
"k.	c #4B9C28",
"l.	c #D0D0D1",
"m.	c #CACAB1",
"n.	c #F1F1DD",
"o.	c #EEEEEF",
"p.	c #EDEDEE",
"q.	c #E6E6E6",
"r.	c #E4E4E5",
"s.	c #EAEAEB",
"t.	c #E6E6E8",
"u.	c #FBFBFB",
"v.	c #EFEFF0",
"w.	c #F4F4C8",
"x.	c #B8B8B9",
"y.	c #707071",
"z.	c #188A82",
"A.	c #42913C",
"B.	c #419A28",
"C.	c #4F9F28",
"D.	c #2F8B2D",
"E.	c #187246",
"F.	c #183752",
"G.	c #181E3B",
"H.	c #265B85",
"I.	c #4386B8",
"J.	c #70A452",
"K.	c #71A741",
"L.	c #6AA92F",
"M.	c #278C28",
"N.	c #459928",
"O.	c #C8C8C8",
"P.	c #C7C79C",
"Q.	c #E0E0BD",
"R.	c #DCDCDD",
"S.	c #DCDCDC",
"T.	c #E6E6BF",
"U.	c #C5C5C6",
"V.	c #EEEEC8",
"W.	c #ECEDED",
"X.	c #E2E293",
"Y.	c #B7B7B8",
"Z.	c #6D6D6F",
"`.	c #67A956",
" +	c #68AB3D",
".+	c #63AD33",
"++	c #218C28",
"@+	c #198D28",
"#+	c #188A28",
"$+	c #186186",
"%+	c #183B69",
"&+	c #195C87",
"*+	c #3789B2",
"=+	c #71A548",
"-+	c #559C28",
";+	c #2F8E28",
">+	c #60AB28",
",+	c #4AA028",
"'+	c #CCCCCC",
")+	c #CBCBCC",
"!+	c #F2F2F3",
"~+	c #ECEDEE",
"{+	c #F7F8F9",
"]+	c #E9EAEA",
"^+	c #FBFBFD",
"/+	c #F7F7F8",
"(+	c #EBEBEC",
"_+	c #F5F5F6",
":+	c #B9B9B9",
"<+	c #6F6F70",
"[+	c #6CA946",
"}+	c #499A28",
"|+	c #288D28",
"1+	c #60AA31",
"2+	c #449C28",
"3+	c #188B28",
"4+	c #186776",
"5+	c #183E64",
"6+	c #18485E",
"7+	c #227778",
"8+	c #469777",
"9+	c #6BA843",
"0+	c #5DA22A",
"a+	c #419828",
"b+	c #55A128",
"c+	c #3D9A28",
"d+	c #B0B0B0",
"e+	c #ADADAD",
"f+	c #FAFAFB",
"g+	c #DDDDDE",
"h+	c #E6E7E7",
"i+	c #D8DADA",
"j+	c #FAF8E7",
"k+	c #F6EFC9",
"l+	c #E1E2E3",
"m+	c #EAEBEB",
"n+	c #D6D6D7",
"o+	c #C9C9C9",
"p+	c #186EA6",
"q+	c #6CA94A",
"r+	c #5AA128",
"s+	c #439728",
"t+	c #54A328",
"u+	c #3C9928",
"v+	c #188C28",
"w+	c #187440",
"x+	c #185B47",
"y+	c #182F40",
"z+	c #3A8BB8",
"A+	c #529D7B",
"B+	c #6EA748",
"C+	c #6FAA35",
"D+	c #6CAC37",
"E+	c #6AAD34",
"F+	c #308A28",
"G+	c #606061",
"H+	c #D7D7D7",
"I+	c #EBECEC",
"J+	c #E2E4E5",
"K+	c #F5BDBF",
"L+	c #E59197",
"M+	c #F4F5F6",
"N+	c #D9DADA",
"O+	c #E9E9E9",
"P+	c #BCBCBC",
"Q+	c #18739A",
"R+	c #69AC4C",
"S+	c #69AA36",
"T+	c #68AD35",
"U+	c #208E28",
"V+	c #1F8F28",
"W+	c #198F28",
"X+	c #188F28",
"Y+	c #187937",
"Z+	c #185F86",
"`+	c #348BBA",
" @	c #4E9D70",
".@	c #6BA840",
"+@	c #71AB36",
"@@	c #529C28",
"#@	c #259028",
"$@	c #5DA728",
"%@	c #459F28",
"&@	c #1A8E28",
"*@	c #F1F2F2",
"=@	c #E1E1E1",
"-@	c #F6F7F7",
";@	c #DBDCDD",
">@	c #EEF0F0",
",@	c #F5C0C0",
"'@	c #E5AAAA",
")@	c #ECEFEF",
"!@	c #DDDEDE",
"~@	c #F0F1F1",
"{@	c #F3F4F4",
"]@	c #363636",
"^@	c #59A354",
"/@	c #308F28",
"(@	c #299328",
"_@	c #249428",
":@	c #189028",
"<@	c #198C28",
"[@	c #187C30",
"}@	c #18617E",
"|@	c #18274A",
"1@	c #184364",
"2@	c #3D9587",
"3@	c #609D57",
"4@	c #6BA93F",
"5@	c #5AA428",
"6@	c #4B9F28",
"7@	c #369628",
"8@	c #4FA528",
"9@	c #389C28",
"0@	c #7A7A7A",
"a@	c #F8F9F9",
"b@	c #EFF0F0",
"c@	c #E2E3E3",
"d@	c #EDEFEF",
"e@	c #F7C5C5",
"f@	c #E5AAAB",
"g@	c #F0F3F3",
"h@	c #E3E4E4",
"i@	c #419548",
"j@	c #55A029",
"k@	c #248428",
"l@	c #186F4D",
"m@	c #182D48",
"n@	c #18193A",
"o@	c #2C6191",
"p@	c #338DB2",
"q@	c #6EA750",
"r@	c #70AA39",
"s@	c #69AA31",
"t@	c #288A28",
"u@	c #489A28",
"v@	c #6AAD2F",
"w@	c #238B28",
"x@	c #A9A9A9",
"y@	c #F7F8F8",
"z@	c #E6E7E9",
"A@	c #F7F9F9",
"B@	c #F6C0C0",
"C@	c #E6ABAB",
"D@	c #F5F6F7",
"E@	c #E5E6E6",
"F@	c #1E8D28",
"G@	c #1D8E28",
"H@	c #1E8E28",
"I@	c #188E28",
"J@	c #188D28",
"K@	c #61AB33",
"L@	c #4F9E28",
"M@	c #1F8828",
"N@	c #186483",
"O@	c #18406C",
"P@	c #235E90",
"Q@	c #188CAD",
"R@	c #67AB4A",
"S@	c #519D28",
"T@	c #3A9128",
"U@	c #5DA528",
"V@	c #4C9F28",
"W@	c #339228",
"X@	c #18852E",
"Y@	c #187682",
"Z@	c #187495",
"`@	c #186DA6",
" #	c #A7A7A7",
".#	c #E3E4D0",
"+#	c #E3C7C7",
"@#	c #CAA7A7",
"##	c #E3E3E4",
"$#	c #F6F6E4",
"%#	c #5BA428",
"&#	c #189328",
"*#	c #187D3B",
"=#	c #18777C",
"-#	c #187687",
";#	c #187775",
">#	c #68A451",
",#	c #6AA53B",
"'#	c #5FA443",
")#	c #186388",
"!#	c #183F6E",
"~#	c #245F91",
"{#	c #1F8CB1",
"]#	c #64A948",
"^#	c #53A028",
"/#	c #3F9428",
"(#	c #5EA628",
"_#	c #4B9D28",
":#	c #379528",
"<#	c #188242",
"[#	c #186AB1",
"}#	c #1861B3",
"|#	c #1862B5",
"1#	c #1867B7",
"2#	c #868686",
"3#	c #AAACAC",
"4#	c #F1F1F2",
"5#	c #509F28",
"6#	c #59A028",
"7#	c #369428",
"8#	c #189428",
"9#	c #18862B",
"0#	c #187977",
"a#	c #186BAF",
"b#	c #185EA8",
"c#	c #1866B1",
"d#	c #186BAE",
"e#	c #4B9874",
"f#	c #58995A",
"g#	c #519964",
"h#	c #185F8E",
"i#	c #183F6D",
"j#	c #216091",
"k#	c #268BB4",
"l#	c #6EA749",
"m#	c #6EAA2F",
"n#	c #6AAD30",
"o#	c #2D8C28",
"p#	c #4D9C28",
"q#	c #6FB233",
"r#	c #208D28",
"s#	c #188244",
"t#	c #186CAF",
"u#	c #183F97",
"v#	c #184CA3",
"w#	c #186AC0",
"x#	c #184099",
"y#	c #1848A2",
"z#	c #9B9B9B",
"A#	c #CECFCF",
"B#	c #ABABAB",
"C#	c #A3A3A3",
"D#	c #525253",
"E#	c #73AC32",
"F#	c #3C9328",
"G#	c #318E28",
"H#	c #68AF2D",
"I#	c #3A9A28",
"J#	c #18719A",
"K#	c #186CB7",
"L#	c #1866BC",
"M#	c #183D93",
"N#	c #1852A9",
"O#	c #1868B6",
"P#	c #1868AD",
"Q#	c #1869AC",
"R#	c #185D9A",
"S#	c #6DA84A",
"T#	c #589B28",
"U#	c #3C9228",
"V#	c #5BA628",
"W#	c #549A28",
"X#	c #359228",
"Y#	c #188347",
"Z#	c #185FB5",
"`#	c #48572D",
" $	c #18469C",
".$	c #185AB2",
"+$	c #1859B1",
"@$	c #1845A5",
"#$	c #183C9D",
"$$	c #D3D3D3",
"%$	c #B1B1B1",
"&$	c #5A5B5B",
"*$	c #589860",
"=$	c #67A436",
"-$	c #459328",
";$	c #4D9F28",
">$	c #566648",
",$	c #349228",
"'$	c #268F28",
")$	c #188728",
"!$	c #186EA5",
"~$	c #1857A9",
"{$	c #185FB8",
"]$	c #1863B4",
"^$	c #186BB9",
"/$	c #185D9D",
"($	c #183F70",
"_$	c #206090",
":$	c #6DA94A",
"<$	c #329428",
"[$	c #5DA428",
"}$	c #4C9D28",
"|$	c #2D9328",
"1$	c #188629",
"2$	c #187787",
"3$	c #4A5051",
"4$	c #FD4C47",
"5$	c #DD7272",
"6$	c #185CB4",
"7$	c #1856AE",
"8$	c #1844A5",
"9$	c #183E9F",
"0$	c #626363",
"a$	c #3A957B",
"b$	c #559D4D",
"c$	c #329128",
"d$	c #9E6969",
"e$	c #FF3128",
"f$	c #9F6B6C",
"g$	c #188328",
"h$	c #18833F",
"i$	c #186DAA",
"j$	c #1857AE",
"k$	c #1847A1",
"l$	c #1868BC",
"m$	c #186CAE",
"n$	c #187A9B",
"o$	c #18778B",
"p$	c #187685",
"q$	c #18768D",
"r$	c #185E96",
"s$	c #18406F",
"t$	c #20618F",
"u$	c #6DA94C",
"v$	c #6AAE31",
"w$	c #69AF30",
"x$	c #298928",
"y$	c #4A9C28",
"z$	c #65B12D",
"A$	c #188828",
"B$	c #707373",
"C$	c #EDDBDB",
"D$	c #E2D5D5",
"E$	c #184398",
"F$	c #184BA2",
"G$	c #1868CB",
"H$	c #1842A4",
"I$	c #575858",
"J$	c #1869AE",
"K$	c #187795",
"L$	c #6AAF51",
"M$	c #B4ACAC",
"N$	c #B5ADAD",
"O$	c #186DB1",
"P$	c #186BB0",
"Q$	c #1869B6",
"R$	c #1869BB",
"S$	c #2B9080",
"T$	c #62AA45",
"U$	c #1E8F28",
"V$	c #186282",
"W$	c #183E6C",
"X$	c #278BB5",
"Y$	c #6EAA4D",
"Z$	c #579D28",
"`$	c #3D9628",
" %	c #57A328",
".%	c #189128",
"+%	c #6D6F6F",
"@%	c #EDEEEE",
"#%	c #E1E3E3",
"$%	c #185BB2",
"%%	c #1858AE",
"&%	c #1847A6",
"*%	c #183E9D",
"=%	c #BEBFBF",
"-%	c #184BA1",
";%	c #1860AF",
">%	c #186CAB",
",%	c #188196",
"'%	c #B2B4B4",
")%	c #B4B5B5",
"!%	c #1856B2",
"~%	c #184CA8",
"{%	c #1866B5",
"]%	c #18869D",
"^%	c #4A975F",
"/%	c #218430",
"(%	c #489634",
"_%	c #69AA35",
":%	c #18637B",
"<%	c #22618D",
"[%	c #288BB6",
"}%	c #6BA947",
"|%	c #359328",
"1%	c #5BA528",
"2%	c #4C9C28",
"3%	c #2F9128",
"4%	c #189228",
"5%	c #6B6C6C",
"6%	c #185AB4",
"7%	c #18429A",
"8%	c #183E9A",
"9%	c #707070",
"0%	c #C5C5C5",
"a%	c #183C9B",
"b%	c #1857B4",
"c%	c #1861B5",
"d%	c #1863AF",
"e%	c #C1C2C2",
"f%	c #C3C3C3",
"g%	c #184EAA",
"h%	c #1848A4",
"i%	c #186AB5",
"j%	c #359172",
"k%	c #67AB46",
"l%	c #358F28",
"m%	c #4C9E28",
"n%	c #61A728",
"o%	c #239028",
"p%	c #18637C",
"q%	c #183E6F",
"r%	c #266494",
"s%	c #3B8DBB",
"t%	c #69A651",
"u%	c #6CA73B",
"v%	c #67AC32",
"w%	c #278B28",
"x%	c #449B28",
"y%	c #65B02A",
"z%	c #696969",
"A%	c #F5F6F6",
"B%	c #232424",
"C%	c #343434",
"D%	c #373737",
"E%	c #2E2F2F",
"F%	c #757575",
"G%	c #282828",
"H%	c #353636",
"I%	c #2B2C2C",
"J%	c #1858B1",
"K%	c #1869C3",
"L%	c #2F9178",
"M%	c #6DA84B",
"N%	c #6CAD39",
"O%	c #208C28",
"P%	c #67B034",
"Q%	c #4AA228",
"R%	c #1B8B28",
"S%	c #18667B",
"T%	c #18426C",
"U%	c #18445F",
"V%	c #3C9982",
"W%	c #5A9E54",
"X%	c #71AA38",
"Y%	c #56A028",
"Z%	c #676767",
"`%	c #D5D5D5",
" &	c #C1C1C1",
".&	c #1855AD",
"+&	c #184EA6",
"@&	c #1866BB",
"#&	c #1876A7",
"$&	c #20847D",
"%&	c #72A748",
"&&	c #63A52A",
"*&	c #55A328",
"=&	c #3E9728",
"-&	c #218628",
";&	c #187052",
">&	c #181736",
",&	c #278DB7",
"'&	c #4E9F6D",
")&	c #6BAB3B",
"!&	c #68A728",
"~&	c #4E9D28",
"{&	c #CECECE",
"]&	c #CFCFCF",
"^&	c #CDCDCD",
"/&	c #D0D0D0",
"(&	c #C0C0C0",
"_&	c #1850A9",
":&	c #18449B",
"<&	c #1864B9",
"[&	c #186EA4",
"}&	c #6AA731",
"|&	c #64A828",
"1&	c #2D9028",
"2&	c #185F8A",
"3&	c #4388BD",
"4&	c #4E9E77",
"5&	c #68AA42",
"6&	c #288B28",
"7&	c #449928",
"8&	c #63AE3C",
"9&	c #5F5F5F",
"0&	c #183F98",
"a&	c #183D98",
"b&	c #183C97",
"c&	c #EEEFEF",
"d&	c #F3F5F5",
"e&	c #545454",
"f&	c #183A9E",
"g&	c #183B9F",
"h&	c #183A99",
"i&	c #1858B0",
"j&	c #1866C0",
"k&	c #183D92",
"l&	c #1854AA",
"m&	c #186CA7",
"n&	c #6CA547",
"o&	c #4E9928",
"p&	c #298B28",
"q&	c #68AD43",
"r&	c #3D8D60",
"s&	c #185B89",
"t&	c #1A466D",
"u&	c #18777E",
"v&	c #3B988B",
"w&	c #187E62",
"x&	c #188070",
"y&	c #26896B",
"z&	c #1C8E28",
"A&	c #686868",
"B&	c #184FAB",
"C&	c #183C99",
"D&	c #183C98",
"E&	c #BFA6A6",
"F&	c #DFCBCB",
"G&	c #183F9F",
"H&	c #1855B0",
"I&	c #1853AE",
"J&	c #184EA8",
"K&	c #1856AB",
"L&	c #1860B7",
"M&	c #186AAB",
"N&	c #6FA451",
"O&	c #65A328",
"P&	c #589F31",
"Q&	c #288255",
"R&	c #186161",
"S&	c #1D5A88",
"T&	c #3A86CA",
"U&	c #1867B2",
"V&	c #1869A7",
"W&	c #188928",
"X&	c #1A8928",
"Y&	c #185AB5",
"Z&	c #183D9B",
"`&	c #4C4D4D",
" *	c #6F7070",
".*	c #183B9D",
"+*	c #1841A1",
"@*	c #1866C2",
"#*	c #18459C",
"$*	c #1865BB",
"%*	c #1867BB",
"&*	c #1869A9",
"**	c #62A263",
"=*	c #68A73D",
"-*	c #61A742",
";*	c #183C62",
">*	c #2A5888",
",*	c #3A86CB",
"'*	c #184197",
")*	c #1852A8",
"!*	c #1867BA",
"~*	c #186DB0",
"{*	c #186DAD",
"]*	c #18729C",
"^*	c #18719E",
"/*	c #185CB0",
"(*	c #183D9A",
"_*	c #183C9C",
":*	c #183A9A",
"<*	c #1857AD",
"[*	c #1864BB",
"}*	c #183C93",
"|*	c #1853AA",
"1*	c #1866A5",
"2*	c #187C4F",
"3*	c #228728",
"4*	c #186084",
"5*	c #183D67",
"6*	c #1E2E4E",
"7*	c #1A4C7D",
"8*	c #185EAA",
"9*	c #1850A7",
"0*	c #1869B7",
"a*	c #187099",
"b*	c #185BAD",
"c*	c #183A96",
"d*	c #1850A5",
"e*	c #1850AB",
"f*	c #183B9B",
"g*	c #18429B",
"h*	c #1858AC",
"i*	c #1857AB",
"j*	c #1860B8",
"k*	c #1866B9",
"l*	c #1854AB",
"m*	c #1852AB",
"n*	c #1866B2",
"o*	c #186E89",
"p*	c #18714D",
"q*	c #183650",
"r*	c #18213F",
"s*	c #3880BC",
"t*	c #1867AC",
"u*	c #184FAC",
"v*	c #1863BE",
"w*	c #185BAC",
"x*	c #183B95",
"y*	c #1860B5",
"z*	c #185BB7",
"A*	c #183A97",
"B*	c #18499D",
"C*	c #1868BB",
"D*	c #186BB1",
"E*	c #186DA8",
"F*	c #186FA3",
"G*	c #186CB1",
"H*	c #1869B8",
"I*	c #183E94",
"J*	c #1866B6",
"K*	c #1863A3",
"L*	c #185783",
"M*	c #18557E",
"N*	c #4083CA",
"O*	c #18409A",
"P*	c #183CA1",
"Q*	c #183D9E",
"R*	c #1867BC",
"S*	c #1868BE",
"T*	c #1866B7",
"U*	c #1869B2",
"V*	c #186BAA",
"W*	c #469B6E",
"X*	c #5DA447",
"Y*	c #1C8A28",
"Z*	c #187C68",
"`*	c #186AB9",
" =	c #183C95",
".=	c #185AA1",
"+=	c #183564",
"@=	c #183447",
"#=	c #18537F",
"$=	c #184894",
"%=	c #18459D",
"&=	c #188794",
"*=	c #188A6B",
"==	c #187A4D",
"-=	c #328A64",
";=	c #288C65",
">=	c #187D44",
",=	c #5CA043",
"'=	c #5EA72A",
")=	c #187B5A",
"!=	c #186EAE",
"~=	c #1858A8",
"{=	c #184B95",
"]=	c #183667",
"^=	c #181B41",
"/=	c #185991",
"(=	c #184D95",
"_=	c #484848",
":=	c #1868B4",
"<=	c #1867A2",
"[=	c #5A9E5B",
"}=	c #5CA437",
"|=	c #278728",
"1=	c #58A52C",
"2=	c #58A42F",
"3=	c #218A28",
"4=	c #57A428",
"5=	c #59A728",
"6=	c #18832C",
"7=	c #185590",
"8=	c #1F1328",
"9=	c #18345E",
"0=	c #185C9B",
"a=	c #6A6A6A",
"b=	c #187CA4",
"c=	c #6FA457",
"d=	c #73A438",
"e=	c #72A737",
"f=	c #6BAA32",
"g=	c #369328",
"h=	c #349428",
"i=	c #69AD2C",
"j=	c #399528",
"k=	c #248D28",
"l=	c #18733F",
"m=	c #186182",
"n=	c #185E97",
"o=	c #18345F",
"p=	c #181C3D",
"q=	c #183C67",
"r=	c #6B6B6B",
"s=	c #187D83",
"t=	c #75AA45",
"u=	c #73A936",
"v=	c #65A72C",
"w=	c #529D28",
"x=	c #3F9C28",
"y=	c #3E9F28",
"z=	c #4FA128",
"A=	c #3D9B28",
"B=	c #185647",
"C=	c #183A66",
"D=	c #183B63",
"E=	c #181B3F",
"F=	c #555555",
"G=	c #187A7E",
"H=	c #6CA756",
"I=	c #6FA84B",
"J=	c #56A33A",
"K=	c #53A934",
"L=	c #56A532",
"M=	c #238928",
"N=	c #53A832",
"O=	c #61AA39",
"P=	c #238A28",
"Q=	c #183041",
"R=	c #AEAEAE",
"S=	c #939393",
"T=	c #182C44",
"U=	c #186485",
"V=	c #186283",
"W=	c #186383",
"X=	c #18647F",
"Y=	c #186481",
"Z=	c #186482",
"`=	c #18637A",
" -	c #9D9D9D",
".-	c #595959",
"+-	c #303030",
"@-	c #181B31",
"#-	c #18446A",
"$-	c #184169",
"%-	c #18406A",
"&-	c #18416D",
"*-	c #183F6B",
"=-	c #18426F",
"--	c #184170",
";-	c #18436B",
">-	c #181832",
",-	c #737373",
". . . . . . . . + @ # . $ . . % & * = - ; > , ' ) ! ~ . # # $ . . . . . . . . . . . ",
". . . . . . . . . . . . . { ] ^ / ( _ : < [ } | 1 2 3 4 . . . . . . . . . . . . . . ",
". . . . . . . . . . . . 5 6 7 } 8 9 } 0 a } b c } / d e f g . . . . . . . . . . . . ",
". . . . . . . . . h i j k l _ 8 / m n o n n p n q [ r s t u v w x . . . . . . . . . ",
". . . $ $ . . . . y z A [ B C | o 0 | | m | 0 ( n r D } E F G H I . . . . . . . . . ",
". . . . . # . . J K L M } [ m N | O | P m | 0 Q N p q R c S T U V W . . . . . . . . ",
". . . . . . X Y Z `  .C l r r | ..+.O P 0 | @.P P #.| 8 B $.%.&.*.=.-.;.. . . . . . ",
". . . . . . >.,.'.).!.} ..p ..P ....m n 8 ~.+.0 | N {.c #.].^.L /.(._.Y . . . . . . ",
"# . . . . :.<.[.}.|.1.2.8 r 7 +.3.4.} ~.~._ C N 5.6.n C 7.8.9.0.a.b.c.d.e.. . $ . . ",
"$ . . f.g.h.i.j.|.k.l.m.n.o.p.P q.} r.s.9 t.u.q.| P | v.w.x.y.z.A.B.C.D.E.F.G.. . . ",
". . . H.I.J.K.L.M.N.O.P.Q.m R.S.O } T.l.U.V.~.W.S.S.0 p X.Y.Z.`. +.+++@+#+$+%+. . . ",
". . . &+*+=+-+;+>+,+'+)+!+C C | +.} ~+{+]+^+/+(+| C n 8 _+:+<+[+}+|+1+2+3+4+5+. . . ",
". . 6+7+8+9+0+a+b+c+d+e+f+..g+P | h+i+j+k+l+m+m Q q.{.8 n+o+p+q+r+s+t+u+v+w+x+y+. @ ",
". . z+A+B+C+D+E+F+3+G+} H+c C B W.I+J+K+L+M+N+| P P n O+P P+Q+R+S+T+U+V+W+X+Y+Z+. . ",
". . `+ @.@+@@@#@$@%@&@@.o q *@=@-@;@>@,@'@)@!@~@P {@!+8 } ]@^@/@(@_@X+X+:@<@[@}@. . ",
"|@1@2@3@4@5@6@7@8@9@X+0@} 8 +.a@b@c@d@e@f@g@h@P u.h@| } O.i@j@@+:@:@&@X+:@7@k@l@m@n@",
"o@p@q@r@s@t@u@v@w@v+<@v+x@Q 8 y@B z@A@B@C@D@E@{+!+r ..p F@G@H@X+X+I@J@J@v+K@L@M@N@O@",
"P@Q@R@S@T@U@V@W@@+X@Y@Z@`@ #_ q Q .#>@+#@#>@##$#{@/ 8.%#X+&#:@I@*#=#-#-#;#>#,#'#)#!#",
"~#{#]#^#/#(#_#:#G@<#[#}#|#1#2#P } =@b@N+3#N 4#m+( :+5#6#7#8#X+9#0#a#b#c#d#e#f#g#h#i#",
"j#k#l#m#n#o#p#q#r#s#t#u#v#w#x#y#z#6.} A#B#B D C#D#E#F#G#H#I##+J#K#L#M#N#U O#P#Q#R#!#",
"j#k#S#T#U#V#W#X#I@Y#a#Z#`# $.$+$@$#$h@$$%$q &$*$=$-$;$>$,$'$)$!$~$y#{$]$O#O#&.^$/$($",
"_$k#:$-+<$[$}$|$X+1$2$3$4$5$6$7$8$9$r B N } 0$a$b$c$d$e$f$g$h$i$j$k$l$m$n$o$p$q$r$s$",
"t$k#u$v$w$x$y$z$X+:@A$B$C$D$E$F$G$H$| } [ } I$J$K$L$M$C$N$O$P$Q$R$Q$[#S$T$U$I@3+V$W$",
"t$X$Y$Z$`$ %_#:#:@.%3++%@%#%$%%%&%*%=%} [ r -%;%>%,%'%@%)%!%~%{%]%^%/%(%_%U$:@J@:%W$",
"<%[%}%@@|%1%2%3%X+4%v+5%} / 6%+$7%8%9%} B 0%a%b%c%d%e%} f%g%h%i%j%k%l%m%n%,$o%I@p%q%",
"r%s%t%u%v%w%x%y%J@4%J@z%} A%B%C%D%E%F%} N P+G%H%]@I%0%} 1 J%K%U L%M%N%2%O%P%Q%R%S%T%",
"|@U%V%W%X%Y%y$u+I@.%v+Z%} R `%0 m 1 ].0 m > 0 m m  &B }  &.&+&@&#&$&%&&&*&=&-&;&m@>&",
". . ,&'&)&!&~&G#X+:@v+Z%} } 0%{&]&'+^&[ 3.]&]&/&]&o+N } (&_&:&<&U [&'.}&|&1&*#2&{ . ",
". . 3&4&5&6&7&8&G@:@J@Z%} } 9&0&a&b&#$c&d&e&f&g&#$h&Q }  &i&j&k&l&m&n&o&p&q&r&s&. . ",
". . t&u&v&w&x&y&z&:@I@Z%} } A&B&C&D&#$E&F&#$f&g&G&H&/ }  &I&J&K&L&M&N&O&P&Q&R&h . . ",
". . . S&T&U&U V&)$W&X&A&} q &.Y&C&Z&#$`& *.*f&g&+*@*0%}  &_&#*$*%*&***=*-*p%;*. . . ",
". . . >*,*'*)*!*~*{*]*z%} / ^*/*(*(*_*#$#$#$.*#$:**% &} 1 <*[*}*|*%*1*2*3*4*5*. . . ",
"$ $ . 6*7*L 8*9*g%+$0*z%} / a*b*c*d*e*f*Z&g*K&h*i*7$1 } 1 j*k*l*m*)*n*o*p*q*r*. . . ",
". . . . . s*t*^.8%u*v*z%} / a*w*x*y*z*A*b&B*C*D*E*F*1 } 1 G*H*T m*I*J*K*L*. . . . . ",
". . . . . . M*N*O*P*Q*A&} / Q$R*S*T*!*U*n*L V*W*X*Y* &}  &Z*i$`*_& =.=+=. . . $ . . ",
". . . . . . @=#=$=%=f*Z%} / U H*L &=*===-=;=>=,='=I@ &}  &g$)=!=~={=]=^=. . . $ . . ",
". . . . . . . . /=(=M# #} o _=:=<=[=}=|=1=2=3=4=5=I@+.} +.3+6={*b#7=. . . . . . . . ",
"8=8=. . . . . . . 9=0=1 } } a=b=c=d=e=f=g=h=i=j=k=I@/ } / l=m=n=o=. . . . . . . . . ",
". . . . . . . . . p=q=f%} } r=s=t=u=v=w=x=y=z=x%A=J@q } q B=C=D=E=. . . . . . . . . ",
". . . . . . . . . . . d+} } F=G=H=I=J=W&K=L=M=N=O=P=3.} 3.Q=. . . . . . . . . . . . ",
". . . . . . . . . . . $ R=S=. T=U=V=W=X=Y=W=}@N@Z=`=9% -9%. . . . . . . . . . . . . ",
". . . . . . . . . . . . .-+-. @-#-$-%-%-&-&-*-=---;->-,-. . . . . . . . . . . . . . "};
