/* XPM */
static char * X00_xpm[] = {
"42 42 143 2",
"  	c None",
". 	c #181328",
"+ 	c #8B9BB4",
"@ 	c #3A4466",
"# 	c #5A6988",
"$ 	c #2E2E2E",
"% 	c #1D1D28",
"& 	c #3D3D3D",
"* 	c #383838",
"= 	c #4A4A4A",
"- 	c #464646",
"; 	c #313131",
"> 	c #3F4545",
", 	c #1F1F28",
"' 	c #3E3E3E",
") 	c #DDDBCC",
"! 	c #B3B3B3",
"~ 	c #EEEEEE",
"{ 	c #D8D8D8",
"] 	c #B4B4B4",
"^ 	c #C6C6C6",
"/ 	c #E8E8E8",
"( 	c #EAECEC",
"_ 	c #F6F8F8",
": 	c #F7F7F7",
"< 	c #F6F7F7",
"[ 	c #F6F6F6",
"} 	c #E78A8A",
"| 	c #936863",
"1 	c #252528",
"2 	c #414141",
"3 	c #B0B0B0",
"4 	c #E3E3E3",
"5 	c #E0E0E1",
"6 	c #E1E1E1",
"7 	c #2C2C2C",
"8 	c #8F8F8F",
"9 	c #D4D4D4",
"0 	c #C2C2C2",
"a 	c #D7D7D7",
"b 	c #FAF9F9",
"c 	c #F3CDCD",
"d 	c #F2D3D3",
"e 	c #ECECEC",
"f 	c #F2CCCC",
"g 	c #F1CACB",
"h 	c #F5DDDD",
"i 	c #F8EADD",
"j 	c #FAFAFA",
"k 	c #BABABA",
"l 	c #E98383",
"m 	c #9A6B63",
"n 	c #303028",
"o 	c #454545",
"p 	c #434343",
"q 	c #959595",
"r 	c #CBCBCB",
"s 	c #F0F0F0",
"t 	c #F9F9F9",
"u 	c #F7EBEB",
"v 	c #E0E0E0",
"w 	c #626262",
"x 	c #505050",
"y 	c #BDBDBD",
"z 	c #EAEAEA",
"A 	c #848484",
"B 	c #555555",
"C 	c #515858",
"D 	c #F3F3F3",
"E 	c #F8F8F8",
"F 	c #F5F5F5",
"G 	c #F5F6F6",
"H 	c #BEBEBE",
"I 	c #767676",
"J 	c #6C622A",
"K 	c #A49645",
"L 	c #D0D0D0",
"M 	c #D6D6D6",
"N 	c #DDDDDD",
"O 	c #DEDEDE",
"P 	c #CECECE",
"Q 	c #C9C9C9",
"R 	c #DFDFDF",
"S 	c #CCCCCC",
"T 	c #5D5D5D",
"U 	c #FFFFFF",
"V 	c #BFAE51",
"W 	c #E2CF61",
"X 	c #F7E268",
"Y 	c #EDE6E6",
"Z 	c #EBEBEB",
"` 	c #A2A2A2",
" .	c #333333",
"..	c #888888",
"+.	c #B8B8B8",
"@.	c #2D2D2D",
"#.	c #747474",
"$.	c #685F29",
"%.	c #E7D364",
"&.	c #F8E689",
"*.	c #FEFAF4",
"=.	c #F9ECEC",
"-.	c #F7EDED",
";.	c #ADADAD",
">.	c #9A9A9A",
",.	c #DADADA",
"'.	c #DCDCDC",
").	c #FAEEE5",
"!.	c #FDF7E0",
"~.	c #F7E7E7",
"{.	c #A8A8A8",
"].	c #441328",
"^.	c #F4F4F4",
"/.	c #E9E9E9",
"(.	c #FBFDFD",
"_.	c #F8F9F9",
":.	c #381328",
"<.	c #551328",
"[.	c #C0C0C0",
"}.	c #C4C4C4",
"|.	c #FAD5D6",
"1.	c #FBD6D6",
"2.	c #F9D4D5",
"3.	c #F3C197",
"4.	c #F7E297",
"5.	c #F9D4D4",
"6.	c #F7BE97",
"7.	c #F1E5E5",
"8.	c #E7E7E7",
"9.	c #DBDBDB",
"0.	c #674028",
"a.	c #664028",
"b.	c #2C2C44",
"c.	c #676767",
"d.	c #FBFBFB",
"e.	c #8E8E8E",
"f.	c #5E1328",
"g.	c #1B1B28",
"h.	c #7F7F7F",
"i.	c #949494",
"j.	c #D2D2D2",
"k.	c #868686",
"l.	c #262B44",
". . . . . . . . . . . . . . . . . . . . . . . . . . . . . . . . . . . . . . . . . . ",
". . . . . . . . . . . . . . . . . . . . . . . . . . . + . . . . . . . . . . . . . . ",
". . . . . . . . . . . . . . . . . . . . . . . . . . . . . . . . . . . . . . . . . . ",
". . . . . . . . . . . . . . . . . . . . . . . . . @ . . . . . . . . . . . . . . + . ",
". . . . . . . . . . . . . . . . . . . . . . . . . . . . . . . . . . . . . . . . . . ",
". . . . . . . . . . . . . . . . . . . . . . . . . . . . . . . . . . . . . . . . . . ",
". . . . . . . . . . . . . . . . . . . . . . . . . . . . . . . . . . . . . . . . . . ",
". . . . . . . . . . . . . . . . . . . . . . . . . . . . . . . . . . . . . . . . . . ",
". . . . . . . . . . . . . . . . . . . . . . . . . . . . . . . . . . . . . . . . . . ",
". . . . . . . . . . . . . . . . . . . . . . . . . . . . . . . . . . . . . . . . . . ",
". . . . . . . . . . . . . . . . . . . . . . . . . . . . . . . . . . . . . . . . . . ",
". . . . . . . . . . # . . . . . . . . . . . . . . . . . . . . . . . . . . . . . . . ",
". . . . . . . . . . . . . . . . . . . . . . . . . . . . . . . . . . . . . . . . . . ",
". . . . . . . . . . . . . . . . . . . . . . . . . . . . . . . . . . . . . . . . @ . ",
". . . . . . . . . . . . . . . . . . . . . . . . . . . . . . . $ % . . . . . . . . . ",
"& * = - - = & & & & & & & & & & & ; > . . . . . . . . . . , ' ) ! , . . . . . . . . ",
"~ { ] ^ / ( _ : : _ _ _ _ _ < < [ ] } | 1 . . . . . . . 2 3 4 5 6 3 7 . . . . . . . ",
"8 9 0 a b c d 6 e c c c f g h i j k l m n o p p p p q r s [ t u t [ v r w p p p o . ",
". 1 x x x x x x x x x x y z A x x B C . . 9 ~ D E E [ F F F F G F F F F : E D ~ 9 . ",
". . . . . . . . . . . . H F I # . . . J K 8 L M N O P Q Q P R O O O S Q Q Q 0 k T . ",
". . . . . . . . . . . . H U I . . . V W X Y Z E / `  .. .  ...+.+...@.. . . . . . . ",
". . . . . . . . . . . . y U #.. . $.%.&.*.=.-.;.. . . . . . . . . . . . . . . . . . ",
". . . . . . . . . >.,.,.'.z M ,.,.,.t ).U !.~.t {.7 . ].. . . . . . . . . . . . . . ",
". . . . . . . . . ,.[ t j : U U ^./.^.U U U (._.z H :.<.. . . . . . . . . . . . . . ",
". . . . . . . . . [.}.[ U D t D |.1.2.3.4.5.6.7.8.9.0.a.b.. . . . . . . . . . . . . ",
". . . . . . . . . . . c.0 a t t < < U U U U U d.O e.. f.. . . . . . . . . . . . . . ",
". . . . . . . . . . . . . g.h.i.i.i.j.j.j.j.j.j.k.. . . . . . . . . . . . . . . . . ",
". . . . . . . . . . . . . . . . . . . . . . . . . . . . . . . . . . . . . . . . . . ",
". . . . . . . . . . . . . . . . . . . . . . . . . . . . . . . . . . . . . . . . . . ",
". . . . . . . . . . . . . . . . . . . . . . . . . . . . . . . . . . . . . . . . . . ",
". . . . . . . . . . . . . . . . . . . . . . . . . . . . . . . . . . . . . . . . . . ",
". . . . . . . . . . . . . . . . . . . . . . . . . . . . . . . . . . . . . . . . . . ",
". . . . . . . . . . . . . . . . . . . . . . . . . . l.. . . . . . . . . . . . . . . ",
". . . . . . . . @ . . . . . . . . . . . . . . . . . . . . # . . . . . . . . . . . . ",
". . . . . . . . . . . . . . . . . . . . . . . . . . . . . . . . . . . . . . . . . . ",
". . . . . . . . . . . . . . . . . . . . . . . . . . . . . . . . . . . . . . . . . . ",
". . . . . . . . . . . . . . . . . @ . . . . . . . . . . l.. . . . . . . . . . . . . ",
". . . . . . . . l.. . . . . . . . . . . . . . . . . . . . . . . . . . . . . . . . . ",
". . . . . . . . . . . . . l.. . . . . . . . . . . . . . . . . . . . . . @ . . . . . ",
". . . . . . . . . . . . . . . . . . . . . . . . . . . . . . . . . . . . . . . . . . ",
". . . . . . . . . . . . . . . . . . . . . . . . . . . . . . . . . . . . . . . . . . ",
". . . . . . . . . . . . . . . . . . . . . . . . . . . . . . . . . . . . . . . . . . "};
