/* XPM */
static char * X01_xpm[] = {
"42 42 285 2",
"  	c None",
". 	c #181328",
"+ 	c #8B9BB4",
"@ 	c #3A4466",
"# 	c #913C3C",
"$ 	c #903B3B",
"% 	c #823535",
"& 	c #B24B4B",
"* 	c #C55454",
"= 	c #C45353",
"- 	c #F86B6B",
"; 	c #F76B6B",
"> 	c #EE6767",
", 	c #5E2428",
"' 	c #943D3D",
") 	c #EC6666",
"! 	c #F56E6A",
"~ 	c #F78E6B",
"{ 	c #F78C6B",
"] 	c #F7DB6B",
"^ 	c #F7DA6B",
"/ 	c #F7B96B",
"( 	c #E66C63",
"_ 	c #F7AE6B",
": 	c #F7E26B",
"< 	c #F7BE6B",
"[ 	c #C58E54",
"} 	c #5A6988",
"| 	c #562028",
"1 	c #C35353",
"2 	c #E06760",
"3 	c #A06043",
"4 	c #ED7A66",
"5 	c #F7756B",
"6 	c #F7D16B",
"7 	c #FAECAC",
"8 	c #FDFAEB",
"9 	c #F8E791",
"0 	c #EEDA67",
"a 	c #E0CE60",
"b 	c #E07360",
"c 	c #E07560",
"d 	c #6F312C",
"e 	c #3D1528",
"f 	c #773030",
"g 	c #AF4A4A",
"h 	c #F7996B",
"i 	c #F7BC6B",
"j 	c #F7C86B",
"k 	c #F7D86B",
"l 	c #F7E267",
"m 	c #FFFFFF",
"n 	c #FBF0C5",
"o 	c #F7A66B",
"p 	c #D35A5A",
"q 	c #4D1C28",
"r 	c #612628",
"s 	c #E66363",
"t 	c #F7776B",
"u 	c #F7E26A",
"v 	c #FAEFBC",
"w 	c #FDF7E0",
"x 	c #F8E68B",
"y 	c #FFFEFC",
"z 	c #FBF1C5",
"A 	c #F7E269",
"B 	c #F7DD6B",
"C 	c #F7A16B",
"D 	c #752D2F",
"E 	c #ED6666",
"F 	c #F7866B",
"G 	c #F7D76B",
"H 	c #F9EBAB",
"I 	c #FFFDF9",
"J 	c #F8E895",
"K 	c #FCF4D2",
"L 	c #F7E373",
"M 	c #F7E36B",
"N 	c #ED8B66",
"O 	c #3D3D3D",
"P 	c #383838",
"Q 	c #4A4A4A",
"R 	c #464646",
"S 	c #F7B46B",
"T 	c #FDF7E2",
"U 	c #FCF4D4",
"V 	c #F8E584",
"W 	c #F7E2CC",
"X 	c #ECB3B3",
"Y 	c #1F1F28",
"Z 	c #EEEEEE",
"` 	c #D8D8D8",
" .	c #B4B4B4",
"..	c #C6C6C6",
"+.	c #E8E8E8",
"@.	c #EAECEC",
"#.	c #F6F8F8",
"$.	c #F7F7F7",
"%.	c #F7F8F8",
"&.	c #FBF8F8",
"*.	c #FFFEFD",
"=.	c #F9E9A0",
"-.	c #FEFDF7",
";.	c #FEFCF3",
">.	c #F8E5E3",
",.	c #F7E2E1",
"'.	c #ECE1E1",
").	c #B0B0B0",
"!.	c #2C2C2C",
"~.	c #8F8F8F",
"{.	c #D4D4D4",
"].	c #C2C2C2",
"^.	c #D7D7D7",
"/.	c #FAF9F9",
"(.	c #F3CDCD",
"_.	c #F2D3D3",
":.	c #E1E1E1",
"<.	c #ECECEC",
"[.	c #F7CDCD",
"}.	c #F7DACD",
"|.	c #F7E2CB",
"1.	c #FBF1DD",
"2.	c #FBF3CE",
"3.	c #F9EBAA",
"4.	c #FFFEFA",
"5.	c #FBF1F0",
"6.	c #F9F6F6",
"7.	c #F9F9F9",
"8.	c #F7EBEB",
"9.	c #F6F6F6",
"0.	c #E0E0E0",
"a.	c #CBCBCB",
"b.	c #626262",
"c.	c #434343",
"d.	c #454545",
"e.	c #252528",
"f.	c #505050",
"g.	c #945050",
"h.	c #F5916A",
"i.	c #F7C4BD",
"j.	c #F7EAEA",
"k.	c #F7B184",
"l.	c #F8E389",
"m.	c #FAECB1",
"n.	c #F8E689",
"o.	c #FAEEB7",
"p.	c #FDFAEE",
"q.	c #FEFCF8",
"r.	c #FEFCF6",
"s.	c #FAF5F5",
"t.	c #F7F5F5",
"u.	c #F7F6F6",
"v.	c #F5F5F5",
"w.	c #F8F8F8",
"x.	c #F3F3F3",
"y.	c #A44545",
"z.	c #E96D65",
"A.	c #F7C2BE",
"B.	c #F7D376",
"C.	c #F7CD88",
"D.	c #F7CA6B",
"E.	c #F8E5DE",
"F.	c #F7E2CE",
"G.	c #F7E2C9",
"H.	c #F7E2DF",
"I.	c #F7E2DE",
"J.	c #F7DEDE",
"K.	c #F9CCCC",
"L.	c #C9C9C9",
"M.	c #BABABA",
"N.	c #5D5D5D",
"O.	c #D15A5A",
"P.	c #F7BD6B",
"Q.	c #F7E2BE",
"R.	c #FDF7E1",
"S.	c #F7D27A",
"T.	c #F9E8A2",
"U.	c #F9E899",
"V.	c #F8E6B8",
"W.	c #F7E288",
"X.	c #F79A6B",
"Y.	c #B34C4C",
"Z.	c #C65454",
"`.	c #F7E2BD",
" +	c #FBF1C8",
".+	c #F7E274",
"++	c #F7F4F4",
"@+	c #FDFAEC",
"#+	c #FEFDF6",
"$+	c #F7E46B",
"%+	c #D3565A",
"&+	c #F79A9A",
"*+	c #F7DADA",
"=+	c #F7DBDA",
"-+	c #F9E9DC",
";+	c #F7E5E5",
">+	c #F7E2DD",
",+	c #F8E6DE",
"'+	c #FAEEE7",
")+	c #FEFCF5",
"!+	c #D3595A",
"~+	c #FAFAFA",
"{+	c #F9F4F4",
"]+	c #FBFDFD",
"^+	c #FDF8E7",
"/+	c #F79C6B",
"(+	c #F7C0C0",
"_+	c #F7CCC4",
":+	c #FEFBF3",
"<+	c #FBF3D6",
"[+	c #FBF1D6",
"}+	c #F9E5D5",
"|+	c #F7E297",
"1+	c #F9E2D4",
"2+	c #F8E5E5",
"3+	c #FBF1E7",
"4+	c #FDF8E5",
"5+	c #F8866B",
"6+	c #993F3F",
"7+	c #BC5050",
"8+	c #F68A6A",
"9+	c #F7DE6B",
"0+	c #F7E2C2",
"a+	c #F8E6D7",
"b+	c #FBFBFB",
"c+	c #F7E4DE",
"d+	c #F9E99E",
"e+	c #FEFBEF",
"f+	c #F7E16B",
"g+	c #F7B86B",
"h+	c #AC4848",
"i+	c #F7C26B",
"j+	c #F7B87F",
"k+	c #F7A894",
"l+	c #F7DD94",
"m+	c #F7C894",
"n+	c #F7D2D2",
"o+	c #F8E6D2",
"p+	c #F8E580",
"q+	c #F7C06B",
"r+	c #A74646",
"s+	c #F7716B",
"t+	c #F7D06B",
"u+	c #FDF6DF",
"v+	c #F9E89B",
"w+	c #FBF1C9",
"x+	c #D65C5C",
"y+	c #521E28",
"z+	c #E26161",
"A+	c #F7666B",
"B+	c #F7D56B",
"C+	c #F7836B",
"D+	c #F7A86B",
"E+	c #F7D267",
"F+	c #F46969",
"G+	c #A84646",
"H+	c #6C2A2A",
"I+	c #A34444",
"J+	c #F8826B",
"K+	c #F7886B",
"L+	c #F7D36B",
"M+	c #F7CD6B",
"N+	c #6C462B",
"O+	c #90723B",
"P+	c #5E3028",
"Q+	c #AD4949",
"R+	c #F36969",
"S+	c #F7D26B",
"T+	c #F8E68D",
"U+	c #FAEEBA",
"V+	c #F7CF71",
"W+	c #F06868",
"X+	c #E06060",
"Y+	c #CE5858",
"Z+	c #90673B",
"`+	c #AD9749",
" @	c #F77E6B",
".@	c #CC5757",
"+@	c #9B4040",
"@@	c #431728",
"#@	c #C85555",
"$@	c #D6795C",
"%@	c #B44C4C",
"&@	c #A64545",
"*@	c #262B44",
". . . . . . . . . . . . . . . . . . . . . . . . . . . . . . . . . . . . . . . . . . ",
". . . . . . . . . . . . . . . . . . . . . . . . . . . + . . . . . . . . . . . . . . ",
". . . . . . . . . . . . . . . . . . . . . . . . . . . . . . . . . . . . . . . . . . ",
". . . . . . . . . . . . . . . . . . . . . . . . . @ . . . . . . . . . . . . . . + . ",
". . . . . . . . . . . . . . . . . . . . . . . . . . . . . . . . . . . . . . . . . . ",
". . . . . . . . . . . . . . . . . . . . . . . . . . . . . . . . . . . . . . . . . . ",
". . . . . . . . . . . . . . . . . . . . . . . . . . . . . . . . . . . . . . . . . . ",
". . . . . . . . . . . . . . . . . . . . . # $ % . . . . . . . . . . . . . . . . . . ",
". . . . . . . . . . . . . . . . . . & * = - ; > * , . . . . . . . . . . . . . . . . ",
". . . . . . . . . . . . . . . . ' ) ! ~ { ] ^ ^ / ( , . . . . . . . . . . . . . . . ",
". . . . . . . . . . . . . . . . ) ; _ : : : : : : < [ . . . . . . . . . . . . . . . ",
". . . . . . . . . . } . | 1 2 3 4 5 6 : : 7 8 8 8 9 0 a b c d e . . . . . . . . . . ",
". . . . . . . . . . f g ; h i : : j k : l m m m m n : : : : o p q . . . . . . . . . ",
". . . . . . . . . r s t j ] u v w w x : l m m m m y w w z A B C D . . . . . . . @ . ",
". . . . . . . . . E F G : : H m m m I J l m m m m m m m m K L M N . . . . . . . . . ",
"O P Q R R Q O O O ) S : : v T m m m m U A K m m m m m m m m V W X Y . . . . . . . . ",
"Z `  ...+.@.#.$.$.#.%.%.%.&.m m m m *.n : =.-.m m m m m m ;.>.,.'.).!.. . . . . . . ",
"~.{.].^./.(._.:.<.(.[.}.W |.1.8 m m 2.: : : 3.4.m m m m 5.6.7.8.7.9.0.a.b.c.c.c.d.. ",
". e.f.f.f.f.f.f.f.g.) h.i.j.k.l.m.2.n.o.8 8 p.*.4.q.r.s.t.t.t.u.v.v.v.v.$.w.x.Z {.. ",
". . . . . . . . . q y.z.A.t.B.C.D.: 8 m m m m m w E.F.G.G.F.H.I.I.J.K.L.L.L.].M.N.. ",
". . . . . . . . . O.; P.Q.m R.w S.A 7 m m m m m m T.A l U.w w w V.W.X.Y.. . . . . . ",
". . . . . . . . Z.; ; 6 `.m m m m  +: .+++@+m K l =.K m m m m m #+: $+%+. . . . . . ",
". . . . . . . . * &+*+=+-+;.m m m 8 7.;+>+,+'+7.U -.m m m m m m )+: P.!+. . . . . . ",
". . . . . . . . * *+u.7.~+m m m m m {+m m m ]+7.m m m m m m m m ^+: /+p . . . . . . ",
". . . . . . . . * (+_+u.m :+m m <+[+}+|+|+1+|+2+3+)+m m m m m 4+V 6 5+6+. . . . . . ",
". . . . . . . . 7+8+9+: 0+a+7.7.$.$.m m m m m b+c+d+I m m m e+V f+g+h+. . . . . . . ",
". . . . . . . . . ) /+i+: D.j+k+l+m+n+n+n+o+^+m w p+=.;.m m 8 : q+; $ . . . . . . . ",
". . . . . . . . . r+- s+/+P.t+: : : j h ] H m m m u+: v+w+m 7 M ~ x+y+. . . . . . . ",
". . . . . . . . . . 6+p z+A+6 : : B+C+D+: u l u+m )+: : u E+j C F+G+. . . . . . . . ",
". . . . . . . . . . . . H+I+J+D+D+~ ; K+L+: : p+w n M+D+D+K+; ; ) . . . . . . . . . ",
". . . . . . . . . . . . . . N+O+P+Q+R+; t S+] T+U+V+t ; W+X+Y+| y+. . . . . . . . . ",
". . . . . . . . . . . . . . Z+S `+. y.p ; ; /+S S  @; .@+@. . . . . . . . . . . . . ",
". . . . . . . . . . . . . . @@#@$@. %@q f &@) ) ) ) #@@@. . . . . . . . . . . . . . ",
". . . . . . . . @ . . . . . . . . . . . . . . . . . . . . } . . . . . . . . . . . . ",
". . . . . . . . . . . . . . . . . . . . . . . . . . . . . . . . . . . . . . . . . . ",
". . . . . . . . . . . . . . . . . . . . . . . . . . . . . . . . . . . . . . . . . . ",
". . . . . . . . . . . . . . . . . @ . . . . . . . . . . *@. . . . . . . . . . . . . ",
". . . . . . . . *@. . . . . . . . . . . . . . . . . . . . . . . . . . . . . . . . . ",
". . . . . . . . . . . . . *@. . . . . . . . . . . . . . . . . . . . . . @ . . . . . ",
". . . . . . . . . . . . . . . . . . . . . . . . . . . . . . . . . . . . . . . . . . ",
". . . . . . . . . . . . . . . . . . . . . . . . . . . . . . . . . . . . . . . . . . ",
". . . . . . . . . . . . . . . . . . . . . . . . . . . . . . . . . . . . . . . . . . "};
