/* XPM */
static char * X02_xpm[] = {
"42 42 316 2",
"  	c None",
". 	c #181328",
"+ 	c #8B9BB4",
"@ 	c #3A4466",
"# 	c #913C3C",
"$ 	c #903B3B",
"% 	c #F16868",
"& 	c #F96C6C",
"* 	c #AC4848",
"= 	c #722D2D",
"- 	c #431728",
"; 	c #C55454",
"> 	c #C45353",
", 	c #F88B6B",
"' 	c #F7BE6B",
") 	c #F7816B",
"! 	c #E56363",
"~ 	c #D7615C",
"{ 	c #F78E6B",
"] 	c #F78C6B",
"^ 	c #F7DD6B",
"/ 	c #F7E26B",
"( 	c #F8E895",
"_ 	c #F9E899",
": 	c #F7D776",
"< 	c #843636",
"[ 	c #ECAB66",
"} 	c #FEFCF5",
"| 	c #FFFFFF",
"1 	c #FBF3CE",
"2 	c #682929",
"3 	c #B64D4D",
"4 	c #562028",
"5 	c #521E28",
"6 	c #AD6988",
"7 	c #E06060",
"8 	c #A04343",
"9 	c #F7926B",
"0 	c #F7DA6B",
"a 	c #F7E06B",
"b 	c #FEFAEC",
"c 	c #F7DB6B",
"d 	c #E79964",
"e 	c #F7D16B",
"f 	c #F7C46B",
"g 	c #F77E6B",
"h 	c #E56763",
"i 	c #B94E4E",
"j 	c #2F1328",
"k 	c #823535",
"l 	c #F06868",
"m 	c #F7A86B",
"n 	c #F7996B",
"o 	c #F76B6B",
"p 	c #F7AB6B",
"q 	c #F7C66B",
"r 	c #F7E269",
"s 	c #FAEEBA",
"t 	c #F7B16B",
"u 	c #7A3131",
"v 	c #E96565",
"w 	c #F7836B",
"x 	c #F7D56B",
"y 	c #F7E268",
"z 	c #F7C768",
"A 	c #F76A6B",
"B 	c #E66363",
"C 	c #F7686B",
"D 	c #F7B26B",
"E 	c #F7C86B",
"F 	c #F7E26A",
"G 	c #FBF1C9",
"H 	c #FEFBF0",
"I 	c #F8DE8D",
"J 	c #F7696B",
"K 	c #8E3A3A",
"L 	c #B84E4E",
"M 	c #F7E373",
"N 	c #F9EBAA",
"O 	c #FDFAEB",
"P 	c #FDF7E1",
"Q 	c #F7A96B",
"R 	c #F7796B",
"S 	c #F7C96B",
"T 	c #F7D76B",
"U 	c #F7856B",
"V 	c #F9E89B",
"W 	c #FEFCF3",
"X 	c #F7BF6B",
"Y 	c #FA6C6C",
"Z 	c #3D3D3D",
"` 	c #383838",
" .	c #4A4A4A",
"..	c #464646",
"+.	c #FBF2CA",
"@.	c #FDE9E0",
"#.	c #F7886B",
"$.	c #F7BD6B",
"%.	c #F8E689",
"&.	c #F9DBAA",
"*.	c #FCF4D4",
"=.	c #FDF7E0",
"-.	c #F8E0B3",
";.	c #F7946B",
">.	c #EEEEEE",
",.	c #D8D8D8",
"'.	c #B4B4B4",
").	c #C6C6C6",
"!.	c #E8E8E8",
"~.	c #EAECEC",
"{.	c #F6F8F8",
"].	c #F7F7F7",
"^.	c #F7F8F8",
"/.	c #FCF8F8",
"(.	c #F7F6F6",
"_.	c #F7B4B4",
":.	c #F78A8A",
"<.	c #F7716B",
"[.	c #F7CF71",
"}.	c #FBF1C7",
"|.	c #F7E4B0",
"1.	c #F9E9E3",
"2.	c #FAEEE1",
"3.	c #F7E1E1",
"4.	c #D6B0B0",
"5.	c #8F8F8F",
"6.	c #D4D4D4",
"7.	c #C2C2C2",
"8.	c #D7D7D7",
"9.	c #FAF9F9",
"0.	c #F3CDCD",
"a.	c #F2D3D3",
"b.	c #E1E1E1",
"c.	c #ECECEC",
"d.	c #F7CDCD",
"e.	c #F7DBCD",
"f.	c #FBE2CC",
"g.	c #FBCACB",
"h.	c #F7DDDD",
"i.	c #F8EADD",
"j.	c #FAFAFA",
"k.	c #F7BABA",
"l.	c #F78383",
"m.	c #F9EAA2",
"n.	c #FBF0C1",
"o.	c #F7BE95",
"p.	c #F7CBCB",
"q.	c #F7F0F0",
"r.	c #F9F9F9",
"s.	c #F7EBEB",
"t.	c #F8E0E0",
"u.	c #CBCBCB",
"v.	c #B66262",
"w.	c #434343",
"x.	c #454545",
"y.	c #252528",
"z.	c #505050",
"A.	c #CB5656",
"B.	c #F7BDBD",
"C.	c #F7EAEA",
"D.	c #F78484",
"E.	c #F7D4D4",
"F.	c #F7EEEE",
"G.	c #F7F3F3",
"H.	c #F8F8F8",
"I.	c #F7F5F5",
"J.	c #F3F3F3",
"K.	c #C35353",
"L.	c #EE6767",
"M.	c #F7736B",
"N.	c #F7C2BE",
"O.	c #F7D376",
"P.	c #F78888",
"Q.	c #F78F8F",
"R.	c #F7D0D0",
"S.	c #F7D6D6",
"T.	c #F7DEDE",
"U.	c #F7CECE",
"V.	c #F7C9C9",
"W.	c #F7E2CE",
"X.	c #F7E2DF",
"Y.	c #F7E2DE",
"Z.	c #F8CCCC",
"`.	c #C9C9C9",
" +	c #BABABA",
".+	c #5D5D5D",
"++	c #B4A64C",
"@+	c #F96A6C",
"#+	c #F7E2BE",
"$+	c #F7E276",
"%+	c #F7D36B",
"&+	c #F7776B",
"*+	c #F7E6E6",
"=+	c #F7E8E8",
"-+	c #F7AAA2",
";+	c #F79A6B",
">+	c #F7E288",
",+	c #FAECB8",
"'+	c #F8E6B8",
")+	c #B34C4C",
"!+	c #685F29",
"~+	c #433C28",
"{+	c #8D803A",
"]+	c #796E30",
"^+	c #773030",
"/+	c #F7D273",
"(+	c #FCF4D2",
"_+	c #F7866B",
":+	c #F77474",
"<+	c #F7F4F4",
"[+	c #F7ECEC",
"}+	c #F7EDED",
"|+	c #F7ADAD",
"1+	c #F7E46B",
"2+	c #FFFDF9",
"3+	c #FEFDF6",
"4+	c #D3565A",
"5+	c #C89A9A",
"6+	c #F7DADA",
"7+	c #F8DFDA",
"8+	c #FAEEDA",
"9+	c #F7E2DA",
"0+	c #F7E5E5",
"a+	c #F7E7E7",
"b+	c #F7A8A8",
"c+	c #F7D86B",
"d+	c #FEFBEF",
"e+	c #D3595A",
"f+	c #ECDADA",
"g+	c #F7E9E9",
"h+	c #FBFDFD",
"i+	c #F8F9F9",
"j+	c #F7BEBE",
"k+	c #F7B66B",
"l+	c #F8E68B",
"m+	c #FDF8E7",
"n+	c #F79C6B",
"o+	c #D35A5A",
"p+	c #F1C0C0",
"q+	c #F7CCC4",
"r+	c #FDFAF6",
"s+	c #FDF9F9",
"t+	c #FADAD6",
"u+	c #FBD6D6",
"v+	c #F9D4D5",
"w+	c #F79797",
"x+	c #F9D4D4",
"y+	c #F7D197",
"z+	c #F7DBDB",
"A+	c #FDF8E5",
"B+	c #F8E584",
"C+	c #F8866B",
"D+	c #993F3F",
"E+	c #F78B6B",
"F+	c #F7DE6B",
"G+	c #F9E99E",
"H+	c #FAEFD7",
"I+	c #FBFBFB",
"J+	c #F7C68E",
"K+	c #FAECAD",
"L+	c #F7E16B",
"M+	c #F7B86B",
"N+	c #5E2428",
"O+	c #DB5E5E",
"P+	c #F7C26B",
"Q+	c #F77F7F",
"R+	c #F79494",
"S+	c #F7D2D2",
"T+	c #F79C86",
"U+	c #F9E9A0",
"V+	c #F7C06B",
"W+	c #F7A16B",
"X+	c #F7AA6B",
"Y+	c #F7876B",
"Z+	c #F7BB6B",
"`+	c #FAECAC",
" @	c #F7E36B",
".@	c #D65C5C",
"+@	c #D75C5C",
"@@	c #F7E47B",
"#@	c #F7E57B",
"$@	c #F7D267",
"%@	c #361328",
"&@	c #F7986B",
"*@	c #F7DF6B",
"=@	c #F7CD6B",
"-@	c #FAEDB4",
";@	c #FCF6DE",
">@	c #FCF5D6",
",@	c #C5A954",
"'@	c #DF6060",
")@	c #F7CB6B",
"!@	c #FDF8E3",
"~@	c #F79D6B",
"{@	c #F07668",
"]@	c #CE5858",
"^@	c #D05959",
"/@	c #F36969",
"(@	c #893838",
"_@	c #B74D4D",
":@	c #DA5D5D",
"<@	c #F7756B",
"[@	c #F86B6B",
"}@	c #BAA74F",
"|@	c #8C3939",
"1@	c #F77A6B",
"2@	c #F7C76B",
"3@	c #F69E6A",
"4@	c #C85555",
"5@	c #783030",
"6@	c #251328",
"7@	c #B2874B",
"8@	c #897238",
"9@	c #BC5050",
"0@	c #5A6988",
"a@	c #262B44",
". . . . . . . . . . . . . . . . . . . . . . . . . . . . . . . . . . . . . . . . . . ",
". . . . . . . . . . . . . . . . . . . . . . . . . . . + . . . . . . . . . . . . . . ",
". . . . . . . . . . . . . . . . . . . . . . . . . . . . . . . . . . . . . . . . . . ",
". . . . . . . . . . . . . . . . . . . . . . . . . @ . . . . . . . . . . . . . . + . ",
". . . . . . . . . . . . . . . . . . . . . . . . . . . . . . . . . . . . . . . . . . ",
". . . . . . . . . . . . . . . . . . . . . . . . . . . . . . . . . . . . . . . . . . ",
". . . . . . . . . . . . . . . . . . . . . . . . . . . . . . . . . . . . . . . . . . ",
". . . . . . . . . . . . . . . . . . . . . # $ % & * = . . . . . . . . . . . . . . . ",
". . . . . . . . . . . . . . . . . . - ; > , ' ' ' ) ! = . . . . . . . . . . . . . . ",
". . . . . . . . . . . . . . . . . . ~ { ] ^ / ( _ : ) $ . . . . . . . . . . . . . . ",
". . . . . . . . . . . . . . . . . < [ / / / / } | 1 ' $ 2 3 3 3 4 . . . . . . . . . ",
". . . . . . . . . 5 6 7 7 7 7 8 . 3 9 0 a / / ( 1 b c d d e f g h i j . . . . . . . ",
". . . . . . . . k l { m m m n o 8 3 o o p ' ' q / / / r s s s _ t o $ . . . . . . . ",
". . . . . . . u v w x / / y z A l B o C D E E ) f / / F G | | H I J K . . . . . @ . ",
". . . . . . . L o c / M N O P Q o o R S E / / T U e / / V W | | _ X Y . . . . . . . ",
"Z `  ..... .Z & o 0 / +.| | @.#.o o o o A $./ %.&.c / / / *.| =.-.;.& . . . . . . . ",
">.,.'.).!.~.{.].].^.^./.| | ].].(._.:.o o <.g [.}.( c ^ / |.1.2.3.4.# . . . . . . . ",
"5.6.7.8.9.0.a.b.c.d.d.e.f.g.h.i.j.k.l.o o o o { m.n.o.p.q.(.r.s.r.(.t.u.v.w.w.w.x.. ",
". y.z.z.z.z.z.z.A.o o #.B.C.D.o o o o o o E.F.G.H./.(.I.I.I.I.(.I.I.I.I.].H.J.>.6.. ",
". . . . . . . K.o L.7 M.N.I.O.P.o o o o o Q.R.S.h.T.U.V.V.W.X.Y.Y.T.Z.`.`.`.7. +.+. ",
". . . . . . ++@+K.8 B $.#+| $+%+&+o o o o *+s.H.=+-+o o ;+/ >+,+'+>+;+)+. . !+~+. . ",
". . . . . {+]+. . ^+o /+(+| O %.T _+o :+<+[+}+|+J A o { 1+( 2+| 3+/ 1+4+. . . . . . ",
". . . . . . . . . 5+6+7+| | | 8+9+6+r.0+h.T.a+r.b+o ;.c+( d+| | } / $.e+. . . . . . ",
". . . . . . . . . f+(.r.| | | | <+g+<+| | | h+i+C.j+k+l+2+| | | m+/ n+o+. . . . . . ",
". . . . . . . . $ p+q+r+| | s+G.t+u+v+w+w+x+y+0+a+z+/ =.| | | A+B+e C+D+. . . . . . ",
". . . . . . . . ; E+F+G+} H+r.r.].].| | | | | I+T.J+K+2+| | d+B+L+M+* . . . . . . . ",
". . . . . . . N+O+o n+P+x X Q+R+R+R+S+S+S+S+S+S+T+P+U+W | | O / V+o $ . . . . . . . ",
". . . . . . . $ o o o <.E+J { E E W+A o J C X+E E Y+Z+V G | `+ @{ .@5 . . . . . . . ",
". . . . . . . L o +@B o o S  @/ /  @X+) e  @/ @@N #@ @/ F $@E W+A ; . . . . . . . . ",
". . . . . . . & A.%@^+v o &@ @/ / / *@=@/ / -@;@| >@/ / %+#.o o o ; . . . . . . . . ",
". . . . . . . ,@%@. . 2 7 '@g g )@e %+/ / / @@!@O G+c ~@{@7 ]@4 ^@/@(@. . . . . . . ",
". . . . . . . . . . . . . . _@3 3 :@<@E / / / / / F+n+[@D+. . . 4 o $ . . . . . . . ",
". . . . . . . . . . . . . . }@%@. 4 |@1@2@0 0 0 0 3@4@5@. . . . 6@7@8@. . . . . . . ",
". . . . . . . . @ . . . . . = k . . - O+o o o o 7 9@. . . 0@. . . . . . . . . . . . ",
". . . . . . . . . . . . . . . . . . . N+$ $ $ $ 2 . . . . . . . . . . . . . . . . . ",
". . . . . . . . . . . . . . . . . . . . . . . . . . . . . . . . . . . . . . . . . . ",
". . . . . . . . . . . . . . . . . @ . . . . . . . . . . a@. . . . . . . . . . . . . ",
". . . . . . . . a@. . . . . . . . . . . . . . . . . . . . . . . . . . . . . . . . . ",
". . . . . . . . . . . . . a@. . . . . . . . . . . . . . . . . . . . . . @ . . . . . ",
". . . . . . . . . . . . . . . . . . . . . . . . . . . . . . . . . . . . . . . . . . ",
". . . . . . . . . . . . . . . . . . . . . . . . . . . . . . . . . . . . . . . . . . ",
". . . . . . . . . . . . . . . . . . . . . . . . . . . . . . . . . . . . . . . . . . "};
