/* XPM */
static char * X03_xpm[] = {
"42 42 163 2",
"  	c None",
". 	c #181328",
"+ 	c #8B9BB4",
"@ 	c #3A4466",
"# 	c #4D1C28",
"$ 	c #A44545",
"% 	c #773030",
"& 	c #D35A5A",
"* 	c #DB5E5E",
"= 	c #F76B6B",
"- 	c #A74646",
"; 	c #5E2428",
"> 	c #E06060",
", 	c #F86C6C",
"' 	c #F7986B",
") 	c #F79C6B",
"! 	c #F88B6B",
"~ 	c #FA6C6C",
"{ 	c #431728",
"] 	c #F7DA6B",
"^ 	c #F7E26B",
"/ 	c #F7D56B",
"( 	c #F78B6B",
"_ 	c #D75C5C",
": 	c #F7926B",
"< 	c #F7AE6B",
"[ 	c #F7D36B",
"} 	c #F7DD6B",
"| 	c #DB5B5E",
"1 	c #562028",
"2 	c #B64D4D",
"3 	c #903B3B",
"4 	c #F7A26B",
"5 	c #F7956B",
"6 	c #F7866B",
"7 	c #F7B46B",
"8 	c #F7D66B",
"9 	c #F7A16B",
"0 	c #F77E6B",
"a 	c #682929",
"b 	c #2F1328",
"c 	c #B95F4E",
"d 	c #E58E63",
"e 	c #F7D188",
"f 	c #EE6767",
"g 	c #933C3C",
"h 	c #F7BF6B",
"i 	c #F7B66B",
"j 	c #F7946B",
"k 	c #F7AB6B",
"l 	c #F7C86B",
"m 	c #F7E06B",
"n 	c #E86B64",
"o 	c #C36F53",
"p 	c #F7CD6B",
"q 	c #F96C6C",
"r 	c #F7776B",
"s 	c #F7A86B",
"t 	c #F99C6C",
"u 	c #F7E36B",
"v 	c #F7AA6B",
"w 	c #B34C4C",
"x 	c #F86B6B",
"y 	c #F7816B",
"z 	c #F7D16B",
"A 	c #ED6466",
"B 	c #8C3939",
"C 	c #D45A5B",
"D 	c #F7B56B",
"E 	c #F7B36B",
"F 	c #F76A6B",
"G 	c #8A3838",
"H 	c #ED6666",
"I 	c #F7696B",
"J 	c #F79A6B",
"K 	c #F7CB6B",
"L 	c #D3565A",
"M 	c #F7D86B",
"N 	c #F78E6B",
"O 	c #C55454",
"P 	c #9D4141",
"Q 	c #F7886B",
"R 	c #F79D6B",
"S 	c #B54D4D",
"T 	c #722D2D",
"U 	c #F16868",
"V 	c #F36969",
"W 	c #863636",
"X 	c #F76F6B",
"Y 	c #993F3F",
"Z 	c #B44C4C",
"` 	c #E66363",
" .	c #EC6666",
"..	c #E16161",
"+.	c #421728",
"@.	c #9B4040",
"#.	c #F06868",
"$.	c #E56262",
"%.	c #8C6988",
"&.	c #F76B88",
"*.	c #AF4A4A",
"=.	c #9C4141",
"-.	c #622628",
";.	c #DF5F60",
">.	c #D4855B",
",.	c #564028",
"'.	c #F7A36B",
").	c #F7DB6B",
"!.	c #8C7F39",
"~.	c #181528",
"{.	c #BC5050",
"].	c #F66A6A",
"^.	c #F7686B",
"/.	c #F7CE6B",
"(.	c #F7CC6B",
"_.	c #F7DE6B",
":.	c #F76D6B",
"<.	c #F7A66B",
"[.	c #F7C16B",
"}.	c #F7C26B",
"|.	c #F7B16B",
"1.	c #E96365",
"2.	c #823535",
"3.	c #F7716B",
"4.	c #F7836B",
"5.	c #F7C96B",
"6.	c #F77C6B",
"7.	c #D45B5B",
"8.	c #A84646",
"9.	c #F46969",
"0.	c #F7AC6B",
"a.	c #F7BB6B",
"b.	c #F7DC6B",
"c.	c #F7BD6B",
"d.	c #E05F60",
"e.	c #7F3434",
"f.	c #F7736B",
"g.	c #F5916A",
"h.	c #B94E4E",
"i.	c #843636",
"j.	c #BD5050",
"k.	c #F7BE6B",
"l.	c #EC7066",
"m.	c #AD4949",
"n.	c #C16452",
"o.	c #251328",
"p.	c #652728",
"q.	c #361328",
"r.	c #E56363",
"s.	c #F7BA6B",
"t.	c #F7C76B",
"u.	c #F07868",
"v.	c #A99B47",
"w.	c #F7DF6B",
"x.	c #826988",
"y.	c #C35353",
"z.	c #F96B6C",
"A.	c #F99D6C",
"B.	c #F9986C",
"C.	c #7A3131",
"D.	c #B6494D",
"E.	c #B6A74D",
"F.	c #262B44",
". . . . . . . . . . . . . . . . . . . . . . . . . . . . . . . . . . . . . . . . . . ",
". . . . . . . . . . . . . . . . . . . . . . . . . . . + . . . . . . . . . . . . . . ",
". . . . . . . . . . . . . . . . . . . . . . . . . . . . . . . . . . . . . . . . . . ",
". . . . . . . . . . . . . . . . . . . . . . . . . @ . . . . . . . . . . . . . . + . ",
". . . . . . . . . . . . . . . . . . . . . . . . . . . . . . . . . . . . . . . . . . ",
". . . . . . . . . . . . . . . . . . . . . . . # $ # . . . . . . . . . . . . . . . . ",
". . . . . . . . . . . . . . . . . . . . . % & * = * - . . . . . . . . . . . . . . . ",
". . . . . . . . . . . . . . . . . . . ; > , = ' ) ) ! ~ % . . . . . . . . . . . . . ",
". . . . . . . . . . . . . . . . . . { * = = = ] ^ ^ / ( & . . . . . . . . . . . . . ",
". . . . . . . . . . . . . . . . . . _ = = = = : < [ ^ } | % % % % ; . . . . . . . . ",
". . . . . . . . . 1 2 2 3 . . . . . > = = = = 4 5 6 7 8 9 = < 7 0 > a . . . . . . . ",
". . . . . . . b c d e : f g . . . . > = = = = = 0 h i j k l m ^ / i n { . . . . . . ",
". . . . . . . o p ^ ^ ] = q . . . . > = = = = = = r p ^ [ s } ^ ^ ^ ) & . . . . . . ",
". . . . . . . t ^ ^ u v = = w . . . g x = = = = = = y z u ^ ^ u ^ ^ z A B . . . @ . ",
". . . . . . C D ^ ^ E F = = & . . . . G H = = = = = = I J ^ 8 E K ^ z I $ . . . . . ",
". . . . . . L u ^ M N = = x G . . 3 O P G x = = = = = = y s i z Q s y = $ . . . . . ",
". . . . . . & R z 6 = = f 3 S . T U = V W q = = = = = = = = X 0 X = = = $ . . . . . ",
". . . . . . Y x = = = U 2 a . 3 O = = > Z x = = = = = = = = = = = = = ` % . . . . . ",
". . . . . . . -  . . ...# +.g f = U @.2 #.= = = = = = = = = = = = = = $.%.. . . . . ",
". . . . . . . . . . . . . G x &.= & *.= = = = = = = = = = = = = = = q . . . . . . . ",
". . . . . . . . . . Y & & H = = = = = = = = = = = = = = = = = = = = = w . . =.-.. . ",
". . . . b 3 O . . - x j ( = = = = = = = = = = = = = = = = = = = = y ) ;.; . . >.. . ",
". . . . ,.'.3 . .  .) )./ h I = = = = = = = = = = = = = = = = = r p ^ v $ . . !.. . ",
". . . . ~.,.b . {.].7 ^ ^ u ^.= = = = = = = = = = = = I 7 = = 0 /.^ ^ l $ . . . . . ",
". . . . . . . . O 0 (.^ ^ u ^.= = = = = = = = = = = = '.I = = 7 ^ ^ ^ l $ . . . . . ",
". . . . . . . . O ( _.^ ^ u ^.= = = = = = = = = = :.<._.^.= Q ] ^ ^ ^ [.$ . . . . . ",
". . . . . . . . O = ) }./ h I = = = = = = = = = = <.^ K I = |.^ ^ ^ K 1.2.. . . . . ",
". . . . . . . . O = = 3.( = = = = = = = = = I 4.5._.K 6.= = ] ^ ^ ^ ) 7.. . . . . . ",
". . . . . . . . 8.9.= = = = = = = = = = = = 0.a.^.^.I = = ( b.^ ^ c.d.. . . . . . . ",
". . . . . . . . .  .= = = = = = = = = = = = = = = = = = ( / ^ ^ } j 3 . . . . . . . ",
". . . . . . . . . e. .= = = = = = = = = = = = f.N N |.] b.^ [ z g.h.b . . . . . . . ",
". . . . . . . . . . i.j.= = ` 2 O = = = I 7 7 k.^ ^ ^ ^ ^ l l.2 m.. . . . . . . . . ",
". . . . . . n.. . . . o.% % p.. q.% r.= s.^ ^ ^ ^ ^ ^ ^ t.u.e.. . . . . . . . . . . ",
". . . . . . v.. @ . . . . . . . . . h.= v ^ ^ ^ ^ w.k.h 1.x.. . . . . . . . . . . . ",
". . . . . . . . . . . . . . . . . . b y.z.A.t t t B._ 3 C.. . . . . . D.. . . . . . ",
". . . . . . . . . . . . . . . . . . . . . . . . . . . . . . . . . . . E.. . . . . . ",
". . . . . . . . . . . . . . . . . @ . . . . . . . . . . F.. . . . . . . . . . . . . ",
". . . . . . . . F.. . . . . . . . . . . . . . . . . . . . . . . . . . . . . . . . . ",
". . . . . . . . . . . . . F.. . . . . . . . . . . . . . . . . . . . . . @ . . . . . ",
". . . . . . . . . . . . . . . . . . . . . . . . . . . . . . . . . . . . . . . . . . ",
". . . . . . . . . . . . . . . . . . . . . . . . . . . . . . . . . . . . . . . . . . ",
". . . . . . . . . . . . . . . . . . . . . . . . . . . . . . . . . . . . . . . . . . "};
