/* XPM */
static char * X04_xpm[] = {
"42 42 232 2",
"  	c None",
". 	c #181328",
"+ 	c #8B9BB4",
"@ 	c #3A4466",
"# 	c #943D3D",
"$ 	c #823535",
"% 	c #C95656",
"& 	c #D3585A",
"* 	c #F06768",
"= 	c #E96165",
"- 	c #D45A5B",
"; 	c #563C3C",
"> 	c #D16363",
", 	c #F76B6B",
"' 	c #F7A36B",
") 	c #F7946B",
"! 	c #F7E36B",
"~ 	c #F7B66B",
"{ 	c #F96B6C",
"] 	c #C35353",
"^ 	c #2F1328",
"/ 	c #4D3535",
"( 	c #755353",
"_ 	c #D06262",
": 	c #F7736B",
"< 	c #F7A86B",
"[ 	c #F7D36B",
"} 	c #F7AA6B",
"| 	c #562028",
"1 	c #483131",
"2 	c #735252",
"3 	c #825555",
"4 	c #E26666",
"5 	c #F7796B",
"6 	c #F07668",
"7 	c #E06060",
"8 	c #873737",
"9 	c #773030",
"0 	c #783030",
"a 	c #4B3434",
"b 	c #9B5858",
"c 	c #D56464",
"d 	c #B54C4C",
"e 	c #B64D4D",
"f 	c #F16868",
"g 	c #F78E6B",
"h 	c #F8866B",
"i 	c #993F3F",
"j 	c #5A6988",
"k 	c #201428",
"l 	c #624545",
"m 	c #7E5454",
"n 	c #D26363",
"o 	c #E76A64",
"p 	c #CE7762",
"q 	c #9D5B59",
"r 	c #CA6161",
"s 	c #F56B6B",
"t 	c #F77A6B",
"u 	c #F7C16B",
"v 	c #F07468",
"w 	c #A04343",
"x 	c #DA6565",
"y 	c #6A3D3D",
"z 	c #654747",
"A 	c #F78B6B",
"B 	c #F7D56B",
"C 	c #B59E5D",
"D 	c #C76060",
"E 	c #F7886B",
"F 	c #B34C4C",
"G 	c #F7D86B",
"H 	c #F7BD6B",
"I 	c #9A5757",
"J 	c #4D3636",
"K 	c #221628",
"L 	c #412D2D",
"M 	c #4F3737",
"N 	c #9D5959",
"O 	c #C66060",
"P 	c #F88B6B",
"Q 	c #E69167",
"R 	c #7C5454",
"S 	c #CE6262",
"T 	c #F7686B",
"U 	c #F7A76B",
"V 	c #5E2428",
"W 	c #DF5C60",
"X 	c #F7E46B",
"Y 	c #F7E26B",
"Z 	c #5C4040",
"` 	c #4C3535",
" .	c #745353",
"..	c #725353",
"+.	c #DA6264",
"@.	c #F7D16B",
"#.	c #E07660",
"$.	c #793B3B",
"%.	c #E66667",
"&.	c #F7A96B",
"*.	c #865555",
"=.	c #281A28",
"-.	c #573D3D",
";.	c #6F4F4F",
">.	c #A65A5A",
",.	c #F8816B",
"'.	c #F7CD6B",
").	c #E07560",
"!.	c #E66767",
"~.	c #E46767",
"{.	c #965858",
"].	c #805454",
"^.	c #6B4C4C",
"/.	c #674949",
"(.	c #725151",
"_.	c #694A4A",
":.	c #634646",
"<.	c #5F4343",
"[.	c #E47367",
"}.	c #8A524F",
"|.	c #664848",
"1.	c #6C4D4D",
"2.	c #2D1E28",
"3.	c #543B3B",
"4.	c #241728",
"5.	c #463030",
"6.	c #503838",
"7.	c #745252",
"8.	c #3F2B2B",
"9.	c #5B4040",
"0.	c #322128",
"a.	c #352428",
"b.	c #5D4141",
"c.	c #523939",
"d.	c #5C6988",
"e.	c #1B1328",
"f.	c #3A2828",
"g.	c #704F4F",
"h.	c #3E2A2A",
"i.	c #5E4242",
"j.	c #5A3F3F",
"k.	c #715050",
"l.	c #722D2D",
"m.	c #BD5050",
"n.	c #E46262",
"o.	c #632B2B",
"p.	c #392728",
"q.	c #9C5959",
"r.	c #D65C5C",
"s.	c #903B3B",
"t.	c #844949",
"u.	c #3C2828",
"v.	c #B05C5C",
"w.	c #F86B6B",
"x.	c #F79C6B",
"y.	c #E06B60",
"z.	c #EE7367",
"A.	c #F7756B",
"B.	c #AA5B5B",
"C.	c #593E3E",
"D.	c #493232",
"E.	c #8A5656",
"F.	c #735151",
"G.	c #6B4545",
"H.	c #D85E5E",
"I.	c #F7DB6B",
"J.	c #F7BE6B",
"K.	c #F7B46B",
"L.	c #765454",
"M.	c #D46363",
"N.	c #AD5C5C",
"O.	c #623D3D",
"P.	c #CB5656",
"Q.	c #F7DD6B",
"R.	c #533A3A",
"S.	c #EF6969",
"T.	c #F26A6A",
"U.	c #B05A5C",
"V.	c #7B5354",
"W.	c #F7696B",
"X.	c #F7BC6B",
"Y.	c #E16861",
"Z.	c #EC6868",
"`.	c #F7776B",
" +	c #F8C46B",
".+	c #BA855E",
"++	c #DA8A65",
"@+	c #DAC664",
"#+	c #EC9768",
"$+	c #521E28",
"%+	c #F7C06B",
"&+	c #F7C86B",
"*+	c #F37A6A",
"=+	c #BF925F",
"-+	c #D06162",
";+	c #B75252",
">+	c #361328",
",+	c #784646",
"'+	c #A15959",
")+	c #915757",
"!+	c #F78F6B",
"~+	c #EAC268",
"{+	c #F16A6A",
"]+	c #D75C5C",
"^+	c #604343",
"/+	c #A35A5A",
"(+	c #E96868",
"_+	c #C46060",
":+	c #C56060",
"<+	c #A05959",
"[+	c #EE6969",
"}+	c #EA7668",
"|+	c #E49A67",
"1+	c #E4CF67",
"2+	c #F57A6B",
"3+	c #EE6767",
"4+	c #EC6666",
"5+	c #A74646",
"6+	c #F7CD88",
"7+	c #F79A6B",
"8+	c #F7816B",
"9+	c #E86464",
"0+	c #682929",
"a+	c #8F5757",
"b+	c #F2676A",
"c+	c #D25A5A",
"d+	c #D35A5A",
"e+	c #431728",
"f+	c #984242",
"g+	c #A44545",
"h+	c #A54545",
"i+	c #262B44",
". . . . . . . . . . . . . . . . . . . . . . . . . . . . . . . . . . . . . . . . . . ",
". . . . . . . . . . . . . . . . . . . . . . . . . . . + . . . . . . . . . . . . . . ",
". . . . . . . . . . . . . . . . . . . . . . . . . . . . . . . . . . . . . . . . . . ",
". . . . . . . . . . . . . . . . . . . . . . . . . @ . . . . . . . . . . . . . . + . ",
". . . . . . . . . . . . . . . . . . . . . . . . . . . . . . . . . . . . . . . . . . ",
". . . . . . . . . . . . . . . . . . . . . . . . . # $ . . . . . . . . . . . . . . . ",
". . . . . . . . . . . . . . . . . . . . . . . % & * = - . . . . . . . . . . . . . . ",
". . . . . . . . . . . . . . . . . . . . . ; > , ' ) ! ~ { ] ^ . . . . . . . . . . . ",
". . . . . . . . . . . . . . . . . . . . / ( _ , , : < [ } , | . . . . . . . . . . . ",
". . . . . . . . . . . . . . . . . . . 1 2 ( 3 4 , , , 5 6 7 8 9 9 9 0 . . . . . . . ",
". . . . . . . . . . . . . . . . . . . a ( ( ( b , , , c d e f , , g h i . . . . . . ",
". . . . . . . ^ | | j . . . . . . . . k l ( ( m b b b n o p q r s t u v w . . . . . ",
". . . . . . . ] ) : x y . . . . . . . . . z ( ( ( ( ( x A B C ( D , } [ E | . . . . ",
". . . . . . F g G H , I J . . . . . . . . K L M ( ( ( N O P Q ( R S T ! U ] . . @ . ",
". . . . . V W X Y H , b Z . . . . . . . . . . ` ( ( ( (  .....( (  .+.@.! #.. . . . ",
". . . . . $.%.&.< : x *.Z . . . =.Z -.. . . . ;.( ( ( ( ( ( ( ( ( ( >.,.'.).. . . . ",
". . . . . a 3 !.~.{.].( Z . . . ^.(  .-.. . . /.( ( ( ( (._.:.<.( ( ..!.[.}.. . . . ",
". . . . . a ( ( ( ( |.1.L . 2.3.3.|.(.L . . . 4.|.( ( ( 5.. 4.3.;.( ( ( ( 6.. . . . ",
". . . . . k l ( ( 7._.8.. . _.( 9.4.0.. . . . . 4.a.a.a.. . K 4.0.a.a.a.j . . . . . ",
". . . . . . . b.Z c.. . . . 0.d.e.. . . . . . . . . . . . f.(.( c.. . . . . . . . . ",
". . . . . . . . . . . . . . . . . . . . . . . . . . . . . b.( ( g.h.:.:.8.. . . . . ",
". . . . . . . . . . . . . . . . . . . . . . . . . . . . . . i.5.L ( ( ( j.. . . . . ",
". . . . . . . . . . . . . . . . . . . . . . . . L Z Z Z Z f.. L k.( ( ( ( 4.. . . . ",
". . . . . . . . . l.m.n.o.e.. . . . . . . . =.^.(.( ( ( ( (.p.3.( (  .q.n r.. . . . ",
". . . . . . . . s.f , , ~.t.. . . . . . . 2._.( ( ( ( ( ( ( _.u.;.( v.w.x.y.. . . . ",
". . . . . . . $ z.H A., , B.C.. . . . . . D.( ( ( ( ( ( E.m F.6.|.G.H.) I.).. . . . ",
". . . . . . . s.J.Y K., , B.:.. . . . . . L.( ( ( ( ( >.w.M.N.( O.P., x.Y ).. . . . ",
". . . . . . . s.A Q.K., , B.g.8.. . . . R.( ( ( ( ( >.S., , T.U.V.S W.@.X.Y.. . . . ",
". . . . . . . s., T W., Z.N ( a . . . . R.( ( ( ( E.w., , , `. +.+ .++@+#+$+. . . . ",
". . . . . . . s., , , , _ ( ( a . . . . . L.( ( ( m M., , , %+&+*+_ =+-+;+>+. . . . ",
". . . . . . . ^ ,+'+~.'+3 ( z . . . . . . D.( ( ( )+m S !+&+~+A., , {+]+>+. . . . . ",
". . . . . . . . L (.( ( ( ( 5.. . . . . . ^+( ( /+(+_+)+:+_+_ , , , w.i . . . . . . ",
". . . . . . . . . 0.a./.;./ . . . . . . 9.( ( <+[+, , }+|+1+2+, 3+4+5+. . . . . . . ",
". . . . . . . . @ . . . . . . . . . . a ( ( ( [+, : < [ Y 6+`.7 V . . . . . . . . . ",
". . . . . . . . . . . . . . . . . . . ` ( ( ( S., J.! X 7+8+9+0+. . . . . . . . . . ",
". . . . . . . . . . . . . . . . . . . . R.( ( a+x b+T T c+d+e+. . . . . . . . . . . ",
". . . . . . . . . . . . . . . . . @ . . . ` a a a f+g+h+i+. . . . . . . . . . . . . ",
". . . . . . . . i+. . . . . . . . . . . . . . . . . . . . . . . . . . . . . . . . . ",
". . . . . . . . . . . . . i+. . . . . . . . . . . . . . . . . . . . . . @ . . . . . ",
". . . . . . . . . . . . . . . . . . . . . . . . . . . . . . . . . . . . . . . . . . ",
". . . . . . . . . . . . . . . . . . . . . . . . . . . . . . . . . . . . . . . . . . ",
". . . . . . . . . . . . . . . . . . . . . . . . . . . . . . . . . . . . . . . . . . "};
