/* XPM */
static char * X05_xpm[] = {
"42 42 151 2",
"  	c None",
". 	c #181328",
"+ 	c #8B9BB4",
"@ 	c #3A4466",
"# 	c #241728",
"$ 	c #4C1E28",
"% 	c #483131",
"& 	c #634646",
"* 	c #755353",
"= 	c #945757",
"- 	c #E76868",
"; 	c #8A3838",
"> 	c #4D3636",
", 	c #735252",
"' 	c #B95E5E",
") 	c #F76B6B",
"! 	c #ED6666",
"~ 	c #8D3939",
"{ 	c #5C4040",
"] 	c #745353",
"^ 	c #C36060",
"/ 	c #493434",
"( 	c #3A2828",
"_ 	c #725151",
": 	c #4B3434",
"< 	c #392728",
"[ 	c #6F4F4F",
"} 	c #5B4040",
"| 	c #3C2828",
"1 	c #543B3B",
"2 	c #553B3B",
"3 	c #473131",
"4 	c #5A6988",
"5 	c #221528",
"6 	c #724C4C",
"7 	c #6A3838",
"8 	c #291528",
"9 	c #4A3333",
"0 	c #A15959",
"a 	c #E46767",
"b 	c #844949",
"c 	c #823535",
"d 	c #5A3636",
"e 	c #432E2E",
"f 	c #5F4343",
"g 	c #CE6262",
"h 	c #B15959",
"i 	c #352428",
"j 	c #985858",
"k 	c #E86868",
"l 	c #E26363",
"m 	c #773030",
"n 	c #EA6565",
"o 	c #8A5656",
"p 	c #463030",
"q 	c #715353",
"r 	c #F96C6C",
"s 	c #E66767",
"t 	c #F26A6A",
"u 	c #A65A5A",
"v 	c #3E2A2A",
"w 	c #2D1E28",
"x 	c #9B5858",
"y 	c #DA6565",
"z 	c #7F5252",
"A 	c #533A3A",
"B 	c #4A3535",
"C 	c #A85B5B",
"D 	c #6C4C4C",
"E 	c #694A4A",
"F 	c #4C3535",
"G 	c #674949",
"H 	c #6E4E4E",
"I 	c #1B1328",
"J 	c #2C1D28",
"K 	c #201428",
"L 	c #503838",
"M 	c #735151",
"N 	c #664848",
"O 	c #2A1B28",
"P 	c #704F4F",
"Q 	c #221628",
"R 	c #765454",
"S 	c #4D3535",
"T 	c #281A28",
"U 	c #563C3C",
"V 	c #2F1F28",
"W 	c #8D5656",
"X 	c #6E4B4B",
"Y 	c #604344",
"Z 	c #6C4D4D",
"` 	c #935757",
" .	c #B85757",
"..	c #975050",
"+.	c #BE5F5F",
"@.	c #785353",
"#.	c #745252",
"$.	c #A35757",
"%.	c #EC6666",
"&.	c #7F3434",
"*.	c #985050",
"=.	c #412D2D",
"-.	c #D06262",
";.	c #D66464",
">.	c #825555",
",.	c #725353",
"'.	c #BA5E5E",
").	c #CB6161",
"!.	c #735353",
"~.	c #9D5959",
"{.	c #C66060",
"].	c #F86B6B",
"^.	c #E46565",
"/.	c #EC6868",
"(.	c #CB5656",
"_.	c #943D3D",
":.	c #715050",
"<.	c #523939",
"[.	c #845555",
"}.	c #E76464",
"|.	c #C35353",
"1.	c #361328",
"2.	c #C25F5F",
"3.	c #EE6969",
"4.	c #D96464",
"5.	c #805050",
"6.	c #604343",
"7.	c #864343",
"8.	c #682929",
"9.	c #A44545",
"0.	c #5D4141",
"a.	c #262B44",
"b.	c #805454",
"c.	c #D15A5A",
"d.	c #4D1C28",
"e.	c #5A3F3F",
"f.	c #756988",
"g.	c #865555",
"h.	c #D05959",
"i.	c #C55454",
"j.	c #C65454",
"k.	c #D05F5F",
"l.	c #903B3B",
"m.	c #431728",
"n.	c #AA5B5B",
"o.	c #A95B5B",
"p.	c #521E28",
"q.	c #E26161",
"r.	c #331928",
"s.	c #562028",
"t.	c #481A28",
". . . . . . . . . . . . . . . . . . . . . . . . . . . . . . . . . . . . . . . . . . ",
". . . . . . . . . . . . . . . . . . . . . . . . . . . + . . . . . . . . . . . . . . ",
". . . . . . . . . . . . . . . . . . . . . . . . . . . . . . . . . . . . . . . . . . ",
". . . . . . . . . . . . . . . . . . . . . . . . . @ . . . . . . . . . . . . . . + . ",
". . . . . . . . . . . . . . . . . . . . . . . . . # # $ . . . . . . . . . . . . . . ",
". . . . . . . . . . . . . . . . . . . . . . . % & * = - ; . . . . . . . . . . . . . ",
". . . . . . . . . . . . . . . . . . . . . . > , * * ' ) ! ~ . . . . . . . . . . . . ",
". . . . . . . . . . . . . . . . . . . . . . { * * * ] ^ ^ / . . . . . . . . . . . . ",
". . . . . . . . . . . . . . . . . . . . . . ( _ * * * * * : . . . . . . . . . . . . ",
". . . . . . . . . . . . . . . . . . . . . . . < [ * * * } . . . . . . . . . . . . . ",
". . . . . . . . . . . . . . . . . . . . . . . . | 1 1 2 . . . . . . 3 1 1 . . . . . ",
". . . . . . . . . . 4 . . . . . . . . . . . . . . . . 5 6 7 8 . . 9 _ 0 a b . . . . ",
". . . . . . . . c d : % . . . . . . . . . . . . . e f ] g ) h i # * * j k l i . . . ",
". . . . . . . m n o * , > . . . . . . . . . . . p _ * q r ) s 1 . } * * j 0 1 . @ . ",
". . . . . . . t u * * * { . . . v w . . . . . i * * * * x y z 3 . . A * * * 1 . . . ",
". . . . . . B C * * * _ ( . . % D i . . . . . i * * * * * * E . . . . F G H i . . . ",
". . . . . . & * * * * v . . I J K . . . . . . . L M * * _ 9 K . . . . . I K . . . . ",
". . . . . . & * * * N # . . w i . . . . . . . . . : 1 1 3 . . . . . . . . . . . . . ",
". . . . . . O P [ v # . . . . . . . . . . . . . . . . . . . . . Q . . . 4 . . . . . ",
". . . . . . . . . . . . . . . 4 . . . . . . . . . . . . . . K & [ . . . . . . . . . ",
". . . . . . . . . . . . . . . . . . . . . . . . . . . . . . i R S . . . . . . . . . ",
". . . . . . . . . . . . . . . . . . . . . . . . . . . . . . . . . T E R } . . . . . ",
". . . . . . . . . . . . . . . . . . . . . . . . . . . . . . . . . : * * * U . . . . ",
". . . . . . . . . . . . . . . . . . . . . . . . . . . . I i V . . : * * W X . . . . ",
". . . . . . . . . # 1 L . . . . . . . . . . . # 1 L . . Y * [ | . i Z ` a  .. . . . ",
". . . . . . . . I ..+.@.U . . . . . . . . . . G * #.E E * * * 1 . . O $.%.&.. . . . ",
". . . . . . . T *.t ) x * } . . . . . . . . ( _ * * * * * * * 1 . . . . . . . . . . ",
". . . . . . . =.-.) ;.>.* R . . . . . . . . { * * * * * ] ,.,.1 . . . . . . . . . . ",
". . . . . . . =.'.).!.* * R . . . . . . . . { * * * * ~.{.].^.3 . } R R R e . . . . ",
". . . . . . . =.* * * * * R . . . . . . . . { * * * 0 /.) (._.. U * * * * E . . . . ",
". . . . . . . ( :.* * * * R . . . . . . . . <.#.* [.s }.|.1.. L @.2.3.4.5.w . . . . ",
". . . . . . . . =._ * * * 6.. . . . . . . . . L 1 1 7.8.. . # N +.) ) ) 9.. . . . . ",
". . . . . . . . . e [ [ 0.I . . . . . . . # # # # # a.. . # G b.s ) ) c.d.. . . . . ",
". . . . . . . . @ . . . . . . . . . . . v * * * * * G : e.f.g.y h.i.j.. . . . . . . ",
". . . . . . . . . . . . . . . . . . . . & * * * * * * * q '.k.l.m.. . . . . . . . . ",
". . . . . . . . . . . . . . . . . . . . A * * >.n.n.n.o.r ].p.. . . . . . . . . . . ",
". . . . . . . . . . . . . . . . . @ . . . } * x ) ) ) ) q.9.1.. . . . . . . . . . . ",
". . . . . . . . a.. . . . . . . . . . . . . # r.s.s.s.s.t.. . . . . . . . . . . . . ",
". . . . . . . . . . . . . a.. . . . . . . . . . . . . . . . . . . . . . @ . . . . . ",
". . . . . . . . . . . . . . . . . . . . . . . . . . . . . . . . . . . . . . . . . . ",
". . . . . . . . . . . . . . . . . . . . . . . . . . . . . . . . . . . . . . . . . . ",
". . . . . . . . . . . . . . . . . . . . . . . . . . . . . . . . . . . . . . . . . . "};
