/* XPM */
static char * X06_xpm[] = {
"42 42 63 1",
" 	c None",
".	c #181328",
"+	c #8B9BB4",
"@	c #3A4466",
"#	c #241728",
"$	c #1D1328",
"%	c #201428",
"&	c #634646",
"*	c #755353",
"=	c #6B4B4B",
"-	c #2F1F28",
";	c #352428",
">	c #4B3434",
",	c #6E4E4E",
"'	c #5F4343",
")	c #553B3B",
"!	c #543B3B",
"~	c #5A6988",
"{	c #422E2E",
"]	c #694A4A",
"^	c #503838",
"/	c #593E3E",
"(	c #624545",
"_	c #4D3535",
":	c #674949",
"<	c #5B4040",
"[	c #765454",
"}	c #563C3C",
"|	c #5D4141",
"1	c #372528",
"2	c #402C2C",
"3	c #654747",
"4	c #463030",
"5	c #725151",
"6	c #3A2828",
"7	c #4A3333",
"8	c #6F4F4F",
"9	c #392728",
"0	c #2D1E28",
"a	c #3C2828",
"b	c #281A28",
"c	c #221628",
"d	c #412D2D",
"e	c #745252",
"f	c #262B44",
"g	c #604343",
"h	c #1B1328",
"i	c #322128",
"j	c #735151",
"k	c #483131",
"l	c #6C4C4C",
"m	c #715050",
"n	c #523939",
"o	c #583E3E",
"p	c #473131",
"q	c #352B44",
"r	c #2A1B28",
"s	c #644646",
"t	c #362528",
"u	c #765353",
"v	c #432E2E",
"w	c #6A4B4B",
"x	c #1A1328",
"..........................................",
"...........................+..............",
"..........................................",
".........................@..............+.",
".........................###$.............",
".......................%&***=-............",
".......................;*****>............",
".......................;******#...........",
".......................%>,***'............",
".........................%###.............",
"...................................)!.....",
"..........~................${]]^../**(....",
".........%>%..............>=****;._***!...",
"........_:*(.............<******;..[**).@.",
".......}****|.12.........]****34...;&/....",
".......[***56............7***'............",
".......,**89..............###.............",
".......0!!a...............................",
"....................................~.....",
"...............~.................-b.......",
".................................bc.......",
"...................................cd6....",
"...................................3*]....",
"...................................[*e^...",
"............................f......g*8a...",
"............................##%....h;-....",
"..........................>>**,;..........",
".........................<*****!..........",
".......c3[[_............)******!....i6....",
".......d***jk...........!*****,;...|lmd...",
".......6m**en...........!***57%..%(**j>...",
"........d5*o............a8*'p....&***^....",
".........i;..............-qh....#***5c....",
"........@....................~..h:*,6.....",
".......................r&&&s.....bdt......",
".....................}[u****s.............",
".................@...[******&.............",
"........f............v]]]]]wx.............",
".............f......................@.....",
"..........................................",
"..........................................",
".........................................."};
