/* XPM */
static char * C:\Users\User\Documents\42W\so_long\W04_xpm[] = {
"42 42 941 2",
"  	c None",
". 	c #181328",
"+ 	c #1C1328",
"@ 	c #1B1328",
"# 	c #1A1328",
"$ 	c #595959",
"% 	c #303030",
"& 	c #182945",
"* 	c #236491",
"= 	c #1C5F90",
"- 	c #1A6291",
"; 	c #1B6391",
"> 	c #1D6290",
", 	c #1E6191",
"' 	c #1C5E91",
") 	c #346196",
"! 	c #18254A",
"~ 	c #737373",
"{ 	c #191328",
"] 	c #AEAEAE",
"^ 	c #939393",
"/ 	c #18132C",
"( 	c #183C66",
"_ 	c #3A86C9",
": 	c #3082C9",
"< 	c #3183CA",
"[ 	c #3183C9",
"} 	c #3382CA",
"| 	c #3281CA",
"1 	c #3483CB",
"2 	c #3183CB",
"3 	c #2282CA",
"4 	c #3984CB",
"5 	c #707070",
"6 	c #9D9D9D",
"7 	c #B0B0B0",
"8 	c #FFFFFF",
"9 	c #555555",
"0 	c #1873B8",
"a 	c #183B95",
"b 	c #183B99",
"c 	c #183C99",
"d 	c #183C98",
"e 	c #185CB8",
"f 	c #185EB9",
"g 	c #183990",
"h 	c #185CB2",
"i 	c #1861B5",
"j 	c #18398E",
"k 	c #EBEBEB",
"l 	c #18436A",
"m 	c #182C4F",
"n 	c #265883",
"o 	c #C3C3C3",
"p 	c #6B6B6B",
"q 	c #1858AE",
"r 	c #183A99",
"s 	c #183B9B",
"t 	c #183C9B",
"u 	c #183C9A",
"v 	c #184CA9",
"w 	c #1853AF",
"x 	c #1853AC",
"y 	c #1851AA",
"z 	c #1851A6",
"A 	c #1854AD",
"B 	c #F8F8F8",
"C 	c #1D629B",
"D 	c #25598A",
"E 	c #265A87",
"F 	c #222B4D",
"G 	c #1A507E",
"H 	c #3288C6",
"I 	c #C2C2C2",
"J 	c #6A6A6A",
"K 	c #183E9A",
"L 	c #183B9D",
"M 	c #183B9F",
"N 	c #183C9E",
"O 	c #183C9D",
"P 	c #183D9B",
"Q 	c #18439D",
"R 	c #1867C0",
"S 	c #184BA1",
"T 	c #18449F",
"U 	c #1868C1",
"V 	c #F7F7F7",
"W 	c #187EC9",
"X 	c #278ACC",
"Y 	c #2F89CB",
"Z 	c #1E4C7E",
"` 	c #3682B2",
" .	c #1E7AB7",
"..	c #1868B2",
"+.	c #A7A7A7",
"@.	c #FDFDFD",
"#.	c #484848",
"$.	c #183E9E",
"%.	c #183A9D",
"&.	c #183B9A",
"*.	c #183C94",
"=.	c #185AB2",
"-.	c #1860B8",
";.	c #E5E5E5",
">.	c #1859AE",
",.	c #1867B8",
"'.	c #1867B6",
").	c #187ABD",
"!.	c #3A80B3",
"~.	c #182E4D",
"{.	c #185578",
"].	c #449683",
"^.	c #3E947B",
"/.	c #2C8D74",
"(.	c #676767",
"_.	c #1841A0",
":.	c #183D9F",
"<.	c #183B9E",
"[.	c #183A9B",
"}.	c #183D99",
"|.	c #184DA7",
"1.	c #1854AC",
"2.	c #1850AF",
"3.	c #C1C1C1",
"4.	c #1851AC",
"5.	c #1857AF",
"6.	c #1869B9",
"7.	c #1881A6",
"8.	c #3E9787",
"9.	c #185479",
"0.	c #183251",
"a.	c #185677",
"b.	c #2992AA",
"c.	c #68A450",
"d.	c #6DAB42",
"e.	c #6BAB3B",
"f.	c #686868",
"g.	c #184397",
"h.	c #183D9C",
"i.	c #183B9C",
"j.	c #183A9E",
"k.	c #183D9A",
"l.	c #183D97",
"m.	c #18429D",
"n.	c #186AC0",
"o.	c #184DA3",
"p.	c #184095",
"q.	c #389074",
"r.	c #65A75C",
"s.	c #2B90A9",
"t.	c #3982AC",
"u.	c #4A9A7B",
"v.	c #6BA94F",
"w.	c #67AD36",
"x.	c #519F28",
"y.	c #2C8A28",
"z.	c #696969",
"A.	c #187394",
"B.	c #1867AF",
"C.	c #1865B9",
"D.	c #1864B9",
"E.	c #1859B4",
"F.	c #183A9C",
"G.	c #183CA0",
"H.	c #1842A3",
"I.	c #1866BF",
"J.	c #1867B1",
"K.	c #1868B3",
"L.	c #1869AC",
"M.	c #1867B5",
"N.	c #1868A8",
"O.	c #188049",
"P.	c #238828",
"Q.	c #61AA4D",
"R.	c #338868",
"S.	c #185A86",
"T.	c #182F4D",
"U.	c #1A4D73",
"V.	c #4C947B",
"W.	c #639C5C",
"X.	c #6EA93C",
"Y.	c #4B9C28",
"Z.	c #499B28",
"`.	c #188149",
" +	c #187784",
".+	c #1868B6",
"++	c #1853AE",
"@+	c #1852A9",
"#+	c #18409B",
"$+	c #1844A0",
"%+	c #1868B8",
"&+	c #18829C",
"*+	c #188978",
"=+	c #187B54",
"-+	c #1868B7",
";+	c #1869AE",
">+	c #188A82",
",+	c #42913C",
"'+	c #419A28",
")+	c #4F9F28",
"!+	c #2F8B2D",
"~+	c #187246",
"{+	c #183752",
"]+	c #181E3B",
"^+	c #265B85",
"/+	c #4386B8",
"(+	c #70A452",
"_+	c #71A741",
":+	c #6AA92F",
"<+	c #278C28",
"[+	c #459928",
"}+	c #6DAF32",
"|+	c #1C8C28",
"1+	c #188538",
"2+	c #186CB2",
"3+	c #18449C",
"4+	c #1849A2",
"5+	c #186CC5",
"6+	c #1848A2",
"7+	c #1847A1",
"8+	c #1866B2",
"9+	c #419D77",
"0+	c #5BA548",
"a+	c #1D8B28",
"b+	c #1868BB",
"c+	c #186CA9",
"d+	c #67A956",
"e+	c #68AB3D",
"f+	c #63AD33",
"g+	c #218C28",
"h+	c #198D28",
"i+	c #188A28",
"j+	c #186186",
"k+	c #183B69",
"l+	c #195C87",
"m+	c #3789B2",
"n+	c #71A548",
"o+	c #559C28",
"p+	c #2F8E28",
"q+	c #60AB28",
"r+	c #4AA028",
"s+	c #249128",
"t+	c #1B8E28",
"u+	c #188632",
"v+	c #1869AB",
"w+	c #185BB6",
"x+	c #4C4D4D",
"y+	c #6F7070",
"z+	c #1863BD",
"A+	c #1870AC",
"B+	c #188182",
"C+	c #65A83F",
"D+	c #C5C5C5",
"E+	c #186BA8",
"F+	c #6CA946",
"G+	c #499A28",
"H+	c #288D28",
"I+	c #60AA31",
"J+	c #449C28",
"K+	c #188B28",
"L+	c #186776",
"M+	c #183E64",
"N+	c #18485E",
"O+	c #227778",
"P+	c #469777",
"Q+	c #6BA843",
"R+	c #5DA22A",
"S+	c #419828",
"T+	c #55A128",
"U+	c #3D9A28",
"V+	c #188F28",
"W+	c #187B6A",
"X+	c #1869B6",
"Y+	c #185AB5",
"Z+	c #1856B2",
"`+	c #BFA6A6",
" @	c #DFCBCB",
".@	c #186DA3",
"+@	c #18786F",
"@@	c #186F9E",
"#@	c #18799E",
"$@	c #6DAD50",
"%@	c #186EA6",
"&@	c #6CA94A",
"*@	c #5AA128",
"=@	c #439728",
"-@	c #54A328",
";@	c #3C9928",
">@	c #188C28",
",@	c #187440",
"'@	c #185B47",
")@	c #182F40",
"!@	c #3A8BB8",
"~@	c #529D7B",
"{@	c #6EA748",
"]@	c #6FAA35",
"^@	c #6CAC37",
"/@	c #6AAD34",
"(@	c #308A28",
"_@	c #189028",
":@	c #5F5F5F",
"<@	c #186BB1",
"[@	c #1869BE",
"}@	c #1848A4",
"|@	c #EEEFEF",
"1@	c #F3F5F5",
"2@	c #545454",
"3@	c #218528",
"4@	c #187786",
"5@	c #187B9B",
"6@	c #68AF54",
"7@	c #F5F5F5",
"8@	c #18739A",
"9@	c #69AC4C",
"0@	c #69AA36",
"a@	c #68AD35",
"b@	c #208E28",
"c@	c #1F8F28",
"d@	c #198F28",
"e@	c #187937",
"f@	c #185F86",
"g@	c #348BBA",
"h@	c #4E9D70",
"i@	c #6BA840",
"j@	c #71AB36",
"k@	c #529C28",
"l@	c #259028",
"m@	c #5DA728",
"n@	c #459F28",
"o@	c #1A8E28",
"p@	c #CECECE",
"q@	c #CFCFCF",
"r@	c #CCCCCC",
"s@	c #CDCDCD",
"t@	c #F2F2F2",
"u@	c #D0D0D0",
"v@	c #C9C9C9",
"w@	c #F4F4F4",
"x@	c #C0C0C0",
"y@	c #27917C",
"z@	c #59A354",
"A@	c #308F28",
"B@	c #299328",
"C@	c #249428",
"D@	c #198C28",
"E@	c #187C30",
"F@	c #18617E",
"G@	c #18274A",
"H@	c #184364",
"I@	c #3D9587",
"J@	c #609D57",
"K@	c #6BA93F",
"L@	c #5AA428",
"M@	c #4B9F28",
"N@	c #369628",
"O@	c #4FA528",
"P@	c #389C28",
"Q@	c #F9F9F9",
"R@	c #D5D5D5",
"S@	c #DDDDDD",
"T@	c #DEDEDE",
"U@	c #DADADA",
"V@	c #BEBEBE",
"W@	c #F3F3F3",
"X@	c #419548",
"Y@	c #55A029",
"Z@	c #248428",
"`@	c #186F4D",
" #	c #182D48",
".#	c #18193A",
"+#	c #2C6191",
"@#	c #338DB2",
"##	c #6EA750",
"$#	c #70AA39",
"%#	c #69AA31",
"&#	c #288A28",
"*#	c #489A28",
"=#	c #6AAD2F",
"-#	c #238B28",
";#	c #F5F6F6",
">#	c #232424",
",#	c #343434",
"'#	c #373737",
")#	c #2E2F2F",
"!#	c #757575",
"~#	c #BCBCBC",
"{#	c #282828",
"]#	c #353636",
"^#	c #363636",
"/#	c #2B2C2C",
"(#	c #1D8E28",
"_#	c #1E8E28",
":#	c #188E28",
"<#	c #188D28",
"[#	c #61AB33",
"}#	c #4F9E28",
"|#	c #1F8828",
"1#	c #186483",
"2#	c #18406C",
"3#	c #235E90",
"4#	c #188CAD",
"5#	c #67AB4A",
"6#	c #519D28",
"7#	c #3A9128",
"8#	c #5DA528",
"9#	c #4C9F28",
"0#	c #339228",
"a#	c #18852E",
"b#	c #187682",
"c#	c #6B6C6C",
"d#	c #1867BA",
"e#	c #185DB5",
"f#	c #18439E",
"g#	c #185BB3",
"h#	c #186CB0",
"i#	c #2D9277",
"j#	c #599D4A",
"k#	c #369128",
"l#	c #C1C2C2",
"m#	c #189328",
"n#	c #187D3B",
"o#	c #18777C",
"p#	c #187687",
"q#	c #187775",
"r#	c #68A451",
"s#	c #6AA53B",
"t#	c #5FA443",
"u#	c #186388",
"v#	c #183F6E",
"w#	c #245F91",
"x#	c #1F8CB1",
"y#	c #64A948",
"z#	c #53A028",
"A#	c #3F9428",
"B#	c #5EA628",
"C#	c #4B9D28",
"D#	c #379528",
"E#	c #188242",
"F#	c #186AB1",
"G#	c #6D6F6F",
"H#	c #EDEEEE",
"I#	c #E1E3E3",
"J#	c #185CB4",
"K#	c #1855AC",
"L#	c #1846A0",
"M#	c #185BB2",
"N#	c #BEBFBF",
"O#	c #F6F6F6",
"P#	c #1869B0",
"Q#	c #499A66",
"R#	c #63A63C",
"S#	c #389128",
"T#	c #B2B4B4",
"U#	c #B4B5B5",
"V#	c #189428",
"W#	c #18862B",
"X#	c #187977",
"Y#	c #186BAF",
"Z#	c #185EA8",
"`#	c #1866B1",
" $	c #186BAE",
".$	c #4B9874",
"+$	c #58995A",
"@$	c #519964",
"#$	c #185F8E",
"$$	c #183F6D",
"%$	c #216091",
"&$	c #268BB4",
"*$	c #6EA749",
"=$	c #6EAA2F",
"-$	c #6AAD30",
";$	c #2D8C28",
">$	c #4D9C28",
",$	c #6FB233",
"'$	c #208D28",
")$	c #188244",
"!$	c #186CAF",
"~$	c #707373",
"{$	c #EDDBDB",
"]$	c #E2D5D5",
"^$	c #184099",
"/$	c #1869C4",
"($	c #1846A3",
"_$	c #EEEEEE",
":$	c #575858",
"<$	c #4E9A5D",
"[$	c #6CAC3F",
"}$	c #73AC32",
"|$	c #B4ACAC",
"1$	c #B5ADAD",
"2$	c #3A9A28",
"3$	c #18719A",
"4$	c #186CB7",
"5$	c #1866BC",
"6$	c #183D93",
"7$	c #1868AD",
"8$	c #185D9A",
"9$	c #6DA84A",
"0$	c #589B28",
"a$	c #3C9228",
"b$	c #5BA628",
"c$	c #549A28",
"d$	c #359228",
"e$	c #188347",
"f$	c #4A5051",
"g$	c #FD4C47",
"h$	c #DD7272",
"i$	c #1859B1",
"j$	c #1845A5",
"k$	c #626363",
"l$	c #589860",
"m$	c #67A436",
"n$	c #459328",
"o$	c #9E6969",
"p$	c #FF3128",
"q$	c #9F6B6C",
"r$	c #268F28",
"s$	c #188728",
"t$	c #186EA5",
"u$	c #1857A9",
"v$	c #185FB8",
"w$	c #1863B4",
"x$	c #186BB9",
"y$	c #185D9D",
"z$	c #183F70",
"A$	c #206090",
"B$	c #6DA94A",
"C$	c #329428",
"D$	c #5DA428",
"E$	c #4C9D28",
"F$	c #2D9328",
"G$	c #188629",
"H$	c #187787",
"I$	c #48572D",
"J$	c #18469C",
"K$	c #1856AE",
"L$	c #1844A5",
"M$	c #183E9F",
"N$	c #E3E4E4",
"O$	c #D3D3D3",
"P$	c #B1B1B1",
"Q$	c #5A5B5B",
"R$	c #3A957B",
"S$	c #559D4D",
"T$	c #329128",
"U$	c #4E9F28",
"V$	c #566648",
"W$	c #1E8328",
"X$	c #188328",
"Y$	c #18833F",
"Z$	c #186DAA",
"`$	c #1857AE",
" %	c #1868BC",
".%	c #186CAE",
"+%	c #187A9B",
"@%	c #18778B",
"#%	c #187685",
"$%	c #18768D",
"%%	c #185E96",
"&%	c #18406F",
"*%	c #20618F",
"=%	c #6DA94C",
"-%	c #6AAE31",
";%	c #69AF30",
">%	c #298928",
",%	c #4A9C28",
"'%	c #65B12D",
")%	c #188828",
"!%	c #186FA5",
"~%	c #1868BE",
"{%	c #1869C1",
"]%	c #184398",
"^%	c #184BA2",
"/%	c #9B9B9B",
"(%	c #D6D6D6",
"_%	c #CECFCF",
":%	c #ABABAB",
"<%	c #E2E2E2",
"[%	c #A3A3A3",
"}%	c #525253",
"|%	c #6AAF51",
"1%	c #3D9528",
"2%	c #188528",
"3%	c #186EA0",
"4%	c #186DB1",
"5%	c #186BB0",
"6%	c #1869BB",
"7%	c #2B9080",
"8%	c #62AA45",
"9%	c #1E8F28",
"0%	c #186282",
"a%	c #183E6C",
"b%	c #278BB5",
"c%	c #6EAA4D",
"d%	c #579D28",
"e%	c #3D9628",
"f%	c #57A328",
"g%	c #189128",
"h%	c #1870A1",
"i%	c #18469F",
"j%	c #868686",
"k%	c #EDEDED",
"l%	c #E1E1E1",
"m%	c #EFF0F0",
"n%	c #D9DADA",
"o%	c #AAACAC",
"p%	c #F1F1F2",
"q%	c #EAEBEB",
"r%	c #FCFCFC",
"s%	c #B9B9B9",
"t%	c #187980",
"u%	c #18748A",
"v%	c #184CA8",
"w%	c #1866B5",
"x%	c #18869D",
"y%	c #4A975F",
"z%	c #218430",
"A%	c #489634",
"B%	c #69AA35",
"C%	c #18637B",
"D%	c #22618D",
"E%	c #288BB6",
"F%	c #6BA947",
"G%	c #359328",
"H%	c #5BA528",
"I%	c #4C9C28",
"J%	c #2F9128",
"K%	c #189228",
"L%	c #1871A2",
"M%	c #185AB4",
"N%	c #FAFAFA",
"O%	c #E3E4D0",
"P%	c #EEF0F0",
"Q%	c #E3C7C7",
"R%	c #CAA7A7",
"S%	c #E3E3E4",
"T%	c #F6F6E4",
"U%	c #F3F4F4",
"V%	c #D9D9D9",
"W%	c #1863B5",
"X%	c #184EAA",
"Y%	c #186AB5",
"Z%	c #359172",
"`%	c #67AB46",
" &	c #358F28",
".&	c #4C9E28",
"+&	c #61A728",
"@&	c #349228",
"#&	c #239028",
"$&	c #18637C",
"%&	c #183E6F",
"&&	c #266494",
"*&	c #3B8DBB",
"=&	c #69A651",
"-&	c #6CA73B",
";&	c #67AC32",
">&	c #278B28",
",&	c #449B28",
"'&	c #65B02A",
")&	c #1872A0",
"!&	c #A9A9A9",
"~&	c #F1F1F1",
"{&	c #F7F8F8",
"]&	c #E6E7E9",
"^&	c #F7F9F9",
"/&	c #F6C0C0",
"(&	c #E6ABAB",
"_&	c #F5F6F7",
":&	c #E5E6E6",
"<&	c #F7F8F9",
"[&	c #F2F2F3",
"}&	c #ECECEC",
"|&	c #DFDFDF",
"1&	c #183A8C",
"2&	c #1858B1",
"3&	c #1869C3",
"4&	c #2F9178",
"5&	c #6DA84B",
"6&	c #6CAD39",
"7&	c #208C28",
"8&	c #67B034",
"9&	c #4AA228",
"0&	c #1B8B28",
"a&	c #18667B",
"b&	c #18426C",
"c&	c #18445F",
"d&	c #3C9982",
"e&	c #5A9E54",
"f&	c #71AA38",
"g&	c #56A028",
"h&	c #7A7A7A",
"i&	c #F8F9F9",
"j&	c #E2E3E3",
"k&	c #EDEFEF",
"l&	c #F7C5C5",
"m&	c #E5AAAB",
"n&	c #F0F3F3",
"o&	c #FBFBFB",
"p&	c #C8C8C8",
"q&	c #1855AD",
"r&	c #184EA6",
"s&	c #1866BB",
"t&	c #1876A7",
"u&	c #20847D",
"v&	c #72A748",
"w&	c #63A52A",
"x&	c #55A328",
"y&	c #3E9728",
"z&	c #218628",
"A&	c #187052",
"B&	c #181736",
"C&	c #278DB7",
"D&	c #4E9F6D",
"E&	c #68A728",
"F&	c #4E9D28",
"G&	c #318E28",
"H&	c #DBDBDB",
"I&	c #F1F2F2",
"J&	c #F6F7F7",
"K&	c #DBDCDD",
"L&	c #F5C0C0",
"M&	c #E5AAAA",
"N&	c #ECEFEF",
"O&	c #DDDEDE",
"P&	c #F0F1F1",
"Q&	c #18449B",
"R&	c #186EA4",
"S&	c #6AA731",
"T&	c #64A828",
"U&	c #2D9028",
"V&	c #185F8A",
"W&	c #181329",
"X&	c #4388BD",
"Y&	c #4E9E77",
"Z&	c #68AA42",
"`&	c #288B28",
" *	c #449928",
".*	c #63AE3C",
"+*	c #606061",
"@*	c #D7D7D7",
"#*	c #EAEAEA",
"$*	c #F0F0F0",
"%*	c #ECEDED",
"&*	c #EBECEC",
"**	c #E2E4E5",
"=*	c #F5BDBF",
"-*	c #E59197",
";*	c #F4F5F6",
">*	c #EFEFEF",
",*	c #E9E9E9",
"'*	c #1866C0",
")*	c #183D92",
"!*	c #1854AA",
"~*	c #186CA7",
"{*	c #6CA547",
"]*	c #4E9928",
"^*	c #298B28",
"/*	c #68AD43",
"(*	c #3D8D60",
"_*	c #185B89",
":*	c #1A466D",
"<*	c #18777E",
"[*	c #3B988B",
"}*	c #187E62",
"|*	c #188070",
"1*	c #26896B",
"2*	c #1C8E28",
"3*	c #ADADAD",
"4*	c #FAFAFB",
"5*	c #DDDDDE",
"6*	c #E6E7E7",
"7*	c #D8DADA",
"8*	c #FAF8E7",
"9*	c #F6EFC9",
"0*	c #E1E2E3",
"a*	c #E6E6E6",
"b*	c #E5E5E6",
"c*	c #D6D6D7",
"d*	c #184EA8",
"e*	c #1856AB",
"f*	c #1860B7",
"g*	c #186AAB",
"h*	c #6FA451",
"i*	c #65A328",
"j*	c #589F31",
"k*	c #288255",
"l*	c #186161",
"m*	c #1D5A88",
"n*	c #3A86CA",
"o*	c #1867B2",
"p*	c #1869A7",
"q*	c #188928",
"r*	c #CBCBCC",
"s*	c #ECEDEE",
"t*	c #E9EAEA",
"u*	c #FBFBFD",
"v*	c #F7F7F8",
"w*	c #EBEBEC",
"x*	c #F5F5F6",
"y*	c #6F6F70",
"z*	c #1865BB",
"A*	c #1867BB",
"B*	c #1869A9",
"C*	c #62A263",
"D*	c #68A73D",
"E*	c #61A742",
"F*	c #183C62",
"G*	c #2A5888",
"H*	c #3A86CB",
"I*	c #184197",
"J*	c #1852A8",
"K*	c #186DB0",
"L*	c #186DAD",
"M*	c #C7C79C",
"N*	c #E0E0BD",
"O*	c #DCDCDD",
"P*	c #DCDCDC",
"Q*	c #E4E4E4",
"R*	c #E6E6BF",
"S*	c #D0D0D1",
"T*	c #C5C5C6",
"U*	c #EEEEC8",
"V*	c #ECECED",
"W*	c #E2E293",
"X*	c #B7B7B8",
"Y*	c #6D6D6F",
"Z*	c #183C93",
"`*	c #1853AA",
" =	c #1866A5",
".=	c #187C4F",
"+=	c #228728",
"@=	c #186084",
"#=	c #183D67",
"$=	c #1E2E4E",
"%=	c #1A4C7D",
"&=	c #185EAA",
"*=	c #1850A7",
"==	c #CACAB1",
"-=	c #F1F1DD",
";=	c #EEEEEF",
">=	c #EDEDEE",
",=	c #E4E4E5",
"'=	c #EAEAEB",
")=	c #E0E0E1",
"!=	c #E6E6E8",
"~=	c #EFEFF0",
"{=	c #F4F4C8",
"]=	c #B8B8B9",
"^=	c #707071",
"/=	c #1854AB",
"(=	c #1852AB",
"_=	c #186E89",
":=	c #18714D",
"<=	c #183650",
"[=	c #18213F",
"}=	c #3880BC",
"|=	c #1867AC",
"1=	c #184FAC",
"2=	c #C3C3C4",
"3=	c #B3B3B4",
"4=	c #E0E0E0",
"5=	c #E7E7E7",
"6=	c #E3E3E3",
"7=	c #D7D7D8",
"8=	c #1869B8",
"9=	c #183E94",
"0=	c #1866B6",
"a=	c #1863A3",
"b=	c #185783",
"c=	c #18557E",
"d=	c #4083CA",
"e=	c #18409A",
"f=	c #183CA1",
"g=	c #949494",
"h=	c #F4F4F5",
"i=	c #186AB9",
"j=	c #1850A9",
"k=	c #183C95",
"l=	c #185AA1",
"m=	c #183564",
"n=	c #183447",
"o=	c #18537F",
"p=	c #184894",
"q=	c #18459D",
"r=	c #242424",
"s=	c #E8E8E8",
"t=	c #959595",
"u=	c #187B5A",
"v=	c #186EAE",
"w=	c #1858A8",
"x=	c #184B95",
"y=	c #183667",
"z=	c #181B41",
"A=	c #185991",
"B=	c #184D95",
"C=	c #AFAFAF",
"D=	c #18832C",
"E=	c #185590",
"F=	c #1F1328",
"G=	c #18345E",
"H=	c #185C9B",
"I=	c #1A3763",
"J=	c #818182",
"K=	c #18733F",
"L=	c #186182",
"M=	c #185E97",
"N=	c #18345F",
"O=	c #181C3D",
"P=	c #183C67",
"Q=	c #183A6B",
"R=	c #183B71",
"S=	c #818181",
"T=	c #187633",
"U=	c #185647",
"V=	c #183A66",
"W=	c #183B63",
"X=	c #181B3F",
"Y=	c #182D53",
"Z=	c #185C9A",
"`=	c #BBBBBB",
" -	c #E7E7E8",
".-	c #7F7F7F",
"+-	c #186187",
"@-	c #18608A",
"#-	c #183041",
"$-	c #8F8F8F",
"%-	c #EBEBDB",
"&-	c #D4D4C1",
"*-	c #18637A",
"=-	c #182B47",
"--	c #181B31",
";-	c #18446A",
">-	c #646464",
",-	c #A6A6A6",
"'-	c #BDBDBC",
")-	c #B2B2B1",
"!-	c #626263",
"~-	c #18426F",
"{-	c #184170",
"]-	c #18436B",
"^-	c #181832",
". . . . . . . . + @ # . $ % . & * = - - ; ; > , ' ) ! ~ # # { . . . . . . . . . . . ",
". . . . . . . . . . . . ] ^ / ( _ : < [ } | 1 2 3 4 5 6 5 . . . . . . . . . . . . . ",
". . . . . . . . . . . 7 8 8 9 0 a b c d e f g h i j k 8 k l . . . . . . . . . . . . ",
". . . . . . . . . m n o 8 8 p q r s t u v w x y z A B 8 B C D E F . . . . . . . . . ",
". . . { { . . . . G H I 8 8 J K L M N O P Q R S T U V 8 V W X Y Z . . . . . . . . . ",
". . . . . # . . `  ...+.8 @.#.$.%.M M M &.d *.=.-.u ;.8 ;.>.,.'.).!.. . . . . . . . ",
". . . . . . ~.{.].^./.(.8 V _.:.<.M M M %.[.}.|.1.2.3.8 3.4.5.6.7.8.9.0.. . . . . . ",
". . . . . . a.b.c.d.e.f.8 V g.h.i.O N M j.s k.l.m.n.3.8 3.o.p...q.r.s.{.. . . . . . ",
"# . . . . t.u.v.w.x.y.z.8 V A.B.C.D.E.F.G.H.I.J.K.L.I 8 I 6.M.N.O.P.Q.R.S.. . { . . ",
"{ . . T.U.V.W.X.x.Y.Z.z.8 V `. +.+=.++@+#+$+%+&+*+=+I 8 I -+;+>+,+'+)+!+~+{+]+. . . ",
". . . ^+/+(+_+:+<+[+}+z.8 V |+1+2+3+4+5+6+7+8+9+0+a+3.8 I b+c+d+e+f+g+h+i+j+k+. . . ",
". . . l+m+n+o+p+q+r+s+f.8 B t+u+v+D.w+x+y+z+M.A+B+C+D+8 3.-+E+F+G+H+I+J+K+L+M+. . . ",
". . N+O+P+Q+R+S+T+U+V+(.8 8 f.W+X+Y+Z+`+ @.@+@@@#@$@V 8 3.X+%@&@*@=@-@;@>@,@'@)@. @ ",
". . !@~@{@]@^@/@(@K+_@(.8 8 :@<@[@$+}@|@1@2@3@4@5@6@7@8 3.<@8@9@0@a@b@c@d@V+e@f@. . ",
". . g@h@i@j@k@l@m@n@o@(.8 8 D+p@q@r@s@t@k q@q@u@q@v@w@8 x@y@z@A@B@C@V+V+_@D@E@F@. . ",
"G@H@I@J@K@L@M@N@O@P@V+(.8 Q@R@S@T@I U@S@T@V@S@T@T@3.W@8 3.X@Y@h+_@_@o@V+_@N@Z@`@ #.#",
"+#@###$#%#&#*#=#-#>@D@z.8 ;#>#,#'#)#!#8 w@~#{#]#^#/#D+8 I (#_#V+V+:#<#<#>@[#}#|#1#2#",
"3#4#5#6#7#8#9#0#h+a#b#c#8 V d#e#f#g#5 8 W@D+h#i#j#k#l#8 o m#_@:#n#o#p#p#q#r#s#t#u#v#",
"w#x#y#z#A#B#C#D#(#E#F#G#H#I#J#K#L#M#N#8 t@O#P#Q#R#S#T#H#U#V#V+W#X#Y#Z#`# $.$+$@$#$$$",
"%$&$*$=$-$;$>$,$'$)$!$~${$]$^$6+/$($_$8 t@8 :$<$[$}$|${$1$2$i+3$4$5$6$@+'..+7$L.8$v#",
"%$&$9$0$a$b$c$d$:#e$Y#f$g$h$=.i$j$O O#W@w@8 k$l$m$n$o$p$q$r$s$t$u$6+v$w$.+.+6.x$y$z$",
"A$&$B$o+C$D$E$F$V+G$H$X+I$J$J#K$L$M$N$O$P$B Q$R$S$T$U$V$W$X$Y$Z$`$7+ %.%+%@%#%$%%%&%",
"*%&$=%-%;%>%,%'%V+_@)%!%~%{%]%^%/%(%8 _%:%W@<%[%}%|%1%2%3%4%5%X+6%X+F#7%8%9%:#K+0%a%",
"*%b%c%d%e%f%C#D#_@g%K+h%h i%j%k%8 l%m%n%o%w@p%q%r%s%t%u%x$Z+v%w%x%y%z%A%B%9%_@<#C%a%",
"D%E%F%k@G%H%I%J%V+K%>@L%M%+.N%B 7@O%P%Q%R%P%S%T%U%V V%..W%X%}@Y%Z%`% &.&+&@&#&:#$&%&",
"&&*&=&-&;&>&,&'&<#K%<#)&!&7@~&{&W@]&^&/&(&_&:&<&[&O#}&|&1&2&3&'.4&5&6&I%7&8&9&0&a&b&",
"G@c&d&e&f&g&,%;@:#g%>@h&8 ~&;.i&m%j&k&l&m&n&N$k%o&N$_$8 p&q&r&s&t&u&v&w&x&y&z&A& #B&",
". . C&D&e.E&F&G&V+_@>@H&@.B I&l%J&K&P%L&M&N&O&P&k%U%[&~&8 ^#Q&D.'.R&c.S&T&U&n#V&W&. ",
". . X&Y&Z&`& *.*(#_@+*8 @*#*$*W@%*&***=*-*;*n%_$k%k%>*,*k%~#'*)*!*~*{*]*^*/*(*_*. . ",
". . :*<*[*}*|*1*2*_@7 3*4*}&5*k%_$6*7*8*9*0*q%T@7@a*b*~&c*v@d*e*f*g*h*i*j*k*l*m . . ",
". . . m*n*o*'.p*s$q*r@r*[&$*$*_$;.8 s*<&t*u*v*w*_$$*>*~&x*s%y*z*A*B*C*D*E*$&F*. . . ",
". . . G*H*I*J*d#K*L*p&M*N*T@O*P*Q*8 R*S*T*U*V*%*P*P*S@|&W*X*Y*Z*`*A* =.=+=@=#=. . . ",
"{ { . $=%=..&=*=X%i$S*==-=;=>=k%a*8 ,='=)=!=o&a*_$k%_$~={=]=^=/=(=J*8+_=:=<=[=. . . ",
". . . . . }=|=p.K 1=2=3=~&O#4=;.k 5=8 V*V*N%$*w@6=(%>*$*7=V%8=,.(=9=0=a=b=. . . . . ",
". . . . . . c=d=e=f=g=8 }&|&}&k%}&}&T@>*~&V*;.S@_$w@b*#*h=U@Z$i=j=k=l=m=. . . { . . ",
". . . . . . n=o=p=q=r=$*s=O#O#_$}&;.Q*k%S@_$H&k%k%h=_$~&W@t=u=v=w=x=y=z=. . . { . . ",
". . . . . . . . A=B=6$C=8 t@T@w@_$Q*_$k%T@_$S@7@w@|&B Q@#*K+D=L*Z#E=. . . . . . . . ",
"F=F=. . . . . . . G=H=I=t@W@$*_$@.S@_$_$T@_$S@r%>*O#<%8 J=K=L=M=N=. . . . . . . . . ",
". . . . . . . . . O=P=Q=R=s=N%~&V T@>*@.>*>*|&>*B t@O#S=T=U=V=W=X=. . . . . . . . . ",
". . . . . . . . . . . . Y=Z=4=8 ~&)=8 S@`=8  -#*8 V .-+-@-#-. . . . . . . . . . . . ",
". . . . . . . . . . . { . . . $-V r%N%%-&-t@8 _$I *-=-. . . . . . . . . . . . . . . ",
". . . . . . . . . . . . . . . --;->-,-'-)-V@!-~-{-]-^-. . . . . . . . . . . . . . . "};
