/* XPM */
static char * C:\Users\User\Documents\42W\so_long\P03_xpm[] = {
"42 42 234 2",
"  	c None",
". 	c #181328",
"+ 	c #646464",
"@ 	c #A6A6A6",
"# 	c #BDBDBC",
"$ 	c #B2B2B1",
"% 	c #BEBEBE",
"& 	c #626263",
"* 	c #8F8F8F",
"= 	c #F7F7F7",
"- 	c #FCFCFC",
"; 	c #FAFAFA",
"> 	c #EBEBDB",
", 	c #D4D4C1",
"' 	c #F2F2F2",
") 	c #FFFFFF",
"! 	c #EEEEEE",
"~ 	c #C2C2C2",
"{ 	c #181428",
"] 	c #E0E0E0",
"^ 	c #F1F1F1",
"/ 	c #E0E0E1",
"( 	c #DDDDDD",
"_ 	c #BBBBBB",
": 	c #E7E7E8",
"< 	c #EAEAEA",
"[ 	c #7F7F7F",
"} 	c #181628",
"| 	c #E8E8E8",
"1 	c #DEDEDE",
"2 	c #EFEFEF",
"3 	c #FDFDFD",
"4 	c #DFDFDF",
"5 	c #F8F8F8",
"6 	c #F6F6F6",
"7 	c #818181",
"8 	c #1B1B28",
"9 	c #F3F3F3",
"0 	c #F0F0F0",
"a 	c #E2E2E2",
"b 	c #818182",
"c 	c #AFAFAF",
"d 	c #F4F4F4",
"e 	c #E4E4E4",
"f 	c #EDEDED",
"g 	c #F5F5F5",
"h 	c #F9F9F9",
"i 	c #242428",
"j 	c #ECECEC",
"k 	c #E5E5E5",
"l 	c #DBDBDB",
"m 	c #F4F4F5",
"n 	c #959595",
"o 	c #949494",
"p 	c #ECECED",
"q 	c #E5E5E6",
"r 	c #DADADA",
"s 	c #C3C3C4",
"t 	c #B3B3B4",
"u 	c #EBEBEB",
"v 	c #E7E7E7",
"w 	c #E3E3E3",
"x 	c #D6D6D6",
"y 	c #D7D7D8",
"z 	c #D9D9D9",
"A 	c #D0D0D1",
"B 	c #CACAB1",
"C 	c #F1F1DD",
"D 	c #EEEEEF",
"E 	c #EDEDEE",
"F 	c #E6E6E6",
"G 	c #E4E4E5",
"H 	c #EAEAEB",
"I 	c #E6E6E8",
"J 	c #FBFBFB",
"K 	c #EFEFF0",
"L 	c #F4F4C8",
"M 	c #B8B8B9",
"N 	c #707071",
"O 	c #C8C8C8",
"P 	c #C7C79C",
"Q 	c #E0E0BD",
"R 	c #DCDCDD",
"S 	c #DCDCDC",
"T 	c #E6E6BF",
"U 	c #C5C5C6",
"V 	c #EEEEC8",
"W 	c #ECEDED",
"X 	c #E2E293",
"Y 	c #B7B7B8",
"Z 	c #6D6D6F",
"` 	c #CCCCCC",
" .	c #CBCBCC",
"..	c #F2F2F3",
"+.	c #ECEDEE",
"@.	c #F7F8F9",
"#.	c #E9EAEA",
"$.	c #FBFBFD",
"%.	c #F7F7F8",
"&.	c #EBEBEC",
"*.	c #F5F5F6",
"=.	c #B9B9B9",
"-.	c #6F6F70",
";.	c #B0B0B0",
">.	c #ADADAD",
",.	c #FAFAFB",
"'.	c #DDDDDE",
").	c #E6E7E7",
"!.	c #D8DADA",
"~.	c #FAF8E7",
"{.	c #F6EFC9",
"].	c #E1E2E3",
"^.	c #EAEBEB",
"/.	c #D6D6D7",
"(.	c #C9C9C9",
"_.	c #606061",
":.	c #D7D7D7",
"<.	c #EBECEC",
"[.	c #E2E4E5",
"}.	c #F5BDBF",
"|.	c #E59197",
"1.	c #F4F5F6",
"2.	c #D9DADA",
"3.	c #E9E9E9",
"4.	c #BCBCBC",
"5.	c #F1F2F2",
"6.	c #E1E1E1",
"7.	c #F6F7F7",
"8.	c #DBDCDD",
"9.	c #EEF0F0",
"0.	c #F5C0C0",
"a.	c #E5AAAA",
"b.	c #ECEFEF",
"c.	c #DDDEDE",
"d.	c #F0F1F1",
"e.	c #F3F4F4",
"f.	c #363636",
"g.	c #7A7A7A",
"h.	c #F8F9F9",
"i.	c #EFF0F0",
"j.	c #E2E3E3",
"k.	c #EDEFEF",
"l.	c #F7C5C5",
"m.	c #E5AAAB",
"n.	c #F0F3F3",
"o.	c #E3E4E4",
"p.	c #A9A9A9",
"q.	c #F7F8F8",
"r.	c #E6E7E9",
"s.	c #F7F9F9",
"t.	c #F6C0C0",
"u.	c #E6ABAB",
"v.	c #F5F6F7",
"w.	c #E5E6E6",
"x.	c #A7A7A7",
"y.	c #E3E4D0",
"z.	c #E3C7C7",
"A.	c #CAA7A7",
"B.	c #E3E3E4",
"C.	c #F6F6E4",
"D.	c #868686",
"E.	c #AAACAC",
"F.	c #F1F1F2",
"G.	c #9B9B9B",
"H.	c #CECFCF",
"I.	c #ABABAB",
"J.	c #A3A3A3",
"K.	c #525253",
"L.	c #48572D",
"M.	c #D3D3D3",
"N.	c #B1B1B1",
"O.	c #5A5B5B",
"P.	c #566648",
"Q.	c #4A5051",
"R.	c #FD4C47",
"S.	c #DD7272",
"T.	c #626363",
"U.	c #9E6969",
"V.	c #FF3128",
"W.	c #9F6B6C",
"X.	c #707373",
"Y.	c #EDDBDB",
"Z.	c #E2D5D5",
"`.	c #575858",
" +	c #B4ACAC",
".+	c #B5ADAD",
"++	c #6D6F6F",
"@+	c #EDEEEE",
"#+	c #E1E3E3",
"$+	c #BEBFBF",
"%+	c #B2B4B4",
"&+	c #B4B5B5",
"*+	c #6B6C6C",
"=+	c #707070",
"-+	c #C5C5C5",
";+	c #C1C2C2",
">+	c #C3C3C3",
",+	c #696969",
"'+	c #F5F6F6",
")+	c #232428",
"!+	c #343434",
"~+	c #373737",
"{+	c #2E2F2F",
"]+	c #757575",
"^+	c #282828",
"/+	c #353636",
"(+	c #2B2C2C",
"_+	c #676767",
":+	c #D5D5D5",
"<+	c #C1C1C1",
"[+	c #CECECE",
"}+	c #CFCFCF",
"|+	c #CDCDCD",
"1+	c #D0D0D0",
"2+	c #C0C0C0",
"3+	c #5F5F5F",
"4+	c #EEEFEF",
"5+	c #F3F5F5",
"6+	c #545454",
"7+	c #686868",
"8+	c #BFA6A6",
"9+	c #DFCBCB",
"0+	c #4C4D4D",
"a+	c #6F7070",
"b+	c #484848",
"c+	c #6A6A6A",
"d+	c #6B6B6B",
"e+	c #555555",
"f+	c #AEAEAE",
"g+	c #939393",
"h+	c #9D9D9D",
"i+	c #595959",
"j+	c #303030",
"k+	c #737373",
". . . . . . . . . . . . . . . . . + @ # $ % & . . . . . . . . . . . . . . . . . . . ",
". . . . . . . . . . . . . . . * = - ; > , ' ) ! ~ . . . . . . . . . . . . . . . . . ",
". . . . . . . . . . . . . { ] ) ^ / ) ( _ ) : < ) = [ . . . . . . . . . . . . . . . ",
". . . . . . . . . . . . } | ; ^ = 1 2 3 2 2 4 2 5 ' 6 7 . . . . . . . . . . . . . . ",
". . . . . . . . . . . 8 ' 9 0 ! 3 ( ! ! 1 ! ( - 2 6 a ) b . . . . . . . . . . . . . ",
". . . . . . . . . . . c ) ' 1 d ! e ! f 1 ! ( g d 4 5 h < . . . . . . . . . . . . . ",
". . . . . . . . . . i 0 | 6 6 ! j k e f ( ! l f f m ! ^ 9 n . . . . . . . . . . . . ",
". . . . . . . . . . o ) j 4 j f j j 1 2 ^ p k ( ! d q < m r . . . . . . . . . . . . ",
". . . . . . . . . . s t ^ 6 ] k u v ) p p ; 0 d w x 2 0 y z . . . . . . . . . . . . ",
". . . . . . . . . . A B C D E f F ) G H / I J F ! f ! K L M N . . . . . . . . . . . ",
". . . . . . . . . . O P Q 1 R S e ) T A U V p W S S ( 4 X Y Z . . . . . . . . . . . ",
". . . . . . . . . . `  ...0 0 ! k ) +.@.#.$.%.&.! 0 2 ^ *.=.-.. . . . . . . . . . . ",
". . . . . . . . . . ;.>.,.j '.f ! ).!.~.{.].^.1 g F q ^ /.(.. . . . . . . . . . . . ",
". . . . . . . . . . _.) :.< 0 9 W <.[.}.|.1.2.! f f 2 3.f 4.. . . . . . . . . . . . ",
". . . . . . . . . . . l 3 5 5.6.7.8.9.0.a.b.c.d.f e...^ ) f.. . . . . . . . . . . . ",
". . . . . . . . . . . g.) ^ k h.i.j.k.l.m.n.o.f J o.! ) O . . . . . . . . . . . . . ",
". . . . . . . . . . . . p.g ^ q.9 r.s.t.u.v.w.@...6 j 4 . . . . . . . . . . . . . . ",
". . . . . . . . . . . . . x.; 5 g y.9.z.A.9.B.C.e.= z . . . . . . . . . . . . . . . ",
". . . . . . . . . . . . . . D.f ) 6.i.2.E.d F.^.- =.. . . . . . . . . . . . . . . . ",
". . . . . . . . . . . . . . . . G.x ) H.I.9 a J.K.. . . . . . . . . . . . . . . . . ",
". . . . . . . . . . . . L.. . . . . o.M.N.5 O.. . . . P.. . . . . . . . . . . . . . ",
". . . . . . . . . . . Q.R.S.. . . . 6 9 d ) T.. . . U.V.W.. . . . . . . . . . . . . ",
". . . . . . . . . . . X.Y.Z.. . . . ! ) ' ) `.. . .  +Y..+. . . . . . . . . . . . . ",
". . . . . . . . . . . ++@+#+. . . . $+) ' 6 . . . . %+@+&+. . . . . . . . . . . . . ",
". . . . . . . . . . . *+) = . . . . =+) 9 -+. . . . ;+) >+. . . . . . . . . . . . . ",
". . . . . . . . . . . ,+) '+)+!+~+{+]+) d 4.^+/+f.(+-+) ~ . . . . . . . . . . . . . ",
". . . . . . . . . . . _+) h :+( 1 ~ r ( 1 % ( 1 1 <+9 ) <+. . . . . . . . . . . . . ",
". . . . . . . . . . . _+) ) -+[+}+` |+' u }+}+1+}+(.d ) 2+. . . . . . . . . . . . . ",
". . . . . . . . . . . _+) ) 3+. . . . 4+5+6+. . . . g ) <+. . . . . . . . . . . . . ",
". . . . . . . . . . . _+) ) 7+. . . . 8+9+. . . . . = ) <+. . . . . . . . . . . . . ",
". . . . . . . . . . . 7+) 5 . . . . . 0+a+. . . . . -+) <+. . . . . . . . . . . . . ",
". . . . . . . . . . . ,+) = . . . . . . . . . . . . <+) ~ . . . . . . . . . . . . . ",
". . . . . . . . . . . ,+) = . . . . . . . . . . . . ~ ) ~ . . . . . . . . . . . . . ",
". . . . . . . . . . . ,+) = . . . . . . . . . . . . ~ ) ~ . . . . . . . . . . . . . ",
". . . . . . . . . . . 7+) = . . . . . . . . . . . . <+) <+. . . . . . . . . . . . . ",
". . . . . . . . . . . _+) = . . . . . . . . . . . . <+) <+. . . . . . . . . . . . . ",
". . . . . . . . . . . x.) 3 b+. . . . . . . . . . . k ) k . . . . . . . . . . . . . ",
". . . . . . . . . . . ~ ) ) c+. . . . . . . . . . . = ) = . . . . . . . . . . . . . ",
". . . . . . . . . . . >+) ) d+. . . . . . . . . . . 5 ) 5 . . . . . . . . . . . . . ",
". . . . . . . . . . . ;.) ) e+. . . . . . . . . . . u ) u . . . . . . . . . . . . . ",
". . . . . . . . . . . . f+g+. . . . . . . . . . . . =+h+=+. . . . . . . . . . . . . ",
". . . . . . . . . . . . i+j+. . . . . . . . . . . . . k+. . . . . . . . . . . . . . "};
